{
.appVersion = "1356";
DisplayStrings = (
"0123456"
);
classes = (
{
automatic = 1;

glyphs = (
{
glyphname = A;
layers = (
{
anchors = (
{
name = bottom;
position = "{271, 0}";
},
{
name = ogonek;
position = "{490, 0}";
},
{
name = top;
position = "{374, 724}";
}
);
layerId = "C7717117-F750-4912-BA39-B64C3F969EBE";
paths = (
{
closed = 1;
nodes = (
"332 724 LINE",
"-6 0 LINE",
"75 0 LINE",
"190 249 LINE",
"417 249 LINE",
"464 0 LINE",
"561 0 LINE",
"419 724 LINE"
);
},
{
closed = 1;
nodes = (
"404 316 LINE",
"221 316 LINE",
"351 602 LINE"
);
}
);
width = 605;
},
{
anchors = (
{
name = bottom;
position = "{237, 0}";
},
{
name = ogonek;
position = "{436, 0}";
},
{
name = top;
position = "{340, 732}";
}
);
layerId = "38588886-3B3E-4A1D-B58B-01CA69B4ACA2";
paths = (
{
closed = 1;
nodes = (
"289 732 LINE",
"-55 0 LINE",
"69 0 LINE",
"166 210 LINE",
"366 210 LINE",
"405 0 LINE",
"545 0 LINE",
"397 732 LINE"
);
},
{
closed = 1;
nodes = (
"349 308 LINE",
"206 308 LINE",
"309 558 LINE"
);
}
);
width = 585;
}
);
leftKerningGroup = A;
note = A;
rightKerningGroup = A;
unicode = 0041;
},
{
glyphname = AE;
layers = (
{
anchors = (
{
name = top;
position = "{530, 724}";
}
);
layerId = "C7717117-F750-4912-BA39-B64C3F969EBE";
paths = (
{
closed = 1;
nodes = (
"384 0 LINE",
"768 0 LINE",
"778 69 LINE",
"483 69 LINE",
"518 338 LINE",
"760 338 LINE",
"770 406 LINE",
"529 406 LINE",
"561 655 LINE",
"854 655 LINE",
"864 724 LINE",
"395 724 LINE",
"400 660 LINE",
"-26 0 LINE",
"57 0 LINE",
"218 247 LINE",
"417 247 LINE"
);
},
{
closed = 1;
nodes = (
"469 637 LINE",
"427 318 LINE",
"264 318 LINE"
);
}
);
width = 820;
},
{
anchors = (
{
name = top;
position = "{539, 732}";
}
);
layerId = "38588886-3B3E-4A1D-B58B-01CA69B4ACA2";
paths = (
{
closed = 1;
nodes = (
"379 0 LINE",
"784 0 LINE",
"798 99 LINE",
"531 99 LINE",
"563 327 LINE",
"778 327 LINE",
"792 426 LINE",
"577 426 LINE",
"606 633 LINE",
"873 633 LINE",
"887 732 LINE",
"373 732 LINE",
"378 670 LINE",
"-55 0 LINE",
"67 0 LINE",
"204 210 LINE",
"409 210 LINE"
);
},
{
closed = 1;
nodes = (
"466 633 LINE",
"422 308 LINE",
"268 308 LINE"
);
}
);
width = 862;
}
);
leftKerningGroup = A;
note = AE;
rightKerningGroup = AE;
unicode = 00C6;
},
{
glyphname = B;
layers = (
{
layerId = "C7717117-F750-4912-BA39-B64C3F969EBE";
paths = (
{
closed = 1;
nodes = (
"550 690 OFFCURVE",
"459 724 OFFCURVE",
"356 724 CURVE SMOOTH",
"134 724 LINE",
"134 659 LINE",
"45 0 LINE",
"234 0 LINE SMOOTH",
"391 0 OFFCURVE",
"534 50 OFFCURVE",
"534 235 CURVE SMOOTH",
"534 323 OFFCURVE",
"482 375 OFFCURVE",
"404 395 CURVE",
"489 418 OFFCURVE",
"550 484 OFFCURVE",
"550 574 CURVE SMOOTH"
);
},
{
closed = 1;
nodes = (
"456 470 OFFCURVE",
"389 427 OFFCURVE",
"292 427 CURVE SMOOTH",
"193 427 LINE",
"223 655 LINE",
"345 655 LINE SMOOTH",
"404 655 OFFCURVE",
"456 635 OFFCURVE",
"456 570 CURVE SMOOTH"
);
},
{
closed = 1;
nodes = (
"441 119 OFFCURVE",
"362 69 OFFCURVE",
"248 69 CURVE SMOOTH",
"145 69 LINE",
"182 355 LINE",
"288 355 LINE SMOOTH",
"365 355 OFFCURVE",
"441 326 OFFCURVE",
"441 241 CURVE SMOOTH"
);
}
);
width = 580;
},
{
layerId = "38588886-3B3E-4A1D-B58B-01CA69B4ACA2";
paths = (
{
closed = 1;
nodes = (
"549 706 OFFCURVE",
"438 732 OFFCURVE",
"343 732 CURVE SMOOTH",
"95 732 LINE",
"101 671 LINE",
"11 0 LINE",
"254 0 LINE SMOOTH",
"394 0 OFFCURVE",
"533 73 OFFCURVE",
"533 229 CURVE SMOOTH",
"533 318 OFFCURVE",
"469 384 OFFCURVE",
"383 399 CURVE",
"478 413 OFFCURVE",
"549 493 OFFCURVE",
"549 589 CURVE SMOOTH"
);
},
{
closed = 1;
nodes = (
"408 497 OFFCURVE",
"363 446 OFFCURVE",
"299 446 CURVE SMOOTH",
"202 446 LINE",
"227 633 LINE",
"321 633 LINE SMOOTH",
"370 633 OFFCURVE",
"408 613 OFFCURVE",
"408 559 CURVE SMOOTH"
);
},
{
closed = 1;
nodes = (
"397 158 OFFCURVE",
"340 99 OFFCURVE",
"258 99 CURVE SMOOTH",
"156 99 LINE",
"189 347 LINE",
"263 347 LINE SMOOTH",
"331 347 OFFCURVE",
"397 315 OFFCURVE",
"397 239 CURVE SMOOTH"
);
}
);
width = 566;
}
);
leftKerningGroup = B;
note = B;
rightKerningGroup = B;
unicode = 0042;
},
{
glyphname = C;
layers = (
{
anchors = (
{
name = bottom;
position = "{296, 0}";
},
{
name = top;
position = "{396, 724}";
}
);
background = {
paths = (
{
closed = 1;
nodes = (
"396 -10 OFFCURVE",
"478 14 OFFCURVE",
"541 59 CURVE",
"516 114 LINE",
"456 80 OFFCURVE",
"393 65 OFFCURVE",
"333 65 CURVE SMOOTH",
"200 65 OFFCURVE",
"142 173 OFFCURVE",
"142 297 CURVE SMOOTH",
"142 471 OFFCURVE",
"248 665 OFFCURVE",
"413 665 CURVE SMOOTH",
"468 665 OFFCURVE",
"524 645 OFFCURVE",
"564 599 CURVE",
"620 657 LINE",
"571 714 OFFCURVE",
"491 734 OFFCURVE",
"423 734 CURVE SMOOTH",
"184 734 OFFCURVE",
"45 498 OFFCURVE",
"45 292 CURVE SMOOTH",
"45 132 OFFCURVE",
"129 -10 OFFCURVE",
"317 -10 CURVE SMOOTH"
);
}
);
};
layerId = "C7717117-F750-4912-BA39-B64C3F969EBE";
paths = (
{
closed = 1;
nodes = (
"396 -10 OFFCURVE",
"478 14 OFFCURVE",
"541 59 CURVE",
"516 114 LINE",
"456 80 OFFCURVE",
"393 65 OFFCURVE",
"333 65 CURVE SMOOTH",
"202 65 OFFCURVE",
"142 178 OFFCURVE",
"142 307 CURVE SMOOTH",
"142 473 OFFCURVE",
"242 665 OFFCURVE",
"413 665 CURVE SMOOTH",
"468 665 OFFCURVE",
"524 645 OFFCURVE",
"564 599 CURVE",
"620 657 LINE",
"571 714 OFFCURVE",
"491 734 OFFCURVE",
"423 734 CURVE SMOOTH",
"179 734 OFFCURVE",
"45 505 OFFCURVE",
"45 301 CURVE SMOOTH",
"45 137 OFFCURVE",
"132 -10 OFFCURVE",
"317 -10 CURVE SMOOTH"
);
}
);
width = 585;
},
{
anchors = (
{
name = bottom;
position = "{296, 0}";
},
{
name = top;
position = "{396, 732}";
}
);
background = {
paths = (
{
closed = 1;
nodes = (
"397 -12 OFFCURVE",
"465 14 OFFCURVE",
"543 62 CURVE",
"507 134 LINE",
"439 99 OFFCURVE",
"379 82 OFFCURVE",
"329 82 CURVE SMOOTH",
"222 82 OFFCURVE",
"160 162 OFFCURVE",
"160 320 CURVE SMOOTH",
"160 462 OFFCURVE",
"230 649 OFFCURVE",
"398 649 CURVE SMOOTH",
"449 649 OFFCURVE",
"510 626 OFFCURVE",
"541 583 CURVE",
"622 675 LINE",
"573 726 OFFCURVE",
"474 746 OFFCURVE",
"406 746 CURVE SMOOTH",
"157 746 OFFCURVE",
"17 522 OFFCURVE",
"17 293 CURVE SMOOTH",
"17 110 OFFCURVE",
"114 -12 OFFCURVE",
"304 -12 CURVE SMOOTH"
);
}
);
};
guideLines = (
{
position = "{584, 82}";
}
);
layerId = "38588886-3B3E-4A1D-B58B-01CA69B4ACA2";
paths = (
{
closed = 1;
nodes = (
"397 -12 OFFCURVE",
"465 14 OFFCURVE",
"543 62 CURVE",
"507 134 LINE",
"439 99 OFFCURVE",
"379 82 OFFCURVE",
"329 82 CURVE SMOOTH",
"213 82 OFFCURVE",
"160 193 OFFCURVE",
"160 317 CURVE SMOOTH",
"160 473 OFFCURVE",
"245 649 OFFCURVE",
"398 649 CURVE SMOOTH",
"449 649 OFFCURVE",
"510 626 OFFCURVE",
"541 583 CURVE",
"622 675 LINE",
"573 726 OFFCURVE",
"474 746 OFFCURVE",
"406 746 CURVE SMOOTH",
"161 746 OFFCURVE",
"17 508 OFFCURVE",
"17 298 CURVE SMOOTH",
"17 134 OFFCURVE",
"105 -12 OFFCURVE",
"304 -12 CURVE SMOOTH"
);
}
);
width = 587;
}
);
leftKerningGroup = C;
note = C;
rightKerningGroup = C;
unicode = 0043;
},
{
glyphname = D;
layers = (
{
anchors = (
{
name = center;
position = "{199, 360}";
},
{
name = top;
position = "{376, 724}";
}
);
layerId = "C7717117-F750-4912-BA39-B64C3F969EBE";
paths = (
{
closed = 1;
nodes = (
"639 595 OFFCURVE",
"560 724 OFFCURVE",
"378 724 CURVE SMOOTH",
"134 724 LINE",
"134 659 LINE",
"45 0 LINE",
"275 0 LINE SMOOTH",
"524 0 OFFCURVE",
"639 218 OFFCURVE",
"639 434 CURVE SMOOTH"
);
},
{
closed = 1;
nodes = (
"545 278 OFFCURVE",
"468 69 OFFCURVE",
"281 69 CURVE SMOOTH",
"145 69 LINE",
"223 655 LINE",
"369 655 LINE SMOOTH",
"503 655 OFFCURVE",
"545 544 OFFCURVE",
"545 430 CURVE SMOOTH"
);
}
);
width = 679;
},
{
anchors = (
{
name = center;
position = "{166, 368}";
},
{
name = top;
position = "{373, 732}";
}
);
layerId = "38588886-3B3E-4A1D-B58B-01CA69B4ACA2";
paths = (
{
closed = 1;
nodes = (
"647 618 OFFCURVE",
"542 732 OFFCURVE",
"357 732 CURVE SMOOTH",
"94 732 LINE",
"101 671 LINE",
"11 0 LINE",
"258 0 LINE SMOOTH",
"502 0 OFFCURVE",
"647 207 OFFCURVE",
"647 435 CURVE SMOOTH"
);
},
{
closed = 1;
nodes = (
"505 277 OFFCURVE",
"436 99 OFFCURVE",
"266 99 CURVE SMOOTH",
"156 99 LINE",
"227 633 LINE",
"335 633 LINE SMOOTH",
"461 633 OFFCURVE",
"505 534 OFFCURVE",
"505 423 CURVE SMOOTH"
);
}
);
width = 664;
}
);
leftKerningGroup = B;
note = D;
rightKerningGroup = D;
unicode = 0044;
},
{
glyphname = E;
layers = (
{
anchors = (
{
name = bottom;
position = "{262, 0}";
},
{
name = ogonek;
position = "{385, 0}";
},
{
name = top;
position = "{342, 724}";
}
);
layerId = "C7717117-F750-4912-BA39-B64C3F969EBE";
paths = (
{
closed = 1;
nodes = (
"133 659 LINE",
"45 0 LINE",
"447 0 LINE",
"456 69 LINE",
"143 69 LINE",
"179 337 LINE",
"421 337 LINE",
"431 405 LINE",
"189 405 LINE",
"221 655 LINE",
"534 655 LINE",
"544 724 LINE",
"133 724 LINE"
);
}
);
width = 500;
},
{
anchors = (
{
name = bottom;
position = "{252, 0}";
},
{
name = ogonek;
position = "{343, 0}";
},
{
name = top;
position = "{321, 732}";
}
);
layerId = "38588886-3B3E-4A1D-B58B-01CA69B4ACA2";
paths = (
{
closed = 1;
nodes = (
"101 671 LINE",
"11 0 LINE",
"434 0 LINE",
"447 99 LINE",
"155 99 LINE",
"185 327 LINE",
"409 327 LINE",
"422 426 LINE",
"198 426 LINE",
"226 633 LINE",
"519 633 LINE",
"532 732 LINE",
"94 732 LINE"
);
}
);
width = 507;
}
);
leftKerningGroup = B;
note = E;
rightKerningGroup = AE;
unicode = 0045;
},
{
glyphname = F;
layers = (
{
layerId = "C7717117-F750-4912-BA39-B64C3F969EBE";
paths = (
{
closed = 1;
nodes = (
"132 659 LINE",
"44 0 LINE",
"133 0 LINE",
"179 338 LINE",
"402 338 LINE",
"412 406 LINE",
"189 406 LINE",
"221 655 LINE",
"503 655 LINE",
"512 724 LINE",
"132 724 LINE"
);
}
);
width = 468;
},
{
layerId = "38588886-3B3E-4A1D-B58B-01CA69B4ACA2";
paths = (
{
closed = 1;
nodes = (
"101 671 LINE",
"11 0 LINE",
"142 0 LINE",
"186 327 LINE",
"389 327 LINE",
"402 426 LINE",
"199 426 LINE",
"227 633 LINE",
"489 633 LINE",
"502 732 LINE",
"95 732 LINE"
);
}
);
width = 467;
}
);
leftKerningGroup = B;
note = F;
rightKerningGroup = F;
unicode = 0046;
},
{
glyphname = Fhook;
layers = (
{
layerId = "C7717117-F750-4912-BA39-B64C3F969EBE";
paths = (
{
closed = 1;
nodes = (
"-86 -222 LINE",
"78 -207 OFFCURVE",
"121 -91 OFFCURVE",
"140 48 CURVE SMOOTH",
"179 338 LINE",
"402 338 LINE",
"412 406 LINE",
"189 406 LINE",
"222 655 LINE",
"503 655 LINE",
"512 724 LINE",
"132 724 LINE",
"132 659 LINE",
"49 46 LINE SMOOTH",
"37 -38 OFFCURVE",
"13 -155 OFFCURVE",
"-94 -170 CURVE"
);
}
);
width = 468;
},
{
layerId = "38588886-3B3E-4A1D-B58B-01CA69B4ACA2";
paths = (
{
closed = 1;
nodes = (
"-112 -209 LINE",
"86 -200 OFFCURVE",
"132 -70 OFFCURVE",
"155 98 CURVE SMOOTH",
"186 327 LINE",
"389 327 LINE",
"402 426 LINE",
"199 426 LINE",
"227 633 LINE",
"489 633 LINE",
"502 732 LINE",
"95 732 LINE",
"101 671 LINE",
"17 47 LINE SMOOTH",
"6 -34 OFFCURVE",
"-14 -119 OFFCURVE",
"-113 -131 CURVE"
);
}
);
width = 467;
}
);
unicode = 0191;
},
{
glyphname = G;
layers = (
{
anchors = (
{
name = bottom;
position = "{297, 0}";
},
{
name = top;
position = "{401, 724}";
}
);
layerId = "C7717117-F750-4912-BA39-B64C3F969EBE";
paths = (
{
closed = 1;
nodes = (
"172 734 OFFCURVE",
"45 502 OFFCURVE",
"45 281 CURVE SMOOTH",
"45 122 OFFCURVE",
"122 -10 OFFCURVE",
"299 -10 CURVE SMOOTH",
"380 -10 OFFCURVE",
"449 18 OFFCURVE",
"509 75 CURVE",
"528 0 LINE",
"576 0 LINE",
"587 127 OFFCURVE",
"600 246 OFFCURVE",
"619 373 CURVE",
"359 373 LINE",
"350 305 LINE",
"519 305 LINE",
"511 240 LINE SMOOTH",
"498 142 OFFCURVE",
"423 65 OFFCURVE",
"323 65 CURVE SMOOTH",
"187 65 OFFCURVE",
"140 171 OFFCURVE",
"140 292 CURVE SMOOTH",
"140 459 OFFCURVE",
"220 665 OFFCURVE",
"413 665 CURVE SMOOTH",
"486 665 OFFCURVE",
"533 644 OFFCURVE",
"583 592 CURVE",
"640 651 LINE",
"590 712 OFFCURVE",
"490 734 OFFCURVE",
"422 734 CURVE SMOOTH"
);
}
);
width = 667;
},
{
anchors = (
{
name = bottom;
position = "{302, 0}";
},
{
name = top;
position = "{406, 732}";
}
);
layerId = "38588886-3B3E-4A1D-B58B-01CA69B4ACA2";
paths = (
{
closed = 1;
nodes = (
"161 744 OFFCURVE",
"17 527 OFFCURVE",
"17 284 CURVE SMOOTH",
"17 115 OFFCURVE",
"101 -11 OFFCURVE",
"281 -11 CURVE SMOOTH",
"371 -11 OFFCURVE",
"432 17 OFFCURVE",
"500 75 CURVE",
"521 -1 LINE",
"589 -1 LINE",
"600 130 OFFCURVE",
"619 260 OFFCURVE",
"638 390 CURVE",
"361 390 LINE",
"350 302 LINE",
"494 302 LINE",
"486 240 LINE SMOOTH",
"475 159 OFFCURVE",
"410 85 OFFCURVE",
"316 85 CURVE SMOOTH",
"193 85 OFFCURVE",
"158 207 OFFCURVE",
"158 308 CURVE SMOOTH",
"158 462 OFFCURVE",
"228 650 OFFCURVE",
"409 650 CURVE SMOOTH",
"486 650 OFFCURVE",
"518 632 OFFCURVE",
"575 583 CURVE",
"655 665 LINE",
"605 723 OFFCURVE",
"495 744 OFFCURVE",
"422 744 CURVE SMOOTH"
);
}
);
width = 668;
}
);
leftKerningGroup = C;
note = G;
unicode = 0047;
},
{
glyphname = H;
layers = (
{
anchors = (
{
name = bottom;
position = "{292, 0}";
},
{
name = center;
position = "{377, 558}";
},
{
name = top;
position = "{396, 724}";
}
);
layerId = "C7717117-F750-4912-BA39-B64C3F969EBE";
paths = (
{
closed = 1;
nodes = (
"558 0 LINE",
"656 724 LINE",
"566 724 LINE",
"524 410 LINE",
"190 410 LINE",
"232 724 LINE",
"133 724 LINE",
"133 659 LINE",
"44 0 LINE",
"134 0 LINE",
"180 342 LINE",
"514 342 LINE",
"468 0 LINE"
);
}
);
width = 672;
},
{
anchors = (
{
name = bottom;
position = "{272, 0}";
},
{
name = center;
position = "{357, 558}";
},
{
name = top;
position = "{376, 732}";
}
);
layerId = "38588886-3B3E-4A1D-B58B-01CA69B4ACA2";
paths = (
{
closed = 1;
nodes = (
"565 0 LINE",
"663 732 LINE",
"531 732 LINE",
"490 426 LINE",
"198 426 LINE",
"239 732 LINE",
"95 732 LINE",
"101 671 LINE",
"11 0 LINE",
"142 0 LINE",
"185 327 LINE",
"477 327 LINE",
"433 0 LINE"
);
}
);
width = 674;
}
);
leftKerningGroup = B;
note = H;
rightKerningGroup = H;
unicode = 0048;
},
{
glyphname = I;
layers = (
{
anchors = (
{
name = bottom;
position = "{91, 0}";
},
{
name = ogonek;
position = "{83, 0}";
},
{
name = top;
position = "{185, 724}";
}
);
layerId = "C7717117-F750-4912-BA39-B64C3F969EBE";
paths = (
{
closed = 1;
nodes = (
"136 659 LINE",
"47 0 LINE",
"137 0 LINE",
"235 724 LINE",
"136 724 LINE"
);
}
);
width = 251;
},
{
anchors = (
{
name = bottom;
position = "{79, 0}";
},
{
name = ogonek;
position = "{55, 0}";
},
{
name = top;
position = "{173, 732}";
}
);
layerId = "38588886-3B3E-4A1D-B58B-01CA69B4ACA2";
paths = (
{
closed = 1;
nodes = (
"101 671 LINE",
"11 0 LINE",
"142 0 LINE",
"239 732 LINE",
"95 732 LINE"
);
}
);
width = 250;
}
);
note = I;
unicode = 0049;
},
{
glyphname = J;
layers = (
{
anchors = (
{
name = top;
position = "{191, 724}";
}
);
layerId = "C7717117-F750-4912-BA39-B64C3F969EBE";
paths = (
{
closed = 1;
nodes = (
"139 658 LINE",
"56 46 LINE SMOOTH",
"45 -38 OFFCURVE",
"20 -155 OFFCURVE",
"-87 -170 CURVE",
"-79 -222 LINE",
"85 -207 OFFCURVE",
"125 -91 OFFCURVE",
"144 48 CURVE SMOOTH",
"238 724 LINE",
"139 724 LINE"
);
}
);
width = 253;
},
{
anchors = (
{
name = top;
position = "{172, 732}";
}
);
background = {
paths = (
{
closed = 1;
nodes = (
"105 671 LINE",
"21 47 LINE SMOOTH",
"12 -16 OFFCURVE",
"-7 -139 OFFCURVE",
"-90 -139 CURVE SMOOTH",
"-116 -139 OFFCURVE",
"-147 -122 OFFCURVE",
"-164 -103 CURVE",
"-226 -186 LINE",
"-188 -212 OFFCURVE",
"-130 -230 OFFCURVE",
"-84 -230 CURVE SMOOTH",
"115 -230 OFFCURVE",
"136 -76 OFFCURVE",
"157 81 CURVE SMOOTH",
"243 732 LINE",
"99 732 LINE"
);
}
);
};
layerId = "38588886-3B3E-4A1D-B58B-01CA69B4ACA2";
paths = (
{
closed = 1;
nodes = (
"105 671 LINE",
"21 47 LINE SMOOTH",
"10 -34 OFFCURVE",
"-10 -119 OFFCURVE",
"-109 -131 CURVE",
"-108 -209 LINE",
"90 -200 OFFCURVE",
"137 -70 OFFCURVE",
"159 98 CURVE SMOOTH",
"243 732 LINE",
"99 732 LINE"
);
}
);
width = 254;
}
);
leftKerningGroup = B;
note = J;
rightKerningGroup = H;
unicode = 004A;
},
{
glyphname = K;
layers = (
{
anchors = (
{
name = bottom;
position = "{262, 0}";
}
);
background = {
paths = (
{
closed = 1;
nodes = (
"219 391 LINE",
"407 0 LINE",
"511 0 LINE",
"317 404 LINE",
"590 724 LINE",
"504 724 LINE"
);
},
{
closed = 1;
nodes = (
"342 430 OFFCURVE",
"357 445 OFFCURVE",
"357 463 CURVE SMOOTH",
"357 481 OFFCURVE",
"342 496 OFFCURVE",
"324 496 CURVE SMOOTH",
"306 496 OFFCURVE",
"291 481 OFFCURVE",
"291 463 CURVE SMOOTH",
"291 445 OFFCURVE",
"306 430 OFFCURVE",
"324 430 CURVE SMOOTH"
);
},
{
closed = 1;
nodes = (
"516 633 OFFCURVE",
"531 648 OFFCURVE",
"531 666 CURVE SMOOTH",
"531 684 OFFCURVE",
"516 699 OFFCURVE",
"498 699 CURVE SMOOTH",
"480 699 OFFCURVE",
"465 684 OFFCURVE",
"465 666 CURVE SMOOTH",
"465 648 OFFCURVE",
"480 633 OFFCURVE",
"498 633 CURVE SMOOTH"
);
},
{
closed = 1;
nodes = (
"316 305 OFFCURVE",
"337 326 OFFCURVE",
"337 352 CURVE SMOOTH",
"337 377 OFFCURVE",
"316 398 OFFCURVE",
"290 398 CURVE SMOOTH",
"264 398 OFFCURVE",
"243 377 OFFCURVE",
"243 352 CURVE SMOOTH",
"243 326 OFFCURVE",
"264 305 OFFCURVE",
"290 305 CURVE SMOOTH"
);
},
{
closed = 1;
nodes = (
"446 35 OFFCURVE",
"467 56 OFFCURVE",
"467 82 CURVE SMOOTH",
"467 107 OFFCURVE",
"446 128 OFFCURVE",
"420 128 CURVE SMOOTH",
"394 128 OFFCURVE",
"373 107 OFFCURVE",
"373 82 CURVE SMOOTH",
"373 56 OFFCURVE",
"394 35 OFFCURVE",
"420 35 CURVE SMOOTH"
);
},
{
closed = 1;
nodes = (
"281 401 LINE",
"598 724 LINE",
"504 724 LINE",
"188 401 LINE",
"232 724 LINE",
"133 724 LINE",
"133 659 LINE",
"44 0 LINE",
"134 0 LINE",
"185 379 LINE",
"407 0 LINE",
"518 0 LINE"
);
}
);
};
layerId = "C7717117-F750-4912-BA39-B64C3F969EBE";
paths = (
{
closed = 1;
nodes = (
"133 724 LINE",
"133 659 LINE",
"44 0 LINE",
"134 0 LINE",
"232 724 LINE"
);
},
{
closed = 1;
nodes = (
"219 391 LINE",
"407 0 LINE",
"511 0 LINE",
"317 404 LINE",
"590 724 LINE",
"504 724 LINE"
);
}
);
width = 558;
},
{
anchors = (
{
name = bottom;
position = "{243, 0}";
}
);
background = {
paths = (
{
closed = 1;
nodes = (
"368 398 OFFCURVE",
"392 422 OFFCURVE",
"392 453 CURVE SMOOTH",
"392 483 OFFCURVE",
"368 507 OFFCURVE",
"338 507 CURVE SMOOTH",
"307 507 OFFCURVE",
"283 483 OFFCURVE",
"283 453 CURVE SMOOTH",
"283 422 OFFCURVE",
"307 398 OFFCURVE",
"338 398 CURVE SMOOTH"
);
},
{
closed = 1;
nodes = (
"489 586 OFFCURVE",
"513 610 OFFCURVE",
"513 641 CURVE SMOOTH",
"513 671 OFFCURVE",
"489 695 OFFCURVE",
"459 695 CURVE SMOOTH",
"428 695 OFFCURVE",
"404 671 OFFCURVE",
"404 641 CURVE SMOOTH",
"404 610 OFFCURVE",
"428 586 OFFCURVE",
"459 586 CURVE SMOOTH"
);
},
{
closed = 1;
nodes = (
"361 237 OFFCURVE",
"391 267 OFFCURVE",
"391 303 CURVE SMOOTH",
"391 339 OFFCURVE",
"361 369 OFFCURVE",
"325 369 CURVE SMOOTH",
"289 369 OFFCURVE",
"259 339 OFFCURVE",
"259 303 CURVE SMOOTH",
"259 267 OFFCURVE",
"289 237 OFFCURVE",
"325 237 CURVE SMOOTH"
);
},
{
closed = 1;
nodes = (
"435 37 OFFCURVE",
"465 67 OFFCURVE",
"465 103 CURVE SMOOTH",
"465 139 OFFCURVE",
"435 169 OFFCURVE",
"399 169 CURVE SMOOTH",
"363 169 OFFCURVE",
"333 139 OFFCURVE",
"333 103 CURVE SMOOTH",
"333 67 OFFCURVE",
"363 37 OFFCURVE",
"399 37 CURVE SMOOTH"
);
},
{
closed = 1;
nodes = (
"330 387 LINE",
"588 732 LINE",
"447 732 LINE",
"192 383 LINE",
"239 732 LINE",
"95 732 LINE",
"101 671 LINE",
"11 0 LINE",
"142 0 LINE",
"192 377 LINE",
"361 0 LINE",
"515 0 LINE"
);
}
);
};
layerId = "38588886-3B3E-4A1D-B58B-01CA69B4ACA2";
paths = (
{
closed = 1;
nodes = (
"95 732 LINE",
"101 671 LINE",
"11 0 LINE",
"142 0 LINE",
"239 732 LINE"
);
},
{
closed = 1;
nodes = (
"228 380 LINE",
"366 0 LINE",
"507 0 LINE",
"363 391 LINE",
"585 732 LINE",
"452 732 LINE"
);
}
);
width = 558;
}
);
leftKerningGroup = B;
note = K;
rightKerningGroup = K;
unicode = 004B;
},
{
glyphname = L;
layers = (
{
anchors = (
{
name = bottom;
position = "{245, 0}";
},
{
name = center;
position = "{141, 355}";
},
{
name = top;
position = "{179, 724}";
},
{
name = topright;
position = "{194, 492}";
}
);
layerId = "C7717117-F750-4912-BA39-B64C3F969EBE";
paths = (
{
closed = 1;
nodes = (
"134 724 LINE",
"134 659 LINE",
"45 0 LINE",
"425 0 LINE",
"435 69 LINE",
"146 69 LINE",
"234 724 LINE"
);
}
);
width = 471;
},
{
anchors = (
{
name = bottom;
position = "{232, 0}";
},
{
name = center;
position = "{127, 367}";
},
{
name = top;
position = "{168, 732}";
},
{
name = topright;
position = "{179, 494}";
}
);
layerId = "38588886-3B3E-4A1D-B58B-01CA69B4ACA2";
paths = (
{
closed = 1;
nodes = (
"96 732 LINE",
"101 671 LINE",
"11 0 LINE",
"415 0 LINE",
"428 99 LINE",
"156 99 LINE",
"240 732 LINE"
);
}
);
width = 458;
}
);
leftKerningGroup = B;
note = L;
rightKerningGroup = L;
unicode = 004C;
},
{
glyphname = M;
layers = (
{
background = {
paths = (
{
closed = 1;
nodes = (
"132 724 LINE",
"132 660 LINE",
"44 0 LINE",
"117 0 LINE",
"185 499 LINE SMOOTH",
"189 529 OFFCURVE",
"193 560 OFFCURVE",
"197 590 CURVE",
"204 560 OFFCURVE",
"210 529 OFFCURVE",
"217 499 CURVE SMOOTH",
"325 -2 LINE",
"378 -2 LINE",
"621 501 LINE SMOOTH",
"635 530 OFFCURVE",
"650 560 OFFCURVE",
"664 589 CURVE",
"660 560 OFFCURVE",
"656 530 OFFCURVE",
"652 501 CURVE SMOOTH",
"585 0 LINE",
"675 0 LINE",
"773 724 LINE",
"655 724 LINE",
"416 233 LINE SMOOTH",
"404 209 OFFCURVE",
"393 185 OFFCURVE",
"381 161 CURVE",
"376 185 OFFCURVE",
"370 208 OFFCURVE",
"365 232 CURVE SMOOTH",
"256 724 LINE"
);
}
);
};
layerId = "C7717117-F750-4912-BA39-B64C3F969EBE";
paths = (
{
closed = 1;
nodes = (
"132 724 LINE",
"132 660 LINE",
"44 0 LINE",
"117 0 LINE",
"185 499 LINE SMOOTH",
"189 529 OFFCURVE",
"193 560 OFFCURVE",
"197 600 CURVE",
"204 560 OFFCURVE",
"210 529 OFFCURVE",
"217 499 CURVE SMOOTH",
"325 -2 LINE",
"378 -2 LINE",
"621 501 LINE SMOOTH",
"635 530 OFFCURVE",
"650 560 OFFCURVE",
"664 599 CURVE",
"660 560 OFFCURVE",
"656 530 OFFCURVE",
"652 501 CURVE SMOOTH",
"585 0 LINE",
"675 0 LINE",
"773 724 LINE",
"655 724 LINE",
"416 233 LINE SMOOTH",
"404 209 OFFCURVE",
"392 185 OFFCURVE",
"379 151 CURVE",
"375 185 OFFCURVE",
"370 208 OFFCURVE",
"365 232 CURVE SMOOTH",
"256 724 LINE"
);
}
);
width = 789;
},
{
layerId = "38588886-3B3E-4A1D-B58B-01CA69B4ACA2";
paths = (
{
closed = 1;
nodes = (
"95 732 LINE",
"100 671 LINE",
"11 0 LINE",
"120 0 LINE",
"187 496 LINE SMOOTH",
"190 520 OFFCURVE",
"190 545 OFFCURVE",
"191 568 CURVE",
"194 539 OFFCURVE",
"203 505 OFFCURVE",
"205 496 CURVE SMOOTH",
"314 -1 LINE",
"402 -1 LINE",
"638 496 LINE SMOOTH",
"650 520 OFFCURVE",
"660 544 OFFCURVE",
"670 568 CURVE",
"666 545 OFFCURVE",
"659 520 OFFCURVE",
"656 496 CURVE SMOOTH",
"590 0 LINE",
"721 0 LINE",
"819 732 LINE",
"632 732 LINE",
"432 307 LINE SMOOTH",
"414 270 OFFCURVE",
"403 234 OFFCURVE",
"390 190 CURVE",
"388 231 OFFCURVE",
"388 271 OFFCURVE",
"379 311 CURVE SMOOTH",
"287 732 LINE"
);
}
);
width = 830;
}
);
leftKerningGroup = B;
note = M;
rightKerningGroup = H;
unicode = 004D;
},
{
glyphname = N;
layers = (
{
anchors = (
{
name = bottom;
position = "{301, 0}";
},
{
name = top;
position = "{397, 724}";
}
);
layerId = "C7717117-F750-4912-BA39-B64C3F969EBE";
paths = (
{
closed = 1;
nodes = (
"134 724 LINE",
"134 659 LINE",
"45 0 LINE",
"119 0 LINE",
"192 545 LINE SMOOTH",
"195 567 OFFCURVE",
"198 590 OFFCURVE",
"201 622 CURVE",
"211 591 OFFCURVE",
"221 571 OFFCURVE",
"231 550 CURVE SMOOTH",
"502 -5 LINE",
"559 -5 LINE",
"657 724 LINE",
"584 724 LINE",
"519 249 LINE SMOOTH",
"516 227 OFFCURVE",
"513 205 OFFCURVE",
"510 173 CURVE",
"499 206 OFFCURVE",
"488 229 OFFCURVE",
"477 252 CURVE SMOOTH",
"248 724 LINE"
);
}
);
width = 674;
},
{
anchors = (
{
name = bottom;
position = "{301, 0}";
},
{
name = top;
position = "{389, 732}";
}
);
layerId = "38588886-3B3E-4A1D-B58B-01CA69B4ACA2";
paths = (
{
closed = 1;
nodes = (
"95 732 LINE",
"100 671 LINE",
"11 0 LINE",
"119 0 LINE",
"186 497 LINE SMOOTH",
"189 518 OFFCURVE",
"188 542 OFFCURVE",
"189 564 CURVE",
"199 542 OFFCURVE",
"209 519 OFFCURVE",
"220 497 CURVE SMOOTH",
"465 -5 LINE",
"572 -5 LINE",
"671 732 LINE",
"560 732 LINE",
"503 304 LINE SMOOTH",
"500 279 OFFCURVE",
"501 252 OFFCURVE",
"499 227 CURVE",
"487 254 OFFCURVE",
"477 279 OFFCURVE",
"470 293 CURVE SMOOTH",
"254 732 LINE"
);
}
);
width = 682;
}
);
leftKerningGroup = B;
note = N;
rightKerningGroup = H;
unicode = 004E;
},
{
glyphname = Eng;
layers = (
{
layerId = "C7717117-F750-4912-BA39-B64C3F969EBE";
paths = (
{
closed = 1;
nodes = (
"119 0 LINE",
"192 545 LINE SMOOTH",
"195 567 OFFCURVE",
"198 590 OFFCURVE",
"201 622 CURVE",
"211 591 OFFCURVE",
"221 571 OFFCURVE",
"231 550 CURVE SMOOTH",
"477 46 LINE",
"466 -38 OFFCURVE",
"441 -155 OFFCURVE",
"334 -170 CURVE",
"342 -222 LINE",
"506 -207 OFFCURVE",
"546 -91 OFFCURVE",
"565 48 CURVE SMOOTH",
"657 724 LINE",
"584 724 LINE",
"519 249 LINE SMOOTH",
"516 227 OFFCURVE",
"513 205 OFFCURVE",
"510 173 CURVE",
"499 206 OFFCURVE",
"488 229 OFFCURVE",
"477 252 CURVE SMOOTH",
"248 724 LINE",
"134 724 LINE",
"134 659 LINE",
"45 0 LINE"
);
}
);
width = 674;
},
{
layerId = "38588886-3B3E-4A1D-B58B-01CA69B4ACA2";
paths = (
{
closed = 1;
nodes = (
"119 0 LINE",
"186 497 LINE SMOOTH",
"189 518 OFFCURVE",
"188 542 OFFCURVE",
"189 564 CURVE",
"199 542 OFFCURVE",
"209 519 OFFCURVE",
"220 497 CURVE SMOOTH",
"446 34 LINE",
"435 -43 OFFCURVE",
"412 -120 OFFCURVE",
"318 -131 CURVE",
"319 -209 LINE",
"517 -200 OFFCURVE",
"564 -70 OFFCURVE",
"586 98 CURVE SMOOTH",
"671 732 LINE",
"560 732 LINE",
"503 304 LINE SMOOTH",
"500 279 OFFCURVE",
"501 252 OFFCURVE",
"499 227 CURVE",
"487 254 OFFCURVE",
"477 279 OFFCURVE",
"470 293 CURVE SMOOTH",
"254 732 LINE",
"95 732 LINE",
"100 671 LINE",
"11 0 LINE"
);
}
);
width = 682;
}
);
unicode = 014A;
},
{
glyphname = Nhookleft;
layers = (
{
layerId = "C7717117-F750-4912-BA39-B64C3F969EBE";
paths = (
{
closed = 1;
nodes = (
"-84 -222 LINE",
"80 -207 OFFCURVE",
"106 -91 OFFCURVE",
"125 48 CURVE SMOOTH",
"192 545 LINE SMOOTH",
"195 567 OFFCURVE",
"198 590 OFFCURVE",
"201 622 CURVE",
"211 591 OFFCURVE",
"221 571 OFFCURVE",
"231 550 CURVE SMOOTH",
"502 -5 LINE",
"559 -5 LINE",
"657 724 LINE",
"584 724 LINE",
"519 249 LINE SMOOTH",
"516 227 OFFCURVE",
"513 205 OFFCURVE",
"510 173 CURVE",
"499 206 OFFCURVE",
"488 229 OFFCURVE",
"477 252 CURVE SMOOTH",
"248 724 LINE",
"134 724 LINE",
"134 659 LINE",
"51 46 LINE SMOOTH",
"40 -38 OFFCURVE",
"15 -155 OFFCURVE",
"-92 -170 CURVE"
);
}
);
width = 674;
},
{
layerId = "38588886-3B3E-4A1D-B58B-01CA69B4ACA2";
paths = (
{
closed = 1;
nodes = (
"-112 -209 LINE",
"86 -200 OFFCURVE",
"111 -70 OFFCURVE",
"133 98 CURVE SMOOTH",
"186 497 LINE SMOOTH",
"189 518 OFFCURVE",
"188 542 OFFCURVE",
"189 564 CURVE",
"199 542 OFFCURVE",
"209 519 OFFCURVE",
"220 497 CURVE SMOOTH",
"465 -5 LINE",
"572 -5 LINE",
"671 732 LINE",
"560 732 LINE",
"503 304 LINE SMOOTH",
"500 279 OFFCURVE",
"501 252 OFFCURVE",
"499 227 CURVE",
"487 254 OFFCURVE",
"477 279 OFFCURVE",
"470 293 CURVE SMOOTH",
"254 732 LINE",
"95 732 LINE",
"100 671 LINE",
"17 47 LINE SMOOTH",
"6 -34 OFFCURVE",
"-14 -119 OFFCURVE",
"-113 -131 CURVE"
);
}
);
width = 682;
}
);
unicode = 019D;
},
{
glyphname = O;
layers = (
{
anchors = (
{
name = bottom;
position = "{323, 0}";
},
{
name = center;
position = "{360, 363}";
},
{
name = ogonek;
position = "{369, 0}";
},
{
name = top;
position = "{411, 724}";
},
{
name = topright;
position = "{443, 724}";
}
);
layerId = "C7717117-F750-4912-BA39-B64C3F969EBE";
paths = (
{
closed = 1;
nodes = (
"546 -10 OFFCURVE",
"668 216 OFFCURVE",
"668 438 CURVE SMOOTH",
"668 603 OFFCURVE",
"590 734 OFFCURVE",
"407 734 CURVE SMOOTH",
"165 734 OFFCURVE",
"45 502 OFFCURVE",
"45 289 CURVE SMOOTH",
"45 127 OFFCURVE",
"123 -10 OFFCURVE",
"304 -10 CURVE SMOOTH"
);
},
{
closed = 1;
nodes = (
"182 59 OFFCURVE",
"140 174 OFFCURVE",
"140 291 CURVE SMOOTH",
"140 449 OFFCURVE",
"212 665 OFFCURVE",
"398 665 CURVE SMOOTH",
"532 665 OFFCURVE",
"574 551 OFFCURVE",
"574 433 CURVE SMOOTH",
"574 275 OFFCURVE",
"504 59 OFFCURVE",
"317 59 CURVE SMOOTH"
);
}
);
width = 708;
},
{
anchors = (
{
name = bottom;
position = "{317, 0}";
},
{
name = center;
position = "{354, 363}";
},
{
name = ogonek;
position = "{350, 0}";
},
{
name = top;
position = "{405, 732}";
},
{
name = topright;
position = "{437, 732}";
}
);
layerId = "38588886-3B3E-4A1D-B58B-01CA69B4ACA2";
paths = (
{
closed = 1;
nodes = (
"549 -11 OFFCURVE",
"690 209 OFFCURVE",
"690 439 CURVE SMOOTH",
"690 622 OFFCURVE",
"590 743 OFFCURVE",
"401 743 CURVE SMOOTH",
"154 743 OFFCURVE",
"17 523 OFFCURVE",
"17 295 CURVE SMOOTH",
"17 117 OFFCURVE",
"113 -11 OFFCURVE",
"300 -11 CURVE SMOOTH"
);
},
{
closed = 1;
nodes = (
"192 84 OFFCURVE",
"157 193 OFFCURVE",
"157 298 CURVE SMOOTH",
"157 439 OFFCURVE",
"216 648 OFFCURVE",
"390 648 CURVE SMOOTH",
"514 648 OFFCURVE",
"549 540 OFFCURVE",
"549 434 CURVE SMOOTH",
"549 293 OFFCURVE",
"491 84 OFFCURVE",
"316 84 CURVE SMOOTH"
);
}
);
width = 707;
}
);
leftKerningGroup = C;
note = O;
rightKerningGroup = D;
unicode = 004F;
},
{
glyphname = OE;
layers = (
{
layerId = "C7717117-F750-4912-BA39-B64C3F969EBE";
paths = (
{
closed = 1;
nodes = (
"520 0 LINE",
"922 0 LINE",
"931 69 LINE",
"618 69 LINE",
"654 337 LINE",
"896 337 LINE",
"906 405 LINE",
"664 405 LINE",
"696 655 LINE",
"1009 655 LINE",
"1019 724 LINE",
"616 724 LINE",
"606 648 LINE",
"564 701 OFFCURVE",
"498 734 OFFCURVE",
"407 734 CURVE SMOOTH",
"165 734 OFFCURVE",
"45 502 OFFCURVE",
"45 289 CURVE SMOOTH",
"45 127 OFFCURVE",
"123 -10 OFFCURVE",
"304 -10 CURVE SMOOTH",
"397 -10 OFFCURVE",
"472 23 OFFCURVE",
"530 77 CURVE"
);
},
{
closed = 1;
nodes = (
"182 59 OFFCURVE",
"140 174 OFFCURVE",
"140 291 CURVE SMOOTH",
"140 449 OFFCURVE",
"212 665 OFFCURVE",
"398 665 CURVE SMOOTH",
"532 665 OFFCURVE",
"574 551 OFFCURVE",
"574 433 CURVE SMOOTH",
"574 275 OFFCURVE",
"504 59 OFFCURVE",
"317 59 CURVE SMOOTH"
);
}
);
width = 978;
},
{
layerId = "38588886-3B3E-4A1D-B58B-01CA69B4ACA2";
paths = (
{
closed = 1;
nodes = (
"497 0 LINE",
"920 0 LINE",
"933 99 LINE",
"641 99 LINE",
"671 327 LINE",
"895 327 LINE",
"908 426 LINE",
"684 426 LINE",
"712 633 LINE",
"1005 633 LINE",
"1018 732 LINE",
"595 732 LINE",
"586 667 LINE",
"537 720 OFFCURVE",
"479 743 OFFCURVE",
"401 743 CURVE SMOOTH",
"154 743 OFFCURVE",
"17 523 OFFCURVE",
"17 295 CURVE SMOOTH",
"17 117 OFFCURVE",
"113 -11 OFFCURVE",
"300 -11 CURVE SMOOTH",
"379 -11 OFFCURVE",
"442 7 OFFCURVE",
"506 68 CURVE"
);
},
{
closed = 1;
nodes = (
"192 84 OFFCURVE",
"157 193 OFFCURVE",
"157 298 CURVE SMOOTH",
"157 439 OFFCURVE",
"216 648 OFFCURVE",
"390 648 CURVE SMOOTH",
"514 648 OFFCURVE",
"549 540 OFFCURVE",
"549 434 CURVE SMOOTH",
"549 293 OFFCURVE",
"491 84 OFFCURVE",
"316 84 CURVE SMOOTH"
);
}
);
width = 993;
}
);
leftKerningGroup = C;
note = OE;
rightKerningGroup = AE;
unicode = 0152;
},
{
glyphname = P;
layers = (
{
layerId = "C7717117-F750-4912-BA39-B64C3F969EBE";
paths = (
{
closed = 1;
nodes = (
"135 659 LINE",
"46 0 LINE",
"137 0 LINE",
"175 286 LINE",
"279 286 LINE SMOOTH",
"436 286 OFFCURVE",
"544 387 OFFCURVE",
"544 543 CURVE SMOOTH",
"544 677 OFFCURVE",
"449 724 OFFCURVE",
"332 724 CURVE SMOOTH",
"135 724 LINE"
);
},
{
closed = 1;
nodes = (
"324 655 LINE SMOOTH",
"404 655 OFFCURVE",
"450 612 OFFCURVE",
"450 532 CURVE SMOOTH",
"450 435 OFFCURVE",
"389 353 OFFCURVE",
"285 353 CURVE SMOOTH",
"185 353 LINE",
"225 655 LINE"
);
}
);
width = 539;
},
{
layerId = "38588886-3B3E-4A1D-B58B-01CA69B4ACA2";
paths = (
{
closed = 1;
nodes = (
"101 671 LINE",
"11 0 LINE",
"142 0 LINE",
"181 294 LINE",
"258 294 LINE SMOOTH",
"417 294 OFFCURVE",
"541 374 OFFCURVE",
"541 541 CURVE SMOOTH",
"541 678 OFFCURVE",
"435 732 OFFCURVE",
"316 732 CURVE SMOOTH",
"95 732 LINE"
);
},
{
closed = 1;
nodes = (
"308 633 LINE SMOOTH",
"369 633 OFFCURVE",
"402 599 OFFCURVE",
"402 538 CURVE SMOOTH",
"402 462 OFFCURVE",
"357 391 OFFCURVE",
"275 391 CURVE SMOOTH",
"195 391 LINE",
"227 633 LINE"
);
}
);
width = 539;
}
);
leftKerningGroup = B;
note = P;
rightKerningGroup = P;
unicode = 0050;
},
{
glyphname = Thorn;
layers = (
{
layerId = "C7717117-F750-4912-BA39-B64C3F969EBE";
paths = (
{
closed = 1;
nodes = (
"135 724 LINE",
"135 659 LINE",
"46 0 LINE",
"137 0 LINE",
"160 172 LINE",
"264 172 LINE SMOOTH",
"421 172 OFFCURVE",
"529 273 OFFCURVE",
"529 429 CURVE SMOOTH",
"529 563 OFFCURVE",
"434 610 OFFCURVE",
"317 610 CURVE SMOOTH",
"221 610 LINE",
"236 724 LINE"
);
},
{
closed = 1;
nodes = (
"210 541 LINE",
"309 541 LINE SMOOTH",
"389 541 OFFCURVE",
"435 498 OFFCURVE",
"435 418 CURVE SMOOTH",
"435 321 OFFCURVE",
"374 239 OFFCURVE",
"270 239 CURVE SMOOTH",
"170 239 LINE"
);
}
);
width = 539;
},
{
layerId = "38588886-3B3E-4A1D-B58B-01CA69B4ACA2";
paths = (
{
closed = 1;
nodes = (
"113 732 LINE",
"118 671 LINE",
"29 0 LINE",
"159 0 LINE",
"183 179 LINE",
"261 179 LINE SMOOTH",
"400 179 OFFCURVE",
"544 256 OFFCURVE",
"544 437 CURVE SMOOTH",
"544 572 OFFCURVE",
"443 617 OFFCURVE",
"317 617 CURVE SMOOTH",
"243 617 LINE",
"258 732 LINE"
);
},
{
closed = 1;
nodes = (
"229 518 LINE",
"310 518 LINE SMOOTH",
"373 518 OFFCURVE",
"403 481 OFFCURVE",
"403 422 CURVE SMOOTH",
"403 339 OFFCURVE",
"353 276 OFFCURVE",
"277 276 CURVE SMOOTH",
"197 276 LINE"
);
}
);
width = 575;
}
);
leftKerningGroup = B;
note = Thorn;
unicode = 00DE;
},
{
glyphname = Q;
layers = (
{
background = {
hints = (
{
horizontal = 1;
place = "{-10, 69}";
type = Stem;
},
{
horizontal = 1;
place = "{665, 69}";
type = Stem;
}
);
paths = (
{
closed = 1;
nodes = (
"546 -10 OFFCURVE",
"668 216 OFFCURVE",
"668 438 CURVE SMOOTH",
"668 603 OFFCURVE",
"590 734 OFFCURVE",
"407 734 CURVE SMOOTH",
"165 734 OFFCURVE",
"45 502 OFFCURVE",
"45 289 CURVE SMOOTH",
"45 127 OFFCURVE",
"123 -10 OFFCURVE",
"304 -10 CURVE SMOOTH"
);
},
{
closed = 1;
nodes = (
"182 59 OFFCURVE",
"140 174 OFFCURVE",
"140 291 CURVE SMOOTH",
"140 449 OFFCURVE",
"212 665 OFFCURVE",
"398 665 CURVE SMOOTH",
"532 665 OFFCURVE",
"574 551 OFFCURVE",
"574 433 CURVE SMOOTH",
"574 275 OFFCURVE",
"504 59 OFFCURVE",
"317 59 CURVE SMOOTH"
);
}
);
};
layerId = "C7717117-F750-4912-BA39-B64C3F969EBE";
paths = (
{
closed = 1;
nodes = (
"1069 -128 LINE",
"1013 -144 OFFCURVE",
"953 -158 OFFCURVE",
"899 -158 CURVE SMOOTH",
"776 -158 OFFCURVE",
"602 -71 OFFCURVE",
"493 -10 CURVE SMOOTH",
"477 0 OFFCURVE",
"455 9 OFFCURVE",
"437 16 CURVE",
"591 82 OFFCURVE",
"668 261 OFFCURVE",
"668 438 CURVE SMOOTH",
"668 603 OFFCURVE",
"590 734 OFFCURVE",
"407 734 CURVE SMOOTH",
"165 734 OFFCURVE",
"45 502 OFFCURVE",
"45 289 CURVE SMOOTH",
"45 127 OFFCURVE",
"116 0 OFFCURVE",
"304 -15 CURVE SMOOTH",
"328 -17 OFFCURVE",
"361 -24 OFFCURVE",
"393 -38 CURVE SMOOTH",
"527 -97 OFFCURVE",
"696 -222 OFFCURVE",
"857 -222 CURVE SMOOTH",
"942 -222 OFFCURVE",
"1002 -203 OFFCURVE",
"1084 -175 CURVE"
);
},
{
closed = 1;
nodes = (
"182 59 OFFCURVE",
"140 174 OFFCURVE",
"140 291 CURVE SMOOTH",
"140 449 OFFCURVE",
"212 665 OFFCURVE",
"398 665 CURVE SMOOTH",
"532 665 OFFCURVE",
"574 551 OFFCURVE",
"574 433 CURVE SMOOTH",
"574 275 OFFCURVE",
"504 59 OFFCURVE",
"317 59 CURVE SMOOTH"
);
}
);
width = 708;
},
{
background = {
paths = (
{
closed = 1;
nodes = (
"1046 -87 LINE",
"998 -101 OFFCURVE",
"915 -122 OFFCURVE",
"866 -122 CURVE SMOOTH",
"738 -122 OFFCURVE",
"578 -34 OFFCURVE",
"468 27 CURVE",
"616 105 OFFCURVE",
"690 271 OFFCURVE",
"690 433 CURVE SMOOTH",
"690 612 OFFCURVE",
"594 744 OFFCURVE",
"405 744 CURVE SMOOTH",
"156 744 OFFCURVE",
"17 518 OFFCURVE",
"17 290 CURVE SMOOTH",
"17 136 OFFCURVE",
"86 29 OFFCURVE",
"240 -8 CURVE SMOOTH",
"280 -18 OFFCURVE",
"319 -24 OFFCURVE",
"357 -42 CURVE SMOOTH",
"492 -105 OFFCURVE",
"662 -216 OFFCURVE",
"814 -216 CURVE SMOOTH",
"910 -216 OFFCURVE",
"983 -191 OFFCURVE",
"1070 -160 CURVE"
);
},
{
closed = 1;
nodes = (
"195 85 OFFCURVE",
"158 193 OFFCURVE",
"158 297 CURVE SMOOTH",
"158 434 OFFCURVE",
"223 648 OFFCURVE",
"392 648 CURVE SMOOTH",
"515 648 OFFCURVE",
"551 536 OFFCURVE",
"551 432 CURVE SMOOTH",
"551 292 OFFCURVE",
"488 85 OFFCURVE",
"317 85 CURVE SMOOTH"
);
}
);
};
layerId = "38588886-3B3E-4A1D-B58B-01CA69B4ACA2";
paths = (
{
closed = 1;
nodes = (
"1046 -87 LINE",
"998 -101 OFFCURVE",
"915 -122 OFFCURVE",
"866 -122 CURVE SMOOTH",
"752 -122 OFFCURVE",
"608 -47 OFFCURVE",
"500 9 CURVE SMOOTH",
"486 16 OFFCURVE",
"473 22 OFFCURVE",
"459 27 CURVE",
"618 105 OFFCURVE",
"690 271 OFFCURVE",
"690 433 CURVE SMOOTH",
"690 612 OFFCURVE",
"594 744 OFFCURVE",
"405 744 CURVE SMOOTH",
"156 744 OFFCURVE",
"17 518 OFFCURVE",
"17 290 CURVE SMOOTH",
"17 136 OFFCURVE",
"86 29 OFFCURVE",
"240 -8 CURVE SMOOTH",
"280 -18 OFFCURVE",
"319 -24 OFFCURVE",
"357 -42 CURVE SMOOTH",
"492 -105 OFFCURVE",
"662 -216 OFFCURVE",
"814 -216 CURVE SMOOTH",
"910 -216 OFFCURVE",
"983 -191 OFFCURVE",
"1070 -160 CURVE"
);
},
{
closed = 1;
nodes = (
"195 85 OFFCURVE",
"158 193 OFFCURVE",
"158 297 CURVE SMOOTH",
"158 434 OFFCURVE",
"223 648 OFFCURVE",
"392 648 CURVE SMOOTH",
"515 648 OFFCURVE",
"551 536 OFFCURVE",
"551 432 CURVE SMOOTH",
"551 292 OFFCURVE",
"488 85 OFFCURVE",
"317 85 CURVE SMOOTH"
);
}
);
width = 707;
}
);
leftKerningGroup = C;
note = Q;
rightKerningGroup = D;
unicode = 0051;
},
{
glyphname = R;
layers = (
{
anchors = (
{
name = bottom;
position = "{259, 0}";
},
{
name = top;
position = "{322, 724}";
}
);
background = {
paths = (
{
closed = 1;
nodes = (
"133 659 LINE",
"44 0 LINE",
"135 0 LINE",
"178 324 LINE",
"296 324 LINE",
"431 0 LINE",
"534 0 LINE",
"386 343 LINE",
"481 371 OFFCURVE",
"545 459 OFFCURVE",
"545 556 CURVE SMOOTH",
"545 678 OFFCURVE",
"454 724 OFFCURVE",
"349 724 CURVE SMOOTH",
"133 724 LINE"
);
},
{
closed = 1;
nodes = (
"326 655 LINE SMOOTH",
"395 655 OFFCURVE",
"451 621 OFFCURVE",
"451 549 CURVE SMOOTH",
"451 436 OFFCURVE",
"369 392 OFFCURVE",
"261 392 CURVE SMOOTH",
"188 392 LINE",
"223 655 LINE"
);
},
{
closed = 1;
nodes = (
"366 222 OFFCURVE",
"387 243 OFFCURVE",
"387 268 CURVE SMOOTH",
"387 293 OFFCURVE",
"366 314 OFFCURVE",
"341 314 CURVE SMOOTH",
"316 314 OFFCURVE",
"295 293 OFFCURVE",
"295 268 CURVE SMOOTH",
"295 243 OFFCURVE",
"316 222 OFFCURVE",
"341 222 CURVE SMOOTH"
);
},
{
closed = 1;
nodes = (
"480 6 OFFCURVE",
"501 27 OFFCURVE",
"501 52 CURVE SMOOTH",
"501 77 OFFCURVE",
"480 98 OFFCURVE",
"455 98 CURVE SMOOTH",
"430 98 OFFCURVE",
"409 77 OFFCURVE",
"409 52 CURVE SMOOTH",
"409 27 OFFCURVE",
"430 6 OFFCURVE",
"455 6 CURVE SMOOTH"
);
},
{
closed = 1;
nodes = (
"223 655 LINE",
"326 655 LINE SMOOTH",
"395 655 OFFCURVE",
"451 621 OFFCURVE",
"451 549 CURVE SMOOTH",
"451 441 OFFCURVE",
"376 392 OFFCURVE",
"257 392 CURVE SMOOTH",
"235 392 LINE",
"430 0 LINE",
"534 0 LINE",
"361 343 LINE",
"489 374 OFFCURVE",
"545 459 OFFCURVE",
"545 556 CURVE SMOOTH",
"545 678 OFFCURVE",
"454 724 OFFCURVE",
"349 724 CURVE SMOOTH",
"133 724 LINE",
"133 659 LINE",
"44 0 LINE",
"135 0 LINE"
);
}
);
};
layerId = "C7717117-F750-4912-BA39-B64C3F969EBE";
paths = (
{
closed = 1;
nodes = (
"223 655 LINE",
"331 655 LINE SMOOTH",
"407 655 OFFCURVE",
"456 618 OFFCURVE",
"456 539 CURVE SMOOTH",
"456 431 OFFCURVE",
"376 372 OFFCURVE",
"257 372 CURVE SMOOTH",
"235 372 LINE",
"430 0 LINE",
"534 0 LINE",
"365 321 LINE",
"484 351 OFFCURVE",
"550 439 OFFCURVE",
"550 548 CURVE SMOOTH",
"550 671 OFFCURVE",
"455 724 OFFCURVE",
"349 724 CURVE SMOOTH",
"133 724 LINE",
"133 659 LINE",
"44 0 LINE",
"135 0 LINE"
);
}
);
width = 568;
},
{
anchors = (
{
name = bottom;
position = "{249, 0}";
},
{
name = top;
position = "{311, 732}";
}
);
background = {
paths = (
{
closed = 1;
nodes = (
"101 671 LINE",
"11 0 LINE",
"142 0 LINE",
"186 326 LINE",
"238 326 LINE",
"387 0 LINE",
"535 0 LINE",
"369 347 LINE",
"468 372 OFFCURVE",
"543 450 OFFCURVE",
"543 552 CURVE SMOOTH",
"543 678 OFFCURVE",
"443 732 OFFCURVE",
"334 732 CURVE SMOOTH",
"95 732 LINE"
);
},
{
closed = 1;
nodes = (
"308 632 LINE SMOOTH",
"360 632 OFFCURVE",
"404 605 OFFCURVE",
"404 549 CURVE SMOOTH",
"404 458 OFFCURVE",
"341 424 OFFCURVE",
"259 424 CURVE SMOOTH",
"199 424 LINE",
"226 632 LINE"
);
},
{
closed = 1;
nodes = (
"382 203 OFFCURVE",
"411 232 OFFCURVE",
"411 267 CURVE SMOOTH",
"411 302 OFFCURVE",
"382 331 OFFCURVE",
"347 331 CURVE SMOOTH",
"312 331 OFFCURVE",
"283 302 OFFCURVE",
"283 267 CURVE SMOOTH",
"283 232 OFFCURVE",
"312 203 OFFCURVE",
"347 203 CURVE SMOOTH"
);
},
{
closed = 1;
nodes = (
"467 14 OFFCURVE",
"496 43 OFFCURVE",
"496 78 CURVE SMOOTH",
"496 113 OFFCURVE",
"467 142 OFFCURVE",
"432 142 CURVE SMOOTH",
"397 142 OFFCURVE",
"368 113 OFFCURVE",
"368 78 CURVE SMOOTH",
"368 43 OFFCURVE",
"397 14 OFFCURVE",
"432 14 CURVE SMOOTH"
);
}
);
};
layerId = "38588886-3B3E-4A1D-B58B-01CA69B4ACA2";
paths = (
{
closed = 1;
nodes = (
"226 632 LINE",
"309 632 LINE SMOOTH",
"370 632 OFFCURVE",
"410 602 OFFCURVE",
"410 541 CURVE SMOOTH",
"410 435 OFFCURVE",
"341 383 OFFCURVE",
"254 383 CURVE SMOOTH",
"221 383 LINE",
"396 0 LINE",
"535 0 LINE",
"394 308 LINE",
"466 344 OFFCURVE",
"549 416 OFFCURVE",
"549 543 CURVE SMOOTH",
"549 676 OFFCURVE",
"455 732 OFFCURVE",
"335 732 CURVE SMOOTH",
"95 732 LINE",
"101 671 LINE",
"11 0 LINE",
"142 0 LINE"
);
}
);
width = 565;
}
);
leftKerningGroup = B;
note = R;
rightKerningGroup = R;
unicode = 0052;
},
{
glyphname = S;
layers = (
{
anchors = (
{
name = bottom;
position = "{216, 0}";
},
{
name = top;
position = "{313, 724}";
}
);
layerId = "C7717117-F750-4912-BA39-B64C3F969EBE";
paths = (
{
closed = 1;
nodes = (
"214 734 OFFCURVE",
"98 667 OFFCURVE",
"98 535 CURVE SMOOTH",
"98 340 OFFCURVE",
"364 361 OFFCURVE",
"364 208 CURVE SMOOTH",
"364 129 OFFCURVE",
"290 59 OFFCURVE",
"211 59 CURVE SMOOTH",
"143 59 OFFCURVE",
"111 78 OFFCURVE",
"54 119 CURVE",
"12 44 LINE",
"73 10 OFFCURVE",
"141 -10 OFFCURVE",
"207 -10 CURVE SMOOTH",
"343 -10 OFFCURVE",
"458 80 OFFCURVE",
"458 221 CURVE SMOOTH",
"458 425 OFFCURVE",
"190 413 OFFCURVE",
"190 550 CURVE SMOOTH",
"190 624 OFFCURVE",
"260 665 OFFCURVE",
"331 665 CURVE SMOOTH",
"380 665 OFFCURVE",
"415 652 OFFCURVE",
"456 619 CURVE",
"498 687 LINE",
"450 719 OFFCURVE",
"395 734 OFFCURVE",
"338 734 CURVE SMOOTH"
);
}
);
width = 507;
},
{
anchors = (
{
name = bottom;
position = "{214, 0}";
},
{
name = top;
position = "{311, 732}";
}
);
layerId = "38588886-3B3E-4A1D-B58B-01CA69B4ACA2";
paths = (
{
closed = 1;
nodes = (
"185 744 OFFCURVE",
"54 676 OFFCURVE",
"54 514 CURVE SMOOTH",
"54 326 OFFCURVE",
"317 336 OFFCURVE",
"317 204 CURVE SMOOTH",
"317 131 OFFCURVE",
"253 84 OFFCURVE",
"184 84 CURVE SMOOTH",
"124 84 OFFCURVE",
"67 113 OFFCURVE",
"27 157 CURVE",
"-36 49 LINE",
"27 6 OFFCURVE",
"108 -12 OFFCURVE",
"183 -12 CURVE SMOOTH",
"332 -12 OFFCURVE",
"460 85 OFFCURVE",
"460 240 CURVE SMOOTH",
"460 434 OFFCURVE",
"198 423 OFFCURVE",
"198 550 CURVE SMOOTH",
"198 612 OFFCURVE",
"250 648 OFFCURVE",
"307 648 CURVE SMOOTH",
"352 648 OFFCURVE",
"419 625 OFFCURVE",
"450 592 CURVE",
"509 684 LINE",
"470 719 OFFCURVE",
"385 744 OFFCURVE",
"333 744 CURVE SMOOTH"
);
}
);
width = 495;
}
);
leftKerningGroup = S;
note = S;
rightKerningGroup = S;
unicode = 0053;
},
{
glyphname = Germandbls;
layers = (
{
layerId = "C7717117-F750-4912-BA39-B64C3F969EBE";
paths = (
{
closed = 1;
nodes = (
"371 339 LINE",
"635 672 LINE",
"584 724 LINE",
"281 328 LINE"
);
},
{
closed = 1;
nodes = (
"281 328 LINE",
"302 329 OFFCURVE",
"321 330 OFFCURVE",
"339 330 CURVE SMOOTH",
"471 330 OFFCURVE",
"520 289 OFFCURVE",
"520 210 CURVE SMOOTH",
"520 112 OFFCURVE",
"453 58 OFFCURVE",
"374 58 CURVE SMOOTH",
"323 58 OFFCURVE",
"270 79 OFFCURVE",
"228 124 CURVE",
"181 42 LINE",
"238 5 OFFCURVE",
"303 -12 OFFCURVE",
"365 -12 CURVE SMOOTH",
"500 -12 OFFCURVE",
"622 72 OFFCURVE",
"622 223 CURVE SMOOTH",
"622 362 OFFCURVE",
"482 401 OFFCURVE",
"385 398 CURVE"
);
},
{
closed = 1;
nodes = (
"143 659 LINE",
"55 0 LINE",
"144 0 LINE",
"232 655 LINE",
"575 655 LINE",
"584 724 LINE",
"143 724 LINE"
);
}
);
width = 661;
},
{
layerId = "38588886-3B3E-4A1D-B58B-01CA69B4ACA2";
paths = (
{
closed = 1;
nodes = (
"410 339 LINE",
"652 652 LINE",
"587 732 LINE",
"285 328 LINE"
);
},
{
closed = 1;
nodes = (
"285 328 LINE",
"301 330 OFFCURVE",
"317 330 OFFCURVE",
"331 330 CURVE SMOOTH",
"463 330 OFFCURVE",
"500 270 OFFCURVE",
"500 211 CURVE SMOOTH",
"500 145 OFFCURVE",
"458 85 OFFCURVE",
"386 85 CURVE SMOOTH",
"340 85 OFFCURVE",
"290 109 OFFCURVE",
"255 157 CURVE",
"192 46 LINE",
"248 4 OFFCURVE",
"312 -15 OFFCURVE",
"375 -15 CURVE SMOOTH",
"526 -15 OFFCURVE",
"650 98 OFFCURVE",
"650 243 CURVE SMOOTH",
"650 368 OFFCURVE",
"522 424 OFFCURVE",
"413 426 CURVE"
);
},
{
closed = 1;
nodes = (
"117 671 LINE",
"27 0 LINE",
"158 0 LINE",
"243 633 LINE",
"574 633 LINE",
"587 732 LINE",
"111 732 LINE"
);
}
);
width = 678;
}
);
unicode = 1E9E;
},
{
glyphname = Schwa;
layers = (
{
layerId = "C7717117-F750-4912-BA39-B64C3F969EBE";
paths = (
{
closed = 1;
nodes = (
"175 566 LINE",
"250 629 OFFCURVE",
"332 665 OFFCURVE",
"403 665 CURVE SMOOTH",
"501 665 OFFCURVE",
"576 595 OFFCURVE",
"576 433 CURVE SMOOTH",
"576 275 OFFCURVE",
"506 59 OFFCURVE",
"319 59 CURVE SMOOTH",
"206 59 OFFCURVE",
"144 142 OFFCURVE",
"144 263 CURVE SMOOTH",
"144 294 OFFCURVE",
"149 327 OFFCURVE",
"157 363 CURVE",
"68 363 LINE",
"60 326 OFFCURVE",
"56 291 OFFCURVE",
"56 258 CURVE SMOOTH",
"56 101 OFFCURVE",
"145 -10 OFFCURVE",
"306 -10 CURVE SMOOTH",
"548 -10 OFFCURVE",
"670 216 OFFCURVE",
"670 438 CURVE SMOOTH",
"670 641 OFFCURVE",
"554 734 OFFCURVE",
"411 734 CURVE SMOOTH",
"320 734 OFFCURVE",
"219 697 OFFCURVE",
"129 628 CURVE"
);
},
{
closed = 1;
nodes = (
"90 292 LINE",
"604 292 LINE",
"614 363 LINE",
"68 363 LINE"
);
}
);
width = 710;
},
{
layerId = "38588886-3B3E-4A1D-B58B-01CA69B4ACA2";
paths = (
{
closed = 1;
nodes = (
"179 545 LINE",
"235 607 OFFCURVE",
"293 648 OFFCURVE",
"382 648 CURVE SMOOTH",
"506 648 OFFCURVE",
"541 540 OFFCURVE",
"541 434 CURVE SMOOTH",
"541 293 OFFCURVE",
"483 84 OFFCURVE",
"308 84 CURVE SMOOTH",
"205 84 OFFCURVE",
"154 165 OFFCURVE",
"154 280 CURVE SMOOTH",
"154 307 OFFCURVE",
"157 336 OFFCURVE",
"163 367 CURVE",
"28 367 LINE",
"23 336 OFFCURVE",
"20 306 OFFCURVE",
"20 277 CURVE SMOOTH",
"20 108 OFFCURVE",
"113 -11 OFFCURVE",
"292 -11 CURVE SMOOTH",
"541 -11 OFFCURVE",
"682 209 OFFCURVE",
"682 439 CURVE SMOOTH",
"682 622 OFFCURVE",
"582 743 OFFCURVE",
"393 743 CURVE SMOOTH",
"269 743 OFFCURVE",
"181 696 OFFCURVE",
"96 625 CURVE"
);
},
{
closed = 1;
nodes = (
"47 279 LINE",
"621 279 LINE",
"633 367 LINE",
"28 367 LINE"
);
}
);
width = 699;
}
);
unicode = 018F;
},
{
glyphname = T;
layers = (
{
anchors = (
{
name = bottom;
position = "{204, 0}";
},
{
name = center;
position = "{256, 366}";
},
{
name = top;
position = "{306, 724}";
}
);
layerId = "C7717117-F750-4912-BA39-B64C3F969EBE";
paths = (
{
closed = 1;
nodes = (
"40 655 LINE",
"249 655 LINE",
"161 0 LINE",
"252 0 LINE",
"340 655 LINE",
"549 655 LINE",
"558 724 LINE",
"50 724 LINE"
);
}
);
width = 514;
},
{
anchors = (
{
name = bottom;
position = "{205, 0}";
},
{
name = center;
position = "{257, 366}";
},
{
name = top;
position = "{307, 732}";
}
);
layerId = "38588886-3B3E-4A1D-B58B-01CA69B4ACA2";
paths = (
{
closed = 1;
nodes = (
"30 633 LINE",
"222 633 LINE",
"138 0 LINE",
"274 0 LINE",
"359 633 LINE",
"554 633 LINE",
"568 732 LINE",
"43 732 LINE"
);
}
);
width = 523;
}
);
leftKerningGroup = T;
note = T;
rightKerningGroup = T;
unicode = 0054;
},
{
glyphname = U;
layers = (
{
anchors = (
{
name = bottom;
position = "{270, 0}";
},
{
name = ogonek;
position = "{336, 0}";
},
{
name = top;
position = "{379, 724}";
},
{
name = topright;
position = "{483, 739}";
}
);
layerId = "C7717117-F750-4912-BA39-B64C3F969EBE";
paths = (
{
closed = 1;
nodes = (
"106 724 LINE",
"106 660 LINE",
"50 244 LINE SMOOTH",
"48 226 OFFCURVE",
"46 208 OFFCURVE",
"46 192 CURVE SMOOTH",
"46 81 OFFCURVE",
"102 -10 OFFCURVE",
"268 -10 CURVE SMOOTH",
"458 -10 OFFCURVE",
"539 109 OFFCURVE",
"559 257 CURVE SMOOTH",
"623 724 LINE",
"549 724 LINE",
"486 258 LINE SMOOTH",
"470 138 OFFCURVE",
"404 59 OFFCURVE",
"280 59 CURVE SMOOTH",
"176 59 OFFCURVE",
"138 120 OFFCURVE",
"138 200 CURVE SMOOTH",
"138 214 OFFCURVE",
"139 227 OFFCURVE",
"141 243 CURVE SMOOTH",
"206 724 LINE"
);
}
);
width = 638;
},
{
anchors = (
{
name = bottom;
position = "{279, 0}";
},
{
name = ogonek;
position = "{331, 0}";
},
{
name = top;
position = "{387, 732}";
},
{
name = topright;
position = "{458, 748}";
}
);
layerId = "38588886-3B3E-4A1D-B58B-01CA69B4ACA2";
paths = (
{
closed = 1;
nodes = (
"85 732 LINE",
"92 672 LINE",
"39 278 LINE SMOOTH",
"36 257 OFFCURVE",
"35 237 OFFCURVE",
"35 216 CURVE SMOOTH",
"35 63 OFFCURVE",
"125 -11 OFFCURVE",
"274 -11 CURVE SMOOTH",
"479 -11 OFFCURVE",
"563 102 OFFCURVE",
"587 278 CURVE SMOOTH",
"648 732 LINE",
"541 732 LINE",
"475 245 LINE SMOOTH",
"464 160 OFFCURVE",
"399 84 OFFCURVE",
"301 84 CURVE SMOOTH",
"219 84 OFFCURVE",
"167 134 OFFCURVE",
"167 216 CURVE SMOOTH",
"167 225 OFFCURVE",
"168 234 OFFCURVE",
"169 243 CURVE SMOOTH",
"234 732 LINE"
);
}
);
width = 659;
}
);
note = U;
rightKerningGroup = U;
unicode = 0055;
},
{
glyphname = V;
layers = (
{
background = {
paths = (
{
closed = 1;
nodes = (
"44 724 LINE",
"185 -3 LINE",
"241 -3 LINE",
"578 724 LINE",
"501 724 LINE",
"242 163 LINE",
"139 724 LINE"
);
}
);
};
layerId = "C7717117-F750-4912-BA39-B64C3F969EBE";
paths = (
{
closed = 1;
nodes = (
"44 724 LINE",
"185 -3 LINE",
"241 -3 LINE",
"578 724 LINE",
"501 724 LINE",
"414 534 OFFCURVE",
"322 343 OFFCURVE",
"241 153 CURVE",
"211 343 OFFCURVE",
"173 534 OFFCURVE",
"139 724 CURVE"
);
}
);
width = 518;
},
{
background = {
paths = (
{
closed = 1;
nodes = (
"35 732 LINE",
"176 -1 LINE",
"278 -1 LINE",
"616 732 LINE",
"492 732 LINE",
"311 337 LINE SMOOTH",
"290 292 OFFCURVE",
"264 200 OFFCURVE",
"264 200 CURVE SMOOTH",
"264 200 OFFCURVE",
"260 277 OFFCURVE",
"253 314 CURVE SMOOTH",
"174 732 LINE"
);
}
);
};
layerId = "38588886-3B3E-4A1D-B58B-01CA69B4ACA2";
paths = (
{
closed = 1;
nodes = (
"35 732 LINE",
"176 -1 LINE",
"278 -1 LINE",
"616 732 LINE",
"492 732 LINE",
"416 555 OFFCURVE",
"319 377 OFFCURVE",
"264 200 CURVE",
"247 377 OFFCURVE",
"204 555 OFFCURVE",
"174 732 CURVE"
);
}
);
width = 561;
}
);
leftKerningGroup = V;
note = V;
rightKerningGroup = V;
unicode = 0056;
},
{
glyphname = W;
layers = (
{
anchors = (
{
name = top;
position = "{457, 724}";
}
);
background = {
paths = (
{
closed = 1;
nodes = (
"44 724 LINE",
"139 -3 LINE",
"212 -3 LINE",
"425 537 LINE",
"494 -3 LINE",
"567 -3 LINE",
"854 724 LINE",
"780 724 LINE",
"563 172 LINE",
"494 724 LINE",
"424 724 LINE",
"208 172 LINE",
"138 724 LINE"
);
}
);
};
layerId = "C7717117-F750-4912-BA39-B64C3F969EBE";
paths = (
{
closed = 1;
nodes = (
"44 724 LINE",
"139 -3 LINE",
"212 -3 LINE",
"285 181 OFFCURVE",
"360 365 OFFCURVE",
"426 549 CURVE",
"445 365 OFFCURVE",
"470 181 OFFCURVE",
"494 -3 CURVE",
"567 -3 LINE",
"854 724 LINE",
"780 724 LINE",
"706 535 OFFCURVE",
"630 347 OFFCURVE",
"561 158 CURVE",
"544 347 OFFCURVE",
"518 535 OFFCURVE",
"494 724 CURVE",
"424 724 LINE",
"350 535 OFFCURVE",
"275 347 OFFCURVE",
"206 158 CURVE",
"187 347 OFFCURVE",
"162 535 OFFCURVE",
"138 724 CURVE"
);
}
);
width = 795;
},
{
anchors = (
{
name = top;
position = "{493, 732}";
}
);
background = {
paths = (
{
closed = 1;
nodes = (
"35 732 LINE",
"128 -2 LINE",
"260 -2 LINE",
"403 361 LINE SMOOTH",
"424 415 OFFCURVE",
"456 526 OFFCURVE",
"456 526 CURVE SMOOTH",
"456 526 OFFCURVE",
"458 434 OFFCURVE",
"460 414 CURVE SMOOTH",
"512 -2 LINE",
"646 -2 LINE",
"930 732 LINE",
"818 732 LINE",
"666 346 LINE SMOOTH",
"645 292 OFFCURVE",
"614 182 OFFCURVE",
"614 182 CURVE SMOOTH",
"614 182 OFFCURVE",
"613 266 OFFCURVE",
"608 307 CURVE SMOOTH",
"554 732 LINE",
"435 732 LINE",
"280 346 LINE SMOOTH",
"258 292 OFFCURVE",
"234 182 OFFCURVE",
"234 182 CURVE SMOOTH",
"234 182 OFFCURVE",
"230 267 OFFCURVE",
"225 309 CURVE SMOOTH",
"172 732 LINE"
);
}
);
};
layerId = "38588886-3B3E-4A1D-B58B-01CA69B4ACA2";
paths = (
{
closed = 1;
nodes = (
"35 732 LINE",
"128 -2 LINE",
"260 -2 LINE",
"375 289 OFFCURVE",
"402 341 OFFCURVE",
"456 526 CURVE SMOOTH",
"461 344 OFFCURVE",
"474 304 OFFCURVE",
"512 -2 CURVE",
"646 -2 LINE",
"930 732 LINE",
"818 732 LINE",
"699 429 OFFCURVE",
"668 368 OFFCURVE",
"614 182 CURVE SMOOTH",
"611 337 OFFCURVE",
"593 425 OFFCURVE",
"554 732 CURVE",
"435 732 LINE",
"316 435 OFFCURVE",
"275 358 OFFCURVE",
"234 182 CURVE SMOOTH",
"225 342 OFFCURVE",
"211 423 OFFCURVE",
"172 732 CURVE"
);
}
);
width = 875;
}
);
leftKerningGroup = V;
note = W;
rightKerningGroup = V;
unicode = 0057;
},
{
glyphname = X;
layers = (
{
background = {
paths = (
{
closed = 1;
nodes = (
"83 724 LINE",
"236 372 LINE",
"-33 0 LINE",
"51 0 LINE",
"267 298 LINE",
"398 0 LINE",
"502 0 LINE",
"332 389 LINE",
"578 724 LINE",
"493 724 LINE",
"301 460 LINE",
"185 724 LINE"
);
}
);
};
layerId = "C7717117-F750-4912-BA39-B64C3F969EBE";
paths = (
{
closed = 1;
nodes = (
"-33 0 LINE",
"66 0 LINE",
"578 724 LINE",
"478 724 LINE"
);
},
{
closed = 1;
nodes = (
"83 724 LINE",
"398 0 LINE",
"502 0 LINE",
"185 724 LINE"
);
}
);
width = 545;
},
{
background = {
paths = (
{
closed = 1;
nodes = (
"70 732 LINE",
"224 377 LINE",
"-50 0 LINE",
"96 0 LINE",
"273 260 LINE",
"386 0 LINE",
"537 0 LINE",
"370 391 LINE",
"616 732 LINE",
"471 732 LINE",
"319 510 LINE",
"221 732 LINE"
);
}
);
};
layerId = "38588886-3B3E-4A1D-B58B-01CA69B4ACA2";
paths = (
{
closed = 1;
nodes = (
"-50 0 LINE",
"96 0 LINE",
"616 732 LINE",
"471 732 LINE"
);
},
{
closed = 1;
nodes = (
"70 732 LINE",
"386 0 LINE",
"537 0 LINE",
"221 732 LINE"
);
}
);
width = 566;
}
);
leftKerningGroup = X;
note = X;
rightKerningGroup = X;
unicode = 0058;
},
{
glyphname = Y;
layers = (
{
anchors = (
{
name = bottom;
position = "{197, 0}";
},
{
name = top;
position = "{298, 724}";
}
);
layerId = "C7717117-F750-4912-BA39-B64C3F969EBE";
paths = (
{
closed = 1;
nodes = (
"42 724 LINE",
"199 359 LINE",
"151 0 LINE",
"242 0 LINE",
"290 358 LINE",
"538 724 LINE",
"454 724 LINE",
"267 444 LINE",
"145 724 LINE"
);
}
);
width = 477;
},
{
anchors = (
{
name = bottom;
position = "{210, 0}";
},
{
name = top;
position = "{311, 732}";
}
);
layerId = "38588886-3B3E-4A1D-B58B-01CA69B4ACA2";
paths = (
{
closed = 1;
nodes = (
"35 732 LINE",
"184 330 LINE",
"141 0 LINE",
"271 0 LINE",
"315 327 LINE",
"578 732 LINE",
"448 732 LINE",
"277 472 LINE",
"181 732 LINE"
);
}
);
width = 523;
}
);
leftKerningGroup = Y;
note = Y;
rightKerningGroup = Y;
unicode = 0059;
},
{
glyphname = Z;
layers = (
{
anchors = (
{
name = top;
position = "{324, 724}";
}
);
layerId = "C7717117-F750-4912-BA39-B64C3F969EBE";
paths = (
{
closed = 1;
nodes = (
"92 655 LINE",
"430 655 LINE",
"-8 67 LINE",
"-17 0 LINE",
"454 0 LINE",
"470 69 LINE",
"99 69 LINE",
"537 657 LINE",
"546 724 LINE",
"101 724 LINE"
);
}
);
width = 532;
},
{
anchors = (
{
name = top;
position = "{322, 732}";
}
);
layerId = "38588886-3B3E-4A1D-B58B-01CA69B4ACA2";
paths = (
{
closed = 1;
nodes = (
"81 633 LINE",
"377 633 LINE",
"-17 82 LINE",
"-17 0 LINE",
"480 0 LINE",
"494 99 LINE",
"164 99 LINE",
"561 659 LINE",
"561 732 LINE",
"94 732 LINE"
);
}
);
width = 546;
}
);
leftKerningGroup = Z;
note = Z;
rightKerningGroup = Z;
unicode = 005A;
},
{
glyphname = a;
layers = (
{
anchors = (
{
name = bottom;
position = "{202, 0}";
},
{
name = ogonek;
position = "{436, 0}";
},
{
name = top;
position = "{282, 490}";
}
);
background = {
paths = (
{
closed = 1;
nodes = (
"94 147 OFFCURVE",
"113 166 OFFCURVE",
"113 189 CURVE SMOOTH",
"113 211 OFFCURVE",
"94 230 OFFCURVE",
"72 230 CURVE SMOOTH",
"49 230 OFFCURVE",
"30 211 OFFCURVE",
"30 189 CURVE SMOOTH",
"30 166 OFFCURVE",
"49 147 OFFCURVE",
"72 147 CURVE SMOOTH"
);
},
{
closed = 1;
nodes = (
"382 421 OFFCURVE",
"393 432 OFFCURVE",
"393 446 CURVE SMOOTH",
"393 459 OFFCURVE",
"382 470 OFFCURVE",
"369 470 CURVE SMOOTH",
"355 470 OFFCURVE",
"344 459 OFFCURVE",
"344 446 CURVE SMOOTH",
"344 432 OFFCURVE",
"355 421 OFFCURVE",
"369 421 CURVE SMOOTH"
);
},
{
closed = 1;
nodes = (
"317 47 OFFCURVE",
"328 58 OFFCURVE",
"328 73 CURVE SMOOTH",
"328 87 OFFCURVE",
"317 98 OFFCURVE",
"303 98 CURVE SMOOTH",
"288 98 OFFCURVE",
"277 87 OFFCURVE",
"277 73 CURVE SMOOTH",
"277 58 OFFCURVE",
"288 47 OFFCURVE",
"303 47 CURVE SMOOTH"
);
},
{
closed = 1;
nodes = (
"376 419 LINE",
"361 307 LINE SMOOTH",
"344 177 OFFCURVE",
"296 49 OFFCURVE",
"203 49 CURVE SMOOTH",
"143 49 OFFCURVE",
"113 118 OFFCURVE",
"113 198 CURVE SMOOTH",
"113 309 OFFCURVE",
"171 441 OFFCURVE",
"291 441 CURVE SMOOTH",
"329 441 OFFCURVE",
"371 425 OFFCURVE",
"412 389 CURVE",
"412 448 LINE",
"376 489 OFFCURVE",
"324 503 OFFCURVE",
"283 503 CURVE SMOOTH",
"121 503 OFFCURVE",
"30 342 OFFCURVE",
"30 187 CURVE SMOOTH",
"30 80 OFFCURVE",
"80 -13 OFFCURVE",
"187 -13 CURVE SMOOTH",
"246 -13 OFFCURVE",
"304 19 OFFCURVE",
"335 74 CURVE",
"339 74 LINE",
"340 26 OFFCURVE",
"370 -11 OFFCURVE",
"418 -11 CURVE SMOOTH",
"443 -11 OFFCURVE",
"471 0 OFFCURVE",
"493 12 CURVE",
"482 62 LINE",
"470 58 OFFCURVE",
"455 54 OFFCURVE",
"442 54 CURVE SMOOTH",
"417 54 OFFCURVE",
"409 70 OFFCURVE",
"409 94 CURVE SMOOTH",
"409 121 OFFCURVE",
"416 164 OFFCURVE",
"467 495 CURVE",
"423 495 LINE"
);
}
);
};
guideLines = (
{
angle = 90;
position = "{113, 460}";
},
{
angle = 90;
position = "{30, 460}";
}
);
layerId = "C7717117-F750-4912-BA39-B64C3F969EBE";
paths = (
{
closed = 1;
nodes = (
"371 419 LINE",
"356 307 LINE SMOOTH",
"339 177 OFFCURVE",
"291 51 OFFCURVE",
"203 51 CURVE SMOOTH",
"143 51 OFFCURVE",
"118 116 OFFCURVE",
"118 194 CURVE SMOOTH",
"118 309 OFFCURVE",
"164 441 OFFCURVE",
"288 441 CURVE SMOOTH",
"329 441 OFFCURVE",
"366 425 OFFCURVE",
"407 389 CURVE",
"407 448 LINE",
"371 489 OFFCURVE",
"327 503 OFFCURVE",
"286 503 CURVE SMOOTH",
"116 503 OFFCURVE",
"35 342 OFFCURVE",
"35 193 CURVE SMOOTH",
"35 81 OFFCURVE",
"79 -13 OFFCURVE",
"187 -13 CURVE SMOOTH",
"241 -13 OFFCURVE",
"299 19 OFFCURVE",
"330 74 CURVE",
"334 74 LINE",
"335 26 OFFCURVE",
"365 -11 OFFCURVE",
"413 -11 CURVE SMOOTH",
"438 -11 OFFCURVE",
"466 0 OFFCURVE",
"488 12 CURVE",
"477 62 LINE",
"465 58 OFFCURVE",
"450 54 OFFCURVE",
"437 54 CURVE SMOOTH",
"412 54 OFFCURVE",
"404 70 OFFCURVE",
"404 94 CURVE SMOOTH",
"404 121 OFFCURVE",
"411 164 OFFCURVE",
"462 495 CURVE",
"418 495 LINE"
);
}
);
width = 509;
},
{
anchors = (
{
name = bottom;
position = "{212, 0}";
},
{
name = ogonek;
position = "{423, 0}";
},
{
name = top;
position = "{292, 497}";
}
);
background = {
paths = (
{
closed = 1;
nodes = (
"106 126 OFFCURVE",
"132 152 OFFCURVE",
"132 185 CURVE SMOOTH",
"132 217 OFFCURVE",
"106 243 OFFCURVE",
"74 243 CURVE SMOOTH",
"41 243 OFFCURVE",
"15 217 OFFCURVE",
"15 185 CURVE SMOOTH",
"15 152 OFFCURVE",
"41 126 OFFCURVE",
"74 126 CURVE SMOOTH"
);
},
{
closed = 1;
nodes = (
"111 509 OFFCURVE",
"15 349 OFFCURVE",
"15 197 CURVE SMOOTH",
"15 89 OFFCURVE",
"66 -12 OFFCURVE",
"186 -12 CURVE SMOOTH",
"235 -12 OFFCURVE",
"293 7 OFFCURVE",
"332 59 CURVE",
"336 59 LINE",
"344 20 OFFCURVE",
"378 -9 OFFCURVE",
"418 -9 CURVE SMOOTH",
"452 -9 OFFCURVE",
"495 3 OFFCURVE",
"524 22 CURVE",
"507 85 LINE",
"494 80 OFFCURVE",
"472 73 OFFCURVE",
"459 73 CURVE SMOOTH",
"439 73 OFFCURVE",
"434 92 OFFCURVE",
"434 109 CURVE SMOOTH",
"434 136 OFFCURVE",
"439 161 OFFCURVE",
"490 500 CURVE",
"427 500 LINE",
"404 459 LINE",
"369 496 OFFCURVE",
"317 509 OFFCURVE",
"284 509 CURVE SMOOTH"
);
},
{
closed = 1;
nodes = (
"307 427 OFFCURVE",
"334 415 OFFCURVE",
"362 387 CURVE",
"354 334 LINE SMOOTH",
"335 206 OFFCURVE",
"297 71 OFFCURVE",
"209 71 CURVE SMOOTH",
"150 71 OFFCURVE",
"136 134 OFFCURVE",
"136 197 CURVE SMOOTH",
"136 268 OFFCURVE",
"169 427 OFFCURVE",
"276 427 CURVE SMOOTH"
);
},
{
closed = 1;
nodes = (
"317 38 OFFCURVE",
"333 54 OFFCURVE",
"333 74 CURVE SMOOTH",
"333 93 OFFCURVE",
"317 109 OFFCURVE",
"298 109 CURVE SMOOTH",
"278 109 OFFCURVE",
"262 93 OFFCURVE",
"262 74 CURVE SMOOTH",
"262 54 OFFCURVE",
"278 38 OFFCURVE",
"298 38 CURVE SMOOTH"
);
},
{
closed = 1;
nodes = (
"389 400 OFFCURVE",
"405 416 OFFCURVE",
"405 436 CURVE SMOOTH",
"405 455 OFFCURVE",
"389 471 OFFCURVE",
"370 471 CURVE SMOOTH",
"350 471 OFFCURVE",
"334 455 OFFCURVE",
"334 436 CURVE SMOOTH",
"334 416 OFFCURVE",
"350 400 OFFCURVE",
"370 400 CURVE SMOOTH"
);
}
);
};
guideLines = (
{
angle = 90;
position = "{15, 417}";
},
{
angle = 90;
position = "{132, 417}";
}
);
layerId = "38588886-3B3E-4A1D-B58B-01CA69B4ACA2";
paths = (
{
closed = 1;
nodes = (
"359 407 LINE",
"348 334 LINE SMOOTH",
"328 204 OFFCURVE",
"294 70 OFFCURVE",
"209 70 CURVE SMOOTH",
"157 70 OFFCURVE",
"138 132 OFFCURVE",
"138 204 CURVE SMOOTH",
"138 340 OFFCURVE",
"195 427 OFFCURVE",
"280 427 CURVE SMOOTH",
"320 427 OFFCURVE",
"360 407 OFFCURVE",
"406 365 CURVE",
"406 450 LINE",
"370 494 OFFCURVE",
"309 509 OFFCURVE",
"274 509 CURVE SMOOTH",
"104 509 OFFCURVE",
"21 347 OFFCURVE",
"21 201 CURVE SMOOTH",
"21 87 OFFCURVE",
"69 -12 OFFCURVE",
"186 -12 CURVE SMOOTH",
"229 -12 OFFCURVE",
"287 7 OFFCURVE",
"326 59 CURVE",
"330 59 LINE",
"338 20 OFFCURVE",
"372 -9 OFFCURVE",
"412 -9 CURVE SMOOTH",
"446 -9 OFFCURVE",
"489 3 OFFCURVE",
"518 22 CURVE",
"501 85 LINE",
"488 80 OFFCURVE",
"466 73 OFFCURVE",
"453 73 CURVE SMOOTH",
"433 73 OFFCURVE",
"428 92 OFFCURVE",
"428 109 CURVE SMOOTH",
"428 136 OFFCURVE",
"433 161 OFFCURVE",
"484 500 CURVE",
"421 500 LINE"
);
}
);
width = 513;
}
);
leftKerningGroup = a;
note = a;
rightKerningGroup = a;
unicode = 0061;
},
{
glyphname = ae;
layers = (
{
anchors = (
{
name = top;
position = "{442, 490}";
}
);
layerId = "C7717117-F750-4912-BA39-B64C3F969EBE";
paths = (
{
closed = 1;
nodes = (
"351 271 LINE",
"331 156 OFFCURVE",
"284 51 OFFCURVE",
"203 51 CURVE SMOOTH",
"143 51 OFFCURVE",
"118 116 OFFCURVE",
"118 194 CURVE SMOOTH",
"118 309 OFFCURVE",
"164 441 OFFCURVE",
"288 441 CURVE SMOOTH",
"329 441 OFFCURVE",
"366 425 OFFCURVE",
"407 389 CURVE",
"439 427 LINE",
"388 496 OFFCURVE",
"327 503 OFFCURVE",
"286 503 CURVE SMOOTH",
"116 503 OFFCURVE",
"35 342 OFFCURVE",
"35 193 CURVE SMOOTH",
"35 81 OFFCURVE",
"79 -13 OFFCURVE",
"187 -13 CURVE SMOOTH",
"292 -13 OFFCURVE",
"345 66 OFFCURVE",
"383 165 CURVE"
);
},
{
closed = 1;
nodes = (
"460 57 OFFCURVE",
"428 126 OFFCURVE",
"428 213 CURVE SMOOTH",
"428 320 OFFCURVE",
"484 441 OFFCURVE",
"591 441 CURVE SMOOTH",
"624 441 OFFCURVE",
"653 424 OFFCURVE",
"653 390 CURVE SMOOTH",
"653 301 OFFCURVE",
"513 249 OFFCURVE",
"416 261 CURVE",
"416 202 LINE",
"598 197 OFFCURVE",
"737 271 OFFCURVE",
"737 397 CURVE SMOOTH",
"737 473 OFFCURVE",
"670 503 OFFCURVE",
"601 503 CURVE SMOOTH",
"432 503 OFFCURVE",
"345 348 OFFCURVE",
"345 207 CURVE SMOOTH",
"345 87 OFFCURVE",
"402 -13 OFFCURVE",
"543 -13 CURVE SMOOTH",
"602 -13 OFFCURVE",
"668 9 OFFCURVE",
"716 43 CURVE",
"687 102 LINE",
"646 74 OFFCURVE",
"598 57 OFFCURVE",
"548 57 CURVE SMOOTH"
);
}
);
width = 763;
},
{
anchors = (
{
name = top;
position = "{441, 497}";
}
);
layerId = "38588886-3B3E-4A1D-B58B-01CA69B4ACA2";
paths = (
{
closed = 1;
nodes = (
"338 275 LINE",
"317 165 OFFCURVE",
"282 70 OFFCURVE",
"209 70 CURVE SMOOTH",
"157 70 OFFCURVE",
"138 132 OFFCURVE",
"138 204 CURVE SMOOTH",
"138 340 OFFCURVE",
"195 427 OFFCURVE",
"280 427 CURVE SMOOTH",
"320 427 OFFCURVE",
"360 407 OFFCURVE",
"406 365 CURVE",
"434 429 LINE",
"380 501 OFFCURVE",
"309 509 OFFCURVE",
"274 509 CURVE SMOOTH",
"104 509 OFFCURVE",
"21 347 OFFCURVE",
"21 201 CURVE SMOOTH",
"21 87 OFFCURVE",
"69 -12 OFFCURVE",
"186 -12 CURVE SMOOTH",
"273 -12 OFFCURVE",
"331 43 OFFCURVE",
"364 107 CURVE"
);
},
{
closed = 1;
nodes = (
"478 76 OFFCURVE",
"448 140 OFFCURVE",
"448 221 CURVE SMOOTH",
"448 321 OFFCURVE",
"499 426 OFFCURVE",
"595 426 CURVE SMOOTH",
"624 426 OFFCURVE",
"639 410 OFFCURVE",
"639 387 CURVE SMOOTH",
"639 338 OFFCURVE",
"580 277 OFFCURVE",
"435 277 CURVE",
"435 194 LINE",
"700 188 OFFCURVE",
"762 317 OFFCURVE",
"762 384 CURVE SMOOTH",
"762 471 OFFCURVE",
"690 510 OFFCURVE",
"604 510 CURVE SMOOTH",
"432 510 OFFCURVE",
"331 356 OFFCURVE",
"331 204 CURVE SMOOTH",
"331 85 OFFCURVE",
"392 -12 OFFCURVE",
"548 -12 CURVE SMOOTH",
"670 -12 OFFCURVE",
"746 54 OFFCURVE",
"746 54 CURVE",
"704 137 LINE",
"670 111 OFFCURVE",
"615 76 OFFCURVE",
"560 76 CURVE SMOOTH"
);
}
);
width = 776;
}
);
leftKerningGroup = a;
leftMetricsKey = a;
note = ae;
rightMetricsKey = e;
unicode = 00E6;
},
{
glyphname = b;
layers = (
{
background = {
hints = (
{
horizontal = 1;
place = "{501, 21}";
target = up;
type = BottomGhost;
},
{
horizontal = 1;
place = "{49, -62}";
type = Stem;
},
{
place = "{452, -93}";
type = Stem;
},
{
place = "{143, -70}";
type = Stem;
},
{
horizontal = 1;
place = "{-5, 21}";
target = up;
type = BottomGhost;
},
{
horizontal = 1;
place = "{503, -62}";
type = Stem;
},
{
horizontal = 1;
place = "{0, 21}";
target = up;
type = BottomGhost;
},
{
horizontal = 1;
place = "{431, 72}";
type = Stem;
},
{
place = "{361, 81}";
type = Stem;
}
);
paths = (
{
closed = 1;
nodes = (
"251 503 OFFCURVE",
"208 475 OFFCURVE",
"172 444 CURVE",
"215 764 LINE",
"127 764 LINE",
"127 707 LINE",
"40 33 LINE",
"71 2 OFFCURVE",
"130 -13 OFFCURVE",
"170 -13 CURVE SMOOTH",
"358 -13 OFFCURVE",
"466 143 OFFCURVE",
"466 318 CURVE SMOOTH",
"466 417 OFFCURVE",
"418 503 OFFCURVE",
"307 503 CURVE SMOOTH"
);
},
{
closed = 1;
nodes = (
"359 441 OFFCURVE",
"378 382 OFFCURVE",
"378 322 CURVE SMOOTH",
"378 179 OFFCURVE",
"314 49 OFFCURVE",
"186 49 CURVE SMOOTH",
"148 49 OFFCURVE",
"123 60 OFFCURVE",
"123 71 CURVE SMOOTH",
"123 98 OFFCURVE",
"148 276 OFFCURVE",
"162 367 CURVE",
"191 406 OFFCURVE",
"245 441 OFFCURVE",
"293 441 CURVE SMOOTH"
);
}
);
};
layerId = "C7717117-F750-4912-BA39-B64C3F969EBE";
paths = (
{
closed = 1;
nodes = (
"118 52 LINE",
"161 362 LINE",
"184 386 OFFCURVE",
"240 432 OFFCURVE",
"295 432 CURVE SMOOTH",
"352 432 OFFCURVE",
"374 372 OFFCURVE",
"374 290 CURVE SMOOTH",
"374 176 OFFCURVE",
"324 49 OFFCURVE",
"204 49 CURVE SMOOTH",
"163 49 OFFCURVE",
"126 55 OFFCURVE",
"80 89 CURVE",
"40 33 LINE",
"88 1 OFFCURVE",
"152 -13 OFFCURVE",
"207 -13 CURVE SMOOTH",
"361 -13 OFFCURVE",
"457 125 OFFCURVE",
"457 300 CURVE SMOOTH",
"457 415 OFFCURVE",
"416 503 OFFCURVE",
"311 503 CURVE SMOOTH",
"253 503 OFFCURVE",
"196 461 OFFCURVE",
"171 436 CURVE",
"215 764 LINE",
"127 764 LINE",
"127 707 LINE",
"40 33 LINE"
);
}
);
width = 492;
},
{
background = {
hints = (
{
horizontal = 1;
place = "{509, -83}";
type = Stem;
},
{
horizontal = 1;
place = "{70, -82}";
type = Stem;
},
{
place = "{485, -121}";
type = Stem;
},
{
horizontal = 1;
place = "{506, -82}";
type = Stem;
},
{
horizontal = 1;
place = "{-3, 21}";
target = up;
type = BottomGhost;
}
);
paths = (
{
closed = 1;
nodes = (
"284 510 OFFCURVE",
"236 496 OFFCURVE",
"198 460 CURVE",
"239 768 LINE",
"112 768 LINE",
"117 713 LINE",
"27 40 LINE",
"58 11 OFFCURVE",
"114 -11 OFFCURVE",
"179 -11 CURVE SMOOTH",
"385 -11 OFFCURVE",
"497 157 OFFCURVE",
"497 318 CURVE SMOOTH",
"497 422 OFFCURVE",
"443 510 OFFCURVE",
"326 510 CURVE SMOOTH"
);
},
{
closed = 1;
nodes = (
"354 426 OFFCURVE",
"376 382 OFFCURVE",
"376 321 CURVE SMOOTH",
"376 189 OFFCURVE",
"306 71 OFFCURVE",
"192 71 CURVE SMOOTH",
"162 71 OFFCURVE",
"147 79 OFFCURVE",
"147 88 CURVE SMOOTH",
"147 101 OFFCURVE",
"160 178 OFFCURVE",
"184 354 CURVE",
"213 388 OFFCURVE",
"264 426 OFFCURVE",
"305 426 CURVE SMOOTH"
);
},
{
closed = 1;
nodes = (
"244 400 OFFCURVE",
"260 416 OFFCURVE",
"260 436 CURVE SMOOTH",
"260 455 OFFCURVE",
"244 471 OFFCURVE",
"225 471 CURVE SMOOTH",
"205 471 OFFCURVE",
"189 455 OFFCURVE",
"189 436 CURVE SMOOTH",
"189 416 OFFCURVE",
"205 400 OFFCURVE",
"225 400 CURVE SMOOTH"
);
}
);
};
layerId = "38588886-3B3E-4A1D-B58B-01CA69B4ACA2";
paths = (
{
closed = 1;
nodes = (
"145 75 LINE",
"184 353 LINE",
"201 377 OFFCURVE",
"251 422 OFFCURVE",
"295 422 CURVE SMOOTH",
"350 422 OFFCURVE",
"368 368 OFFCURVE",
"368 293 CURVE SMOOTH",
"368 188 OFFCURVE",
"324 70 OFFCURVE",
"226 70 CURVE SMOOTH",
"186 70 OFFCURVE",
"131 84 OFFCURVE",
"100 122 CURVE",
"28 41 LINE",
"89 5 OFFCURVE",
"164 -12 OFFCURVE",
"222 -12 CURVE SMOOTH",
"404 -12 OFFCURVE",
"485 147 OFFCURVE",
"485 299 CURVE SMOOTH",
"485 418 OFFCURVE",
"439 511 OFFCURVE",
"325 511 CURVE SMOOTH",
"282 511 OFFCURVE",
"230 491 OFFCURVE",
"198 459 CURVE",
"239 768 LINE",
"112 768 LINE",
"117 713 LINE",
"28 41 LINE"
);
}
);
width = 506;
}
);
leftKerningGroup = b;
note = b;
rightKerningGroup = b;
rightMetricsKey = o;
unicode = 0062;
},
{
glyphname = c;
layers = (
{
anchors = (
{
name = bottom;
position = "{206, 0}";
},
{
name = top;
position = "{278, 490}";
}
);
background = {
hints = (
{
horizontal = 1;
place = "{-13, 62}";
type = Stem;
},
{
horizontal = 1;
place = "{441, 62}";
type = Stem;
},
{
place = "{36, 85}";
type = Stem;
},
{
place = "{386, 85}";
type = Stem;
}
);
paths = (
{
closed = 1;
nodes = (
"377 -13 OFFCURVE",
"462 145 OFFCURVE",
"462 286 CURVE SMOOTH",
"462 400 OFFCURVE",
"408 503 OFFCURVE",
"282 503 CURVE SMOOTH",
"120 503 OFFCURVE",
"35 345 OFFCURVE",
"35 204 CURVE SMOOTH",
"35 90 OFFCURVE",
"89 -13 OFFCURVE",
"215 -13 CURVE SMOOTH"
);
},
{
closed = 1;
nodes = (
"148 49 OFFCURVE",
"118 125 OFFCURVE",
"118 209 CURVE SMOOTH",
"118 318 OFFCURVE",
"170 441 OFFCURVE",
"275 441 CURVE SMOOTH",
"349 441 OFFCURVE",
"379 365 OFFCURVE",
"379 281 CURVE SMOOTH",
"379 172 OFFCURVE",
"327 49 OFFCURVE",
"222 49 CURVE SMOOTH"
);
}
);
};
layerId = "C7717117-F750-4912-BA39-B64C3F969EBE";
paths = (
{
closed = 1;
nodes = (
"429 452 LINE",
"384 489 OFFCURVE",
"335 503 OFFCURVE",
"289 503 CURVE SMOOTH",
"119 503 OFFCURVE",
"35 345 OFFCURVE",
"35 204 CURVE SMOOTH",
"35 61 OFFCURVE",
"111 -13 OFFCURVE",
"217 -13 CURVE SMOOTH",
"272 -13 OFFCURVE",
"328 3 OFFCURVE",
"382 36 CURVE",
"358 86 LINE",
"310 65 OFFCURVE",
"268 54 OFFCURVE",
"233 54 CURVE SMOOTH",
"160 54 OFFCURVE",
"118 103 OFFCURVE",
"118 214 CURVE SMOOTH",
"118 320 OFFCURVE",
"171 436 OFFCURVE",
"283 436 CURVE SMOOTH",
"315 436 OFFCURVE",
"347 422 OFFCURVE",
"379 392 CURVE"
);
}
);
width = 420;
},
{
anchors = (
{
name = bottom;
position = "{209, 0}";
},
{
name = top;
position = "{281, 497}";
}
);
background = {
hints = (
{
horizontal = 1;
place = "{-12, 80}";
type = Stem;
},
{
horizontal = 1;
place = "{428, 82}";
type = Stem;
},
{
place = "{21, 125}";
type = Stem;
},
{
place = "{362, 125}";
type = Stem;
}
);
paths = (
{
closed = 1;
nodes = (
"382 -12 OFFCURVE",
"476 152 OFFCURVE",
"476 297 CURVE SMOOTH",
"476 409 OFFCURVE",
"421 510 OFFCURVE",
"284 510 CURVE SMOOTH",
"116 510 OFFCURVE",
"22 346 OFFCURVE",
"22 201 CURVE SMOOTH",
"22 89 OFFCURVE",
"77 -12 OFFCURVE",
"214 -12 CURVE SMOOTH"
);
},
{
closed = 1;
nodes = (
"160 69 OFFCURVE",
"139 129 OFFCURVE",
"139 200 CURVE SMOOTH",
"139 308 OFFCURVE",
"185 429 OFFCURVE",
"273 429 CURVE SMOOTH",
"338 429 OFFCURVE",
"359 369 OFFCURVE",
"359 298 CURVE SMOOTH",
"359 190 OFFCURVE",
"313 69 OFFCURVE",
"225 69 CURVE SMOOTH"
);
}
);
};
guideLines = (
{
angle = 90;
position = "{139, 409}";
},
{
angle = 90;
position = "{22, 409}";
}
);
layerId = "38588886-3B3E-4A1D-B58B-01CA69B4ACA2";
paths = (
{
closed = 1;
nodes = (
"442 462 LINE",
"389 497 OFFCURVE",
"336 510 OFFCURVE",
"287 510 CURVE SMOOTH",
"141 510 OFFCURVE",
"22 382 OFFCURVE",
"22 207 CURVE SMOOTH",
"22 87 OFFCURVE",
"80 -12 OFFCURVE",
"222 -12 CURVE SMOOTH",
"289 -12 OFFCURVE",
"338 6 OFFCURVE",
"392 35 CURVE",
"365 105 LINE",
"318 85 OFFCURVE",
"278 74 OFFCURVE",
"244 74 CURVE SMOOTH",
"177 74 OFFCURVE",
"139 118 OFFCURVE",
"139 219 CURVE SMOOTH",
"139 320 OFFCURVE",
"184 422 OFFCURVE",
"278 422 CURVE SMOOTH",
"316 422 OFFCURVE",
"349 403 OFFCURVE",
"373 378 CURVE"
);
}
);
width = 422;
}
);
leftKerningGroup = c;
note = c;
unicode = 0063;
},
{
glyphname = d;
layers = (
{
anchors = (
{
name = center;
position = "{393, 645}";
},
{
name = topright;
position = "{334, 521}";
}
);
layerId = "C7717117-F750-4912-BA39-B64C3F969EBE";
paths = (
{
closed = 1;
nodes = (
"356 307 LINE SMOOTH",
"339 177 OFFCURVE",
"291 51 OFFCURVE",
"203 51 CURVE SMOOTH",
"143 51 OFFCURVE",
"118 116 OFFCURVE",
"118 194 CURVE SMOOTH",
"118 309 OFFCURVE",
"164 441 OFFCURVE",
"288 441 CURVE SMOOTH",
"329 441 OFFCURVE",
"366 425 OFFCURVE",
"407 389 CURVE",
"407 448 LINE",
"371 489 OFFCURVE",
"327 503 OFFCURVE",
"286 503 CURVE SMOOTH",
"116 503 OFFCURVE",
"35 342 OFFCURVE",
"35 193 CURVE SMOOTH",
"35 81 OFFCURVE",
"79 -13 OFFCURVE",
"187 -13 CURVE SMOOTH",
"241 -13 OFFCURVE",
"299 19 OFFCURVE",
"330 74 CURVE",
"334 74 LINE",
"335 26 OFFCURVE",
"365 -11 OFFCURVE",
"413 -11 CURVE SMOOTH",
"438 -11 OFFCURVE",
"466 0 OFFCURVE",
"488 12 CURVE",
"477 62 LINE",
"465 58 OFFCURVE",
"450 54 OFFCURVE",
"437 54 CURVE SMOOTH",
"412 54 OFFCURVE",
"404 70 OFFCURVE",
"404 94 CURVE SMOOTH",
"404 121 OFFCURVE",
"446 404 OFFCURVE",
"497 764 CURVE",
"410 764 LINE",
"410 710 LINE"
);
}
);
width = 510;
},
{
anchors = (
{
name = center;
position = "{408, 636}";
},
{
name = topright;
position = "{358, 531}";
}
);
layerId = "38588886-3B3E-4A1D-B58B-01CA69B4ACA2";
paths = (
{
closed = 1;
nodes = (
"348 334 LINE SMOOTH",
"330 204 OFFCURVE",
"294 70 OFFCURVE",
"209 70 CURVE SMOOTH",
"157 70 OFFCURVE",
"138 132 OFFCURVE",
"138 204 CURVE SMOOTH",
"138 340 OFFCURVE",
"195 427 OFFCURVE",
"280 427 CURVE SMOOTH",
"320 427 OFFCURVE",
"360 407 OFFCURVE",
"406 365 CURVE",
"406 450 LINE",
"370 494 OFFCURVE",
"309 509 OFFCURVE",
"274 509 CURVE SMOOTH",
"104 509 OFFCURVE",
"21 347 OFFCURVE",
"21 201 CURVE SMOOTH",
"21 87 OFFCURVE",
"69 -12 OFFCURVE",
"186 -12 CURVE SMOOTH",
"229 -12 OFFCURVE",
"287 7 OFFCURVE",
"326 59 CURVE",
"330 59 LINE",
"338 20 OFFCURVE",
"372 -9 OFFCURVE",
"412 -9 CURVE SMOOTH",
"446 -9 OFFCURVE",
"489 3 OFFCURVE",
"518 22 CURVE",
"501 85 LINE",
"488 80 OFFCURVE",
"466 73 OFFCURVE",
"453 73 CURVE SMOOTH",
"433 73 OFFCURVE",
"428 92 OFFCURVE",
"428 104 CURVE SMOOTH",
"428 136 OFFCURVE",
"471 421 OFFCURVE",
"522 769 CURVE",
"395 769 LINE",
"400 714 LINE"
);
}
);
width = 517;
}
);
leftKerningGroup = c;
leftMetricsKey = o;
note = d;
rightKerningGroup = d;
unicode = 0064;
},
{
glyphname = eth;
layers = (
{
layerId = "C7717117-F750-4912-BA39-B64C3F969EBE";
paths = (
{
closed = 1;
nodes = (
"137 505 OFFCURVE",
"37 354 OFFCURVE",
"37 199 CURVE SMOOTH",
"37 83 OFFCURVE",
"99 -10 OFFCURVE",
"220 -10 CURVE SMOOTH",
"375 -10 OFFCURVE",
"471 144 OFFCURVE",
"471 302 CURVE SMOOTH",
"471 442 OFFCURVE",
"404 577 OFFCURVE",
"341 673 CURVE",
"444 729 LINE",
"423 771 LINE",
"313 712 LINE",
"296 737 OFFCURVE",
"277 757 OFFCURVE",
"264 772 CURVE",
"207 739 LINE",
"221 723 OFFCURVE",
"238 703 OFFCURVE",
"254 680 CURVE",
"146 622 LINE",
"171 582 LINE",
"279 640 LINE",
"306 597 OFFCURVE",
"331 546 OFFCURVE",
"351 492 CURVE",
"332 500 OFFCURVE",
"312 505 OFFCURVE",
"288 505 CURVE SMOOTH"
);
},
{
closed = 1;
nodes = (
"362 445 OFFCURVE",
"386 366 OFFCURVE",
"386 293 CURVE SMOOTH",
"386 175 OFFCURVE",
"328 50 OFFCURVE",
"227 50 CURVE SMOOTH",
"146 50 OFFCURVE",
"121 128 OFFCURVE",
"121 200 CURVE SMOOTH",
"121 266 OFFCURVE",
"155 445 OFFCURVE",
"280 445 CURVE SMOOTH"
);
}
);
width = 508;
},
{
layerId = "38588886-3B3E-4A1D-B58B-01CA69B4ACA2";
paths = (
{
closed = 1;
nodes = (
"129 510 OFFCURVE",
"16 367 OFFCURVE",
"16 206 CURVE SMOOTH",
"16 82 OFFCURVE",
"86 -11 OFFCURVE",
"215 -11 CURVE SMOOTH",
"380 -11 OFFCURVE",
"483 137 OFFCURVE",
"483 307 CURVE SMOOTH",
"483 443 OFFCURVE",
"422 574 OFFCURVE",
"357 672 CURVE",
"451 723 LINE",
"421 783 LINE",
"319 728 LINE",
"302 748 OFFCURVE",
"287 767 OFFCURVE",
"273 783 CURVE",
"182 731 LINE",
"195 715 OFFCURVE",
"209 697 OFFCURVE",
"224 677 CURVE",
"130 626 LINE",
"165 568 LINE",
"260 619 LINE",
"281 585 OFFCURVE",
"298 547 OFFCURVE",
"314 508 CURVE",
"305 509 OFFCURVE",
"294 510 OFFCURVE",
"284 510 CURVE SMOOTH"
);
},
{
closed = 1;
nodes = (
"340 428 OFFCURVE",
"357 367 OFFCURVE",
"357 306 CURVE SMOOTH",
"357 247 OFFCURVE",
"342 72 OFFCURVE",
"226 72 CURVE SMOOTH",
"159 72 OFFCURVE",
"142 136 OFFCURVE",
"142 198 CURVE SMOOTH",
"142 247 OFFCURVE",
"161 428 OFFCURVE",
"273 428 CURVE SMOOTH"
);
}
);
width = 536;
}
);
note = eth;
unicode = 00F0;
},
{
glyphname = dcaron;
layers = (
{
layerId = "C7717117-F750-4912-BA39-B64C3F969EBE";
paths = (
{
closed = 1;
nodes = (
"135 503 OFFCURVE",
"37 330 OFFCURVE",
"37 179 CURVE SMOOTH",
"37 75 OFFCURVE",
"86 -13 OFFCURVE",
"194 -13 CURVE SMOOTH",
"253 -13 OFFCURVE",
"306 19 OFFCURVE",
"342 74 CURVE",
"346 74 LINE",
"347 26 OFFCURVE",
"377 -11 OFFCURVE",
"425 -11 CURVE SMOOTH",
"450 -11 OFFCURVE",
"478 0 OFFCURVE",
"500 12 CURVE",
"489 62 LINE",
"477 58 OFFCURVE",
"462 54 OFFCURVE",
"449 54 CURVE SMOOTH",
"424 54 OFFCURVE",
"416 70 OFFCURVE",
"416 94 CURVE SMOOTH",
"416 109 OFFCURVE",
"434 239 OFFCURVE",
"509 764 CURVE",
"422 764 LINE",
"422 710 LINE",
"390 474 LINE",
"370 489 OFFCURVE",
"338 503 OFFCURVE",
"300 503 CURVE SMOOTH"
);
},
{
closed = 1;
nodes = (
"334 441 OFFCURVE",
"362 428 OFFCURVE",
"383 409 CURVE",
"368 307 LINE SMOOTH",
"349 177 OFFCURVE",
"302 49 OFFCURVE",
"210 49 CURVE SMOOTH",
"155 49 OFFCURVE",
"130 108 OFFCURVE",
"130 180 CURVE SMOOTH",
"130 294 OFFCURVE",
"185 441 OFFCURVE",
"303 441 CURVE SMOOTH"
);
},
{
closed = 1;
nodes = (
"549 612 LINE",
"622 612 LINE",
"693 764 LINE",
"581 764 LINE"
);
}
);
width = 577;
},
{
layerId = "38588886-3B3E-4A1D-B58B-01CA69B4ACA2";
paths = (
{
closed = 1;
nodes = (
"112 509 OFFCURVE",
"21 349 OFFCURVE",
"21 197 CURVE SMOOTH",
"21 89 OFFCURVE",
"72 -12 OFFCURVE",
"192 -12 CURVE SMOOTH",
"241 -12 OFFCURVE",
"299 7 OFFCURVE",
"338 59 CURVE",
"342 59 LINE",
"349 20 OFFCURVE",
"385 -9 OFFCURVE",
"424 -9 CURVE SMOOTH",
"458 -9 OFFCURVE",
"501 3 OFFCURVE",
"530 22 CURVE",
"513 86 LINE",
"500 81 OFFCURVE",
"478 74 OFFCURVE",
"465 74 CURVE SMOOTH",
"445 74 OFFCURVE",
"440 93 OFFCURVE",
"440 110 CURVE SMOOTH",
"440 129 OFFCURVE",
"464 283 OFFCURVE",
"534 769 CURVE",
"407 769 LINE",
"412 714 LINE",
"381 477 LINE",
"357 500 OFFCURVE",
"313 509 OFFCURVE",
"280 509 CURVE SMOOTH"
);
},
{
closed = 1;
nodes = (
"314 427 OFFCURVE",
"341 415 OFFCURVE",
"369 387 CURVE",
"364 351 LINE SMOOTH",
"345 218 OFFCURVE",
"310 71 OFFCURVE",
"216 71 CURVE SMOOTH",
"157 71 OFFCURVE",
"143 129 OFFCURVE",
"143 200 CURVE SMOOTH",
"143 271 OFFCURVE",
"176 427 OFFCURVE",
"283 427 CURVE SMOOTH"
);
},
{
closed = 1;
nodes = (
"555 604 LINE",
"653 604 LINE",
"724 769 LINE",
"589 769 LINE"
);
}
);
width = 609;
}
);
unicode = 010F;
},
{
glyphname = e;
layers = (
{
anchors = (
{
name = bottom;
position = "{224, 0}";
},
{
name = ogonek;
position = "{293, 0}";
},
{
name = top;
position = "{289, 490}";
}
);
background = {
hints = (
{
horizontal = 1;
place = "{-13, 62}";
type = Stem;
},
{
horizontal = 1;
place = "{441, 62}";
type = Stem;
},
{
place = "{37, 85}";
type = Stem;
},
{
place = "{387, 85}";
type = Stem;
}
);
paths = (
{
closed = 1;
nodes = (
"737 503 OFFCURVE",
"637 342 OFFCURVE",
"637 192 CURVE SMOOTH",
"637 72 OFFCURVE",
"712 -13 OFFCURVE",
"834 -13 CURVE SMOOTH",
"893 -13 OFFCURVE",
"959 9 OFFCURVE",
"1007 43 CURVE",
"978 102 LINE",
"937 74 OFFCURVE",
"889 57 OFFCURVE",
"839 57 CURVE SMOOTH",
"767 57 OFFCURVE",
"722 112 OFFCURVE",
"722 202 CURVE",
"878 200 OFFCURVE",
"1028 265 OFFCURVE",
"1028 397 CURVE SMOOTH",
"1028 473 OFFCURVE",
"969 503 OFFCURVE",
"900 503 CURVE SMOOTH"
);
},
{
closed = 1;
nodes = (
"944 308 OFFCURVE",
"831 260 OFFCURVE",
"727 260 CURVE",
"734 335 OFFCURVE",
"804 441 OFFCURVE",
"887 441 CURVE SMOOTH",
"920 441 OFFCURVE",
"944 424 OFFCURVE",
"944 390 CURVE SMOOTH"
);
},
{
closed = 1;
nodes = (
"378 -13 OFFCURVE",
"463 145 OFFCURVE",
"463 286 CURVE SMOOTH",
"463 400 OFFCURVE",
"409 503 OFFCURVE",
"283 503 CURVE SMOOTH",
"121 503 OFFCURVE",
"36 345 OFFCURVE",
"36 204 CURVE SMOOTH",
"36 90 OFFCURVE",
"90 -13 OFFCURVE",
"216 -13 CURVE SMOOTH"
);
},
{
closed = 1;
nodes = (
"149 49 OFFCURVE",
"119 125 OFFCURVE",
"119 209 CURVE SMOOTH",
"119 318 OFFCURVE",
"171 441 OFFCURVE",
"276 441 CURVE SMOOTH",
"350 441 OFFCURVE",
"380 365 OFFCURVE",
"380 281 CURVE SMOOTH",
"380 172 OFFCURVE",
"328 49 OFFCURVE",
"223 49 CURVE SMOOTH"
);
}
);
};
guideLines = (
{
angle = 90;
position = "{119, 360}";
},
{
angle = 90;
position = "{36, 360}";
},
{
position = "{462, 57}";
}
);
layerId = "C7717117-F750-4912-BA39-B64C3F969EBE";
paths = (
{
closed = 1;
nodes = (
"123 503 OFFCURVE",
"36 348 OFFCURVE",
"36 207 CURVE SMOOTH",
"36 87 OFFCURVE",
"93 -13 OFFCURVE",
"234 -13 CURVE SMOOTH",
"293 -13 OFFCURVE",
"359 9 OFFCURVE",
"407 43 CURVE",
"381 92 LINE",
"332 69 OFFCURVE",
"286 57 OFFCURVE",
"247 57 CURVE SMOOTH",
"170 57 OFFCURVE",
"119 105 OFFCURVE",
"119 213 CURVE SMOOTH",
"119 320 OFFCURVE",
"175 441 OFFCURVE",
"282 441 CURVE SMOOTH",
"315 441 OFFCURVE",
"344 424 OFFCURVE",
"344 390 CURVE SMOOTH",
"344 306 OFFCURVE",
"214 249 OFFCURVE",
"107 261 CURVE",
"107 202 LINE",
"289 197 OFFCURVE",
"428 271 OFFCURVE",
"428 397 CURVE SMOOTH",
"428 473 OFFCURVE",
"361 503 OFFCURVE",
"292 503 CURVE SMOOTH"
);
}
);
width = 454;
},
{
anchors = (
{
name = bottom;
position = "{222, 0}";
},
{
name = ogonek;
position = "{280, 0}";
},
{
name = top;
position = "{287, 497}";
}
);
background = {
hints = (
{
horizontal = 1;
place = "{-12, 80}";
type = Stem;
},
{
horizontal = 1;
place = "{428, 82}";
type = Stem;
},
{
place = "{21, 125}";
type = Stem;
},
{
place = "{362, 125}";
type = Stem;
}
);
paths = (
{
closed = 1;
nodes = (
"719 510 OFFCURVE",
"621 336 OFFCURVE",
"621 201 CURVE SMOOTH",
"621 66 OFFCURVE",
"716 -12 OFFCURVE",
"838 -12 CURVE SMOOTH",
"960 -12 OFFCURVE",
"1036 54 OFFCURVE",
"1036 54 CURVE",
"994 137 LINE",
"960 111 OFFCURVE",
"905 76 OFFCURVE",
"850 76 CURVE SMOOTH",
"798 76 OFFCURVE",
"753 114 OFFCURVE",
"748 194 CURVE",
"988 196 OFFCURVE",
"1052 317 OFFCURVE",
"1052 394 CURVE SMOOTH",
"1052 472 OFFCURVE",
"985 510 OFFCURVE",
"899 510 CURVE SMOOTH"
);
},
{
closed = 1;
nodes = (
"929 332 OFFCURVE",
"861 282 OFFCURVE",
"755 279 CURVE",
"779 390 OFFCURVE",
"859 426 OFFCURVE",
"890 426 CURVE SMOOTH",
"916 426 OFFCURVE",
"929 412 OFFCURVE",
"929 392 CURVE SMOOTH"
);
},
{
closed = 1;
nodes = (
"381 -12 OFFCURVE",
"475 152 OFFCURVE",
"475 297 CURVE SMOOTH",
"475 409 OFFCURVE",
"420 510 OFFCURVE",
"283 510 CURVE SMOOTH",
"115 510 OFFCURVE",
"21 346 OFFCURVE",
"21 201 CURVE SMOOTH",
"21 89 OFFCURVE",
"76 -12 OFFCURVE",
"213 -12 CURVE SMOOTH"
);
},
{
closed = 1;
nodes = (
"159 69 OFFCURVE",
"138 129 OFFCURVE",
"138 200 CURVE SMOOTH",
"138 308 OFFCURVE",
"184 429 OFFCURVE",
"272 429 CURVE SMOOTH",
"337 429 OFFCURVE",
"358 369 OFFCURVE",
"358 298 CURVE SMOOTH",
"358 190 OFFCURVE",
"312 69 OFFCURVE",
"224 69 CURVE SMOOTH"
);
}
);
};
guideLines = (
{
angle = 90;
position = "{138, 418}";
},
{
angle = 90;
position = "{21, 418}";
},
{
position = "{418, 76}";
}
);
layerId = "38588886-3B3E-4A1D-B58B-01CA69B4ACA2";
paths = (
{
closed = 1;
nodes = (
"122 510 OFFCURVE",
"21 356 OFFCURVE",
"21 204 CURVE SMOOTH",
"21 85 OFFCURVE",
"82 -12 OFFCURVE",
"238 -12 CURVE SMOOTH",
"360 -12 OFFCURVE",
"436 54 OFFCURVE",
"436 54 CURVE",
"401 122 LINE",
"347 93 OFFCURVE",
"296 76 OFFCURVE",
"253 76 CURVE SMOOTH",
"184 76 OFFCURVE",
"138 120 OFFCURVE",
"138 221 CURVE SMOOTH",
"138 321 OFFCURVE",
"189 426 OFFCURVE",
"285 426 CURVE SMOOTH",
"314 426 OFFCURVE",
"329 410 OFFCURVE",
"329 387 CURVE SMOOTH",
"329 338 OFFCURVE",
"270 277 OFFCURVE",
"125 277 CURVE",
"125 194 LINE",
"390 188 OFFCURVE",
"452 317 OFFCURVE",
"452 384 CURVE SMOOTH",
"452 471 OFFCURVE",
"380 510 OFFCURVE",
"294 510 CURVE SMOOTH"
);
}
);
width = 466;
}
);
leftKerningGroup = c;
leftMetricsKey = o;
note = e;
unicode = 0065;
},
{
glyphname = schwa;
layers = (
{
layerId = "C7717117-F750-4912-BA39-B64C3F969EBE";
paths = (
{
closed = 1;
nodes = (
"327 -13 OFFCURVE",
"427 148 OFFCURVE",
"427 298 CURVE SMOOTH",
"427 418 OFFCURVE",
"352 503 OFFCURVE",
"230 503 CURVE SMOOTH",
"171 503 OFFCURVE",
"105 481 OFFCURVE",
"57 447 CURVE",
"86 388 LINE",
"127 416 OFFCURVE",
"175 433 OFFCURVE",
"225 433 CURVE SMOOTH",
"297 433 OFFCURVE",
"342 378 OFFCURVE",
"342 288 CURVE",
"186 290 OFFCURVE",
"36 225 OFFCURVE",
"36 93 CURVE SMOOTH",
"36 17 OFFCURVE",
"95 -13 OFFCURVE",
"164 -13 CURVE SMOOTH"
);
},
{
closed = 1;
nodes = (
"120 182 OFFCURVE",
"233 230 OFFCURVE",
"337 230 CURVE",
"330 155 OFFCURVE",
"260 49 OFFCURVE",
"177 49 CURVE SMOOTH",
"144 49 OFFCURVE",
"120 66 OFFCURVE",
"120 100 CURVE SMOOTH"
);
}
);
width = 464;
},
{
layerId = "38588886-3B3E-4A1D-B58B-01CA69B4ACA2";
paths = (
{
closed = 1;
nodes = (
"343 -13 OFFCURVE",
"441 161 OFFCURVE",
"441 296 CURVE SMOOTH",
"441 431 OFFCURVE",
"346 509 OFFCURVE",
"224 509 CURVE SMOOTH",
"102 509 OFFCURVE",
"26 443 OFFCURVE",
"26 443 CURVE",
"68 360 LINE",
"102 386 OFFCURVE",
"157 421 OFFCURVE",
"212 421 CURVE SMOOTH",
"264 421 OFFCURVE",
"309 383 OFFCURVE",
"314 303 CURVE",
"74 301 OFFCURVE",
"10 180 OFFCURVE",
"10 103 CURVE SMOOTH",
"10 25 OFFCURVE",
"77 -13 OFFCURVE",
"163 -13 CURVE SMOOTH"
);
},
{
closed = 1;
nodes = (
"133 165 OFFCURVE",
"201 215 OFFCURVE",
"307 218 CURVE",
"283 107 OFFCURVE",
"203 71 OFFCURVE",
"172 71 CURVE SMOOTH",
"146 71 OFFCURVE",
"133 85 OFFCURVE",
"133 105 CURVE SMOOTH"
);
}
);
width = 462;
}
);
unicode = 0259;
},
{
glyphname = f;
layers = (
{
layerId = "C7717117-F750-4912-BA39-B64C3F969EBE";
paths = (
{
closed = 1;
nodes = (
"-107 -222 LINE",
"13 -254 OFFCURVE",
"103 -197 OFFCURVE",
"122 -61 CURVE SMOOTH",
"189 427 LINE",
"301 427 LINE",
"309 490 LINE",
"197 490 LINE",
"209 593 OFFCURVE",
"229 707 OFFCURVE",
"343 707 CURVE SMOOTH",
"371 707 OFFCURVE",
"397 694 OFFCURVE",
"418 672 CURVE",
"457 731 LINE",
"425 753 OFFCURVE",
"391 770 OFFCURVE",
"337 770 CURVE SMOOTH",
"195 770 OFFCURVE",
"151 659 OFFCURVE",
"120 532 CURVE SMOOTH",
"109 488 OFFCURVE",
"70 490 OFFCURVE",
"46 490 CURVE",
"38 427 LINE",
"109 427 LINE",
"44 -52 LINE SMOOTH",
"33 -138 OFFCURVE",
"-9 -182 OFFCURVE",
"-93 -164 CURVE"
);
}
);
width = 269;
},
{
background = {
paths = (
{
closed = 1;
nodes = (
"182 776 OFFCURVE",
"127 650 OFFCURVE",
"107 497 CURVE",
"28 497 LINE",
"18 414 LINE",
"97 414 LINE",
"36 -35 LINE SMOOTH",
"29 -85 OFFCURVE",
"12 -151 OFFCURVE",
"-49 -151 CURVE SMOOTH",
"-71 -151 OFFCURVE",
"-106 -135 OFFCURVE",
"-122 -120 CURVE",
"-170 -186 LINE",
"-142 -219 OFFCURVE",
"-73 -230 OFFCURVE",
"-33 -230 CURVE SMOOTH",
"84 -230 OFFCURVE",
"134 -155 OFFCURVE",
"149 -47 CURVE SMOOTH",
"211 414 LINE",
"329 414 LINE",
"340 497 LINE",
"222 497 LINE",
"232 567 OFFCURVE",
"262 694 OFFCURVE",
"354 694 CURVE SMOOTH",
"397 694 OFFCURVE",
"421 682 OFFCURVE",
"452 654 CURVE",
"501 733 LINE",
"463 759 OFFCURVE",
"403 776 OFFCURVE",
"357 776 CURVE SMOOTH"
);
}
);
};
layerId = "38588886-3B3E-4A1D-B58B-01CA69B4ACA2";
paths = (
{
closed = 1;
nodes = (
"-120 -216 LINE",
"22 -260 OFFCURVE",
"127 -204 OFFCURVE",
"149 -47 CURVE SMOOTH",
"211 414 LINE",
"329 414 LINE",
"340 497 LINE",
"222 497 LINE",
"232 567 OFFCURVE",
"257 694 OFFCURVE",
"344 694 CURVE SMOOTH",
"387 694 OFFCURVE",
"411 682 OFFCURVE",
"442 654 CURVE",
"491 733 LINE",
"453 759 OFFCURVE",
"393 776 OFFCURVE",
"347 776 CURVE SMOOTH",
"185 776 OFFCURVE",
"152 660 OFFCURVE",
"117 545 CURVE SMOOTH",
"102 497 OFFCURVE",
"62 497 OFFCURVE",
"28 497 CURVE",
"18 414 LINE",
"97 414 LINE",
"36 -35 LINE SMOOTH",
"24 -121 OFFCURVE",
"-10 -174 OFFCURVE",
"-104 -149 CURVE"
);
}
);
width = 299;
}
);
leftKerningGroup = f;
note = f;
rightKerningGroup = f;
unicode = 0066;
},
{
glyphname = g;
layers = (
{
anchors = (
{
name = top;
position = "{287, 490}";
}
);
background = {
hints = (
{
horizontal = 1;
place = "{-11, 21}";
target = up;
type = BottomGhost;
},
{
horizontal = 1;
place = "{441, 62}";
type = Stem;
},
{
place = "{37, 93}";
type = Stem;
},
{
place = "{346, 70}";
type = Stem;
},
{
horizontal = 1;
place = "{495, -20}";
target = down;
type = TopGhost;
},
{
horizontal = 1;
place = "{-13, 62}";
type = Stem;
},
{
horizontal = 1;
place = "{-11, 21}";
target = up;
type = BottomGhost;
},
{
horizontal = 1;
place = "{441, 62}";
type = Stem;
},
{
place = "{37, 93}";
type = Stem;
},
{
place = "{346, 70}";
type = Stem;
},
{
horizontal = 1;
place = "{495, -20}";
target = down;
type = TopGhost;
},
{
horizontal = 1;
place = "{-13, 62}";
type = Stem;
}
);
paths = (
{
closed = 1;
nodes = (
"299 31 OFFCURVE",
"310 42 OFFCURVE",
"310 57 CURVE SMOOTH",
"310 71 OFFCURVE",
"299 82 OFFCURVE",
"285 82 CURVE SMOOTH",
"270 82 OFFCURVE",
"259 71 OFFCURVE",
"259 57 CURVE SMOOTH",
"259 42 OFFCURVE",
"270 31 OFFCURVE",
"285 31 CURVE SMOOTH"
);
},
{
closed = 1;
nodes = (
"116 503 OFFCURVE",
"22 328 OFFCURVE",
"22 182 CURVE SMOOTH",
"22 60 OFFCURVE",
"82 -13 OFFCURVE",
"173 -13 CURVE SMOOTH",
"230 -13 OFFCURVE",
"284 15 OFFCURVE",
"320 75 CURVE",
"323 74 LINE",
"304 -29 OFFCURVE",
"263 -168 OFFCURVE",
"143 -168 CURVE SMOOTH",
"111 -168 OFFCURVE",
"71 -148 OFFCURVE",
"43 -122 CURVE",
"2 -185 LINE",
"54 -216 OFFCURVE",
"96 -230 OFFCURVE",
"152 -230 CURVE SMOOTH",
"335 -230 OFFCURVE",
"383 -52 OFFCURVE",
"403 93 CURVE SMOOTH",
"461 512 LINE",
"387 481 LINE",
"359 494 OFFCURVE",
"329 503 OFFCURVE",
"295 503 CURVE SMOOTH"
);
},
{
closed = 1;
nodes = (
"322 441 OFFCURVE",
"347 435 OFFCURVE",
"370 422 CURVE",
"354 315 LINE SMOOTH",
"325 121 OFFCURVE",
"265 49 OFFCURVE",
"192 49 CURVE SMOOTH",
"132 49 OFFCURVE",
"115 113 OFFCURVE",
"115 190 CURVE SMOOTH",
"115 302 OFFCURVE",
"173 441 OFFCURVE",
"297 441 CURVE SMOOTH"
);
}
);
};
layerId = "C7717117-F750-4912-BA39-B64C3F969EBE";
paths = (
{
closed = 1;
nodes = (
"371 419 LINE",
"356 307 LINE SMOOTH",
"339 177 OFFCURVE",
"291 51 OFFCURVE",
"203 51 CURVE SMOOTH",
"143 51 OFFCURVE",
"118 116 OFFCURVE",
"118 194 CURVE SMOOTH",
"118 309 OFFCURVE",
"164 441 OFFCURVE",
"288 441 CURVE SMOOTH",
"329 441 OFFCURVE",
"366 425 OFFCURVE",
"407 389 CURVE",
"407 448 LINE",
"371 489 OFFCURVE",
"327 503 OFFCURVE",
"286 503 CURVE SMOOTH",
"116 503 OFFCURVE",
"35 342 OFFCURVE",
"35 193 CURVE SMOOTH",
"35 81 OFFCURVE",
"79 -13 OFFCURVE",
"187 -13 CURVE SMOOTH",
"241 -13 OFFCURVE",
"291 18 OFFCURVE",
"314 52 CURVE",
"318 52 LINE",
"309 -7 LINE SMOOTH",
"296 -95 OFFCURVE",
"257 -165 OFFCURVE",
"148 -165 CURVE SMOOTH",
"119 -165 OFFCURVE",
"76 -145 OFFCURVE",
"48 -115 CURVE",
"7 -185 LINE",
"22 -196 OFFCURVE",
"83 -230 OFFCURVE",
"157 -230 CURVE SMOOTH",
"334 -230 OFFCURVE",
"376 -97 OFFCURVE",
"393 21 CURVE SMOOTH",
"462 495 LINE",
"418 495 LINE"
);
}
);
width = 486;
},
{
anchors = (
{
name = top;
position = "{286, 497}";
}
);
background = {
guideLines = (
{
angle = 81.8183;
position = "{341, 282}";
}
);
hints = (
{
horizontal = 1;
place = "{-12, 83}";
type = Stem;
},
{
horizontal = 1;
place = "{427, 82}";
type = Stem;
},
{
place = "{38, 121}";
type = Stem;
},
{
horizontal = 1;
place = "{-9, 82}";
type = Stem;
},
{
horizontal = 1;
place = "{500, -20}";
target = down;
type = TopGhost;
}
);
paths = (
{
closed = 1;
nodes = (
"289 17 OFFCURVE",
"305 33 OFFCURVE",
"305 53 CURVE SMOOTH",
"305 72 OFFCURVE",
"289 88 OFFCURVE",
"270 88 CURVE SMOOTH",
"250 88 OFFCURVE",
"234 72 OFFCURVE",
"234 53 CURVE SMOOTH",
"234 33 OFFCURVE",
"250 17 OFFCURVE",
"270 17 CURVE SMOOTH"
);
},
{
closed = 1;
nodes = (
"99 510 OFFCURVE",
"5 349 OFFCURVE",
"5 197 CURVE SMOOTH",
"5 89 OFFCURVE",
"56 -12 OFFCURVE",
"176 -12 CURVE SMOOTH",
"218 -12 OFFCURVE",
"264 1 OFFCURVE",
"302 38 CURVE",
"306 38 LINE",
"300 -4 OFFCURVE",
"250 -150 OFFCURVE",
"148 -150 CURVE SMOOTH",
"95 -150 OFFCURVE",
"40 -102 OFFCURVE",
"34 -93 CURVE",
"-22 -174 LINE",
"-4 -189 OFFCURVE",
"57 -230 OFFCURVE",
"154 -230 CURVE SMOOTH",
"313 -230 OFFCURVE",
"399 -104 OFFCURVE",
"422 66 CURVE SMOOTH",
"483 521 LINE",
"385 490 LINE",
"360 501 OFFCURVE",
"316 510 OFFCURVE",
"283 510 CURVE SMOOTH"
);
},
{
closed = 1;
nodes = (
"307 426 OFFCURVE",
"330 416 OFFCURVE",
"355 404 CURVE",
"350 366 LINE SMOOTH",
"332 230 OFFCURVE",
"299 71 OFFCURVE",
"200 71 CURVE SMOOTH",
"141 71 OFFCURVE",
"127 129 OFFCURVE",
"127 200 CURVE SMOOTH",
"127 271 OFFCURVE",
"164 426 OFFCURVE",
"276 426 CURVE SMOOTH"
);
}
);
};
layerId = "38588886-3B3E-4A1D-B58B-01CA69B4ACA2";
paths = (
{
closed = 1;
nodes = (
"359 407 LINE",
"348 334 LINE SMOOTH",
"328 204 OFFCURVE",
"294 70 OFFCURVE",
"209 70 CURVE SMOOTH",
"157 70 OFFCURVE",
"138 132 OFFCURVE",
"138 204 CURVE SMOOTH",
"138 340 OFFCURVE",
"195 427 OFFCURVE",
"280 427 CURVE SMOOTH",
"320 427 OFFCURVE",
"360 407 OFFCURVE",
"406 365 CURVE",
"406 450 LINE",
"370 494 OFFCURVE",
"309 509 OFFCURVE",
"274 509 CURVE SMOOTH",
"104 509 OFFCURVE",
"21 347 OFFCURVE",
"21 201 CURVE SMOOTH",
"21 87 OFFCURVE",
"69 -12 OFFCURVE",
"186 -12 CURVE SMOOTH",
"229 -12 OFFCURVE",
"271 4 OFFCURVE",
"301 33 CURVE",
"305 33 LINE",
"298 -8 LINE SMOOTH",
"285 -87 OFFCURVE",
"259 -140 OFFCURVE",
"163 -140 CURVE SMOOTH",
"106 -140 OFFCURVE",
"70 -108 OFFCURVE",
"49 -83 CURVE",
"-12 -174 LINE",
"16 -200 OFFCURVE",
"78 -230 OFFCURVE",
"163 -230 CURVE SMOOTH",
"353 -230 OFFCURVE",
"400 -85 OFFCURVE",
"418 40 CURVE SMOOTH",
"484 500 LINE",
"421 500 LINE"
);
}
);
width = 491;
}
);
leftKerningGroup = g;
leftMetricsKey = o;
note = g;
unicode = 0067;
},
{
glyphname = h;
layers = (
{
anchors = (
{
name = bottom;
position = "{213, 0}";
},
{
name = center;
position = "{210, 607}";
},
{
name = top;
position = "{172, 724}";
}
);
layerId = "C7717117-F750-4912-BA39-B64C3F969EBE";
paths = (
{
closed = 1;
nodes = (
"130 764 LINE",
"130 707 LINE",
"35 0 LINE",
"115 0 LINE",
"164 362 LINE",
"179 375 OFFCURVE",
"243 431 OFFCURVE",
"302 431 CURVE SMOOTH",
"354 431 OFFCURVE",
"366 395 OFFCURVE",
"366 354 CURVE SMOOTH",
"366 337 OFFCURVE",
"364 318 OFFCURVE",
"362 302 CURVE SMOOTH",
"322 0 LINE",
"413 0 LINE",
"411 58 LINE",
"446 328 LINE SMOOTH",
"448 344 OFFCURVE",
"449 359 OFFCURVE",
"449 373 CURVE SMOOTH",
"449 471 OFFCURVE",
"395 503 OFFCURVE",
"323 503 CURVE SMOOTH",
"263 503 OFFCURVE",
"210 467 OFFCURVE",
"172 433 CURVE",
"218 764 LINE"
);
}
);
width = 492;
},
{
anchors = (
{
name = bottom;
position = "{223, 0}";
},
{
name = center;
position = "{210, 607}";
},
{
name = top;
position = "{176, 732}";
}
);
layerId = "38588886-3B3E-4A1D-B58B-01CA69B4ACA2";
paths = (
{
closed = 1;
nodes = (
"118 769 LINE",
"122 715 LINE",
"27 0 LINE",
"141 0 LINE",
"189 357 LINE",
"210 378 OFFCURVE",
"268 414 OFFCURVE",
"299 414 CURVE SMOOTH",
"336 414 OFFCURVE",
"349 395 OFFCURVE",
"349 360 CURVE SMOOTH",
"349 348 OFFCURVE",
"348 336 OFFCURVE",
"346 324 CURVE SMOOTH",
"302 0 LINE",
"428 0 LINE",
"425 54 LINE",
"463 336 LINE SMOOTH",
"465 352 OFFCURVE",
"466 370 OFFCURVE",
"466 387 CURVE SMOOTH",
"466 469 OFFCURVE",
"429 511 OFFCURVE",
"345 511 CURVE SMOOTH",
"294 511 OFFCURVE",
"241 483 OFFCURVE",
"200 451 CURVE",
"244 769 LINE"
);
}
);
width = 491;
}
);
leftKerningGroup = b;
note = h;
rightKerningGroup = h;
unicode = 0068;
},
{
glyphname = i;
layers = (
{
anchors = (
{
name = bottom;
position = "{96, 0}";
},
{
name = ogonek;
position = "{82, 0}";
}
);
layerId = "C7717117-F750-4912-BA39-B64C3F969EBE";
paths = (
{
closed = 1;
nodes = (
"227 695 OFFCURVE",
"206 719 OFFCURVE",
"176 719 CURVE SMOOTH",
"140 719 OFFCURVE",
"110 685 OFFCURVE",
"110 652 CURVE SMOOTH",
"110 624 OFFCURVE",
"131 602 OFFCURVE",
"161 602 CURVE SMOOTH",
"197 602 OFFCURVE",
"227 634 OFFCURVE",
"227 668 CURVE SMOOTH"
);
},
{
closed = 1;
nodes = (
"98 490 LINE",
"98 433 LINE",
"40 0 LINE",
"128 0 LINE",
"128 58 LINE",
"186 490 LINE"
);
}
);
width = 227;
},
{
anchors = (
{
name = bottom;
position = "{105, 0}";
},
{
name = ogonek;
position = "{91, 0}";
}
);
layerId = "38588886-3B3E-4A1D-B58B-01CA69B4ACA2";
paths = (
{
closed = 1;
nodes = (
"248 725 OFFCURVE",
"223 754 OFFCURVE",
"186 754 CURVE SMOOTH",
"140 754 OFFCURVE",
"102 712 OFFCURVE",
"102 667 CURVE SMOOTH",
"102 631 OFFCURVE",
"128 601 OFFCURVE",
"165 601 CURVE SMOOTH",
"211 601 OFFCURVE",
"248 645 OFFCURVE",
"248 689 CURVE SMOOTH"
);
},
{
closed = 1;
nodes = (
"83 497 LINE",
"86 443 LINE",
"27 0 LINE",
"151 0 LINE",
"148 55 LINE",
"207 497 LINE"
);
}
);
width = 228;
}
);
leftKerningGroup = i;
note = i;
rightKerningGroup = i;
unicode = 0069;
},
{
glyphname = idotless;
layers = (
{
anchors = (
{
name = bottom;
position = "{84, 0}";
},
{
name = top;
position = "{143, 490}";
}
);
layerId = "C7717117-F750-4912-BA39-B64C3F969EBE";
paths = (
{
closed = 1;
nodes = (
"128 58 LINE",
"186 490 LINE",
"98 490 LINE",
"98 433 LINE",
"40 0 LINE",
"128 0 LINE"
);
}
);
width = 227;
},
{
anchors = (
{
name = bottom;
position = "{88, 0}";
},
{
name = top;
position = "{147, 497}";
}
);
layerId = "38588886-3B3E-4A1D-B58B-01CA69B4ACA2";
paths = (
{
closed = 1;
nodes = (
"148 55 LINE",
"207 497 LINE",
"83 497 LINE",
"86 443 LINE",
"27 0 LINE",
"151 0 LINE"
);
}
);
width = 228;
}
);
leftKerningGroup = i;
note = dotlessi;
rightKerningGroup = i;
unicode = 0131;
},
{
glyphname = iogonek;
layers = (
{
layerId = "C7717117-F750-4912-BA39-B64C3F969EBE";
paths = (
{
closed = 1;
nodes = (
"227 695 OFFCURVE",
"206 719 OFFCURVE",
"176 719 CURVE SMOOTH",
"140 719 OFFCURVE",
"110 685 OFFCURVE",
"110 652 CURVE SMOOTH",
"110 624 OFFCURVE",
"131 602 OFFCURVE",
"161 602 CURVE SMOOTH",
"197 602 OFFCURVE",
"227 634 OFFCURVE",
"227 668 CURVE SMOOTH"
);
},
{
closed = 1;
nodes = (
"98 490 LINE",
"98 433 LINE",
"40 0 LINE",
"128 0 LINE",
"128 58 LINE",
"186 490 LINE"
);
},
{
closed = 1;
nodes = (
"116 28 LINE",
"45 11 OFFCURVE",
"-82 -51 OFFCURVE",
"-82 -132 CURVE SMOOTH",
"-82 -171 OFFCURVE",
"-56 -201 OFFCURVE",
"-1 -201 CURVE SMOOTH",
"59 -201 OFFCURVE",
"110 -167 OFFCURVE",
"133 -151 CURVE",
"122 -114 LINE",
"95 -129 OFFCURVE",
"62 -146 OFFCURVE",
"41 -146 CURVE SMOOTH",
"14 -146 OFFCURVE",
"0 -133 OFFCURVE",
"0 -111 CURVE SMOOTH",
"0 -56 OFFCURVE",
"77 -16 OFFCURVE",
"122 5 CURVE"
);
}
);
width = 227;
},
{
layerId = "38588886-3B3E-4A1D-B58B-01CA69B4ACA2";
paths = (
{
closed = 1;
nodes = (
"248 725 OFFCURVE",
"223 754 OFFCURVE",
"186 754 CURVE SMOOTH",
"140 754 OFFCURVE",
"102 712 OFFCURVE",
"102 667 CURVE SMOOTH",
"102 631 OFFCURVE",
"128 601 OFFCURVE",
"165 601 CURVE SMOOTH",
"211 601 OFFCURVE",
"248 645 OFFCURVE",
"248 689 CURVE SMOOTH"
);
},
{
closed = 1;
nodes = (
"83 497 LINE",
"86 443 LINE",
"27 0 LINE",
"151 0 LINE",
"148 55 LINE",
"207 497 LINE"
);
},
{
closed = 1;
nodes = (
"126 33 LINE",
"50 21 OFFCURVE",
"-91 -42 OFFCURVE",
"-91 -134 CURVE SMOOTH",
"-91 -188 OFFCURVE",
"-48 -211 OFFCURVE",
"1 -211 CURVE SMOOTH",
"56 -211 OFFCURVE",
"108 -185 OFFCURVE",
"151 -154 CURVE",
"135 -104 LINE",
"113 -118 OFFCURVE",
"73 -140 OFFCURVE",
"47 -140 CURVE SMOOTH",
"27 -140 OFFCURVE",
"10 -132 OFFCURVE",
"10 -109 CURVE SMOOTH",
"10 -59 OFFCURVE",
"84 -16 OFFCURVE",
"137 6 CURVE"
);
}
);
width = 228;
}
);
unicode = 012F;
},
{
glyphname = j;
layers = (
{
background = {
paths = (
{
closed = 1;
nodes = (
"102 490 LINE",
"102 433 LINE",
"35 -52 LINE SMOOTH",
"24 -135 OFFCURVE",
"-10 -166 OFFCURVE",
"-54 -166 CURVE SMOOTH",
"-88 -166 OFFCURVE",
"-106 -155 OFFCURVE",
"-124 -141 CURVE",
"-164 -198 LINE",
"-135 -216 OFFCURVE",
"-106 -230 OFFCURVE",
"-51 -230 CURVE SMOOTH",
"39 -230 OFFCURVE",
"98 -178 OFFCURVE",
"114 -61 CURVE SMOOTH",
"189 490 LINE"
);
}
);
};
layerId = "C7717117-F750-4912-BA39-B64C3F969EBE";
paths = (
{
closed = 1;
nodes = (
"229 696 OFFCURVE",
"208 718 OFFCURVE",
"177 718 CURVE SMOOTH",
"141 718 OFFCURVE",
"112 686 OFFCURVE",
"112 652 CURVE SMOOTH",
"112 625 OFFCURVE",
"132 601 OFFCURVE",
"163 601 CURVE SMOOTH",
"199 601 OFFCURVE",
"229 634 OFFCURVE",
"229 668 CURVE SMOOTH"
);
},
{
closed = 1;
nodes = (
"102 490 LINE",
"102 433 LINE",
"44 13 LINE SMOOTH",
"34 -59 OFFCURVE",
"22 -140 OFFCURVE",
"-64 -178 CURVE",
"-53 -228 LINE",
"73 -211 OFFCURVE",
"111 -77 OFFCURVE",
"125 25 CURVE SMOOTH",
"189 490 LINE"
);
}
);
width = 229;
},
{
background = {
paths = (
{
closed = 1;
nodes = (
"248 725 OFFCURVE",
"222 754 OFFCURVE",
"185 754 CURVE SMOOTH",
"140 754 OFFCURVE",
"101 712 OFFCURVE",
"101 667 CURVE SMOOTH",
"101 632 OFFCURVE",
"128 601 OFFCURVE",
"165 601 CURVE SMOOTH",
"210 601 OFFCURVE",
"248 644 OFFCURVE",
"248 689 CURVE SMOOTH"
);
},
{
closed = 1;
nodes = (
"83 497 LINE",
"87 444 LINE",
"29 15 LINE SMOOTH",
"22 -36 OFFCURVE",
"7 -150 OFFCURVE",
"-63 -150 CURVE SMOOTH",
"-94 -150 OFFCURVE",
"-132 -134 OFFCURVE",
"-150 -108 CURVE",
"-205 -188 LINE",
"-164 -213 OFFCURVE",
"-104 -230 OFFCURVE",
"-57 -230 CURVE SMOOTH",
"106 -230 OFFCURVE",
"128 -96 OFFCURVE",
"146 34 CURVE SMOOTH",
"209 497 LINE"
);
}
);
};
layerId = "38588886-3B3E-4A1D-B58B-01CA69B4ACA2";
paths = (
{
closed = 1;
nodes = (
"248 725 OFFCURVE",
"222 754 OFFCURVE",
"185 754 CURVE SMOOTH",
"140 754 OFFCURVE",
"101 712 OFFCURVE",
"101 667 CURVE SMOOTH",
"101 632 OFFCURVE",
"128 601 OFFCURVE",
"165 601 CURVE SMOOTH",
"210 601 OFFCURVE",
"248 644 OFFCURVE",
"248 689 CURVE SMOOTH"
);
},
{
closed = 1;
nodes = (
"83 497 LINE",
"87 444 LINE",
"32 39 LINE SMOOTH",
"22 -37 OFFCURVE",
"1 -128 OFFCURVE",
"-81 -169 CURVE",
"-67 -224 LINE",
"91 -206 OFFCURVE",
"132 -64 OFFCURVE",
"150 65 CURVE SMOOTH",
"209 497 LINE"
);
}
);
width = 228;
}
);
leftKerningGroup = i;
note = j;
rightKerningGroup = i;
unicode = 006A;
},
{
glyphname = jdotless;
layers = (
{
anchors = (
{
name = top;
position = "{145, 490}";
}
);
layerId = "C7717117-F750-4912-BA39-B64C3F969EBE";
paths = (
{
closed = 1;
nodes = (
"102 490 LINE",
"102 433 LINE",
"44 13 LINE SMOOTH",
"34 -59 OFFCURVE",
"17 -150 OFFCURVE",
"-61 -188 CURVE",
"-53 -228 LINE",
"73 -211 OFFCURVE",
"111 -77 OFFCURVE",
"125 25 CURVE SMOOTH",
"189 490 LINE"
);
}
);
width = 229;
},
{
anchors = (
{
name = top;
position = "{147, 497}";
}
);
layerId = "38588886-3B3E-4A1D-B58B-01CA69B4ACA2";
paths = (
{
closed = 1;
nodes = (
"83 497 LINE",
"87 444 LINE",
"32 39 LINE SMOOTH",
"22 -37 OFFCURVE",
"1 -128 OFFCURVE",
"-81 -169 CURVE",
"-67 -224 LINE",
"91 -206 OFFCURVE",
"132 -64 OFFCURVE",
"150 65 CURVE SMOOTH",
"209 497 LINE"
);
}
);
width = 228;
}
);
unicode = 0237;
},
{
glyphname = k;
layers = (
{
anchors = (
{
name = bottom;
position = "{210, 0}";
}
);
background = {
hints = (
{
horizontal = 1;
place = "{0, 21}";
target = up;
type = BottomGhost;
},
{
horizontal = 1;
place = "{431, 72}";
type = Stem;
},
{
horizontal = 1;
place = "{764, -20}";
target = down;
type = TopGhost;
},
{
place = "{370, 83}";
type = Stem;
},
{
horizontal = 1;
place = "{0, 21}";
target = up;
type = BottomGhost;
},
{
horizontal = 1;
place = "{431, 72}";
type = Stem;
},
{
place = "{373, 81}";
type = Stem;
}
);
paths = (
{
closed = 1;
nodes = (
"76 490 LINE",
"76 490 OFFCURVE",
"92 461 OFFCURVE",
"92 402 CURVE SMOOTH",
"92 387 OFFCURVE",
"91 369 OFFCURVE",
"88 350 CURVE SMOOTH",
"41 0 LINE",
"121 0 LINE",
"170 362 LINE",
"185 375 OFFCURVE",
"249 431 OFFCURVE",
"308 431 CURVE SMOOTH",
"361 431 OFFCURVE",
"373 396 OFFCURVE",
"373 357 CURVE SMOOTH",
"373 339 OFFCURVE",
"370 320 OFFCURVE",
"368 303 CURVE SMOOTH",
"327 0 LINE",
"415 0 LINE",
"415 58 LINE",
"451 329 LINE SMOOTH",
"453 345 OFFCURVE",
"454 360 OFFCURVE",
"454 373 CURVE SMOOTH",
"454 480 OFFCURVE",
"390 503 OFFCURVE",
"330 503 CURVE SMOOTH",
"265 503 OFFCURVE",
"212 463 OFFCURVE",
"173 429 CURVE",
"172 458 OFFCURVE",
"167 490 OFFCURVE",
"164 500 CURVE"
);
},
{
closed = 1;
nodes = (
"314 226 OFFCURVE",
"325 237 OFFCURVE",
"325 252 CURVE SMOOTH",
"325 266 OFFCURVE",
"314 277 OFFCURVE",
"300 277 CURVE SMOOTH",
"285 277 OFFCURVE",
"274 266 OFFCURVE",
"274 252 CURVE SMOOTH",
"274 237 OFFCURVE",
"285 226 OFFCURVE",
"300 226 CURVE SMOOTH"
);
}
);
};
layerId = "C7717117-F750-4912-BA39-B64C3F969EBE";
paths = (
{
closed = 1;
nodes = (
"267 503 OFFCURVE",
"200 460 OFFCURVE",
"158 414 CURVE",
"158 350 LINE",
"209 401 OFFCURVE",
"267 431 OFFCURVE",
"308 431 CURVE SMOOTH",
"344 431 OFFCURVE",
"373 412 OFFCURVE",
"373 376 CURVE SMOOTH",
"373 315 OFFCURVE",
"301 261 OFFCURVE",
"188 249 CURVE",
"227 171 OFFCURVE",
"270 78 OFFCURVE",
"324 0 CURVE",
"418 0 LINE",
"365 71 OFFCURVE",
"324 150 OFFCURVE",
"290 219 CURVE",
"404 256 OFFCURVE",
"454 326 OFFCURVE",
"454 397 CURVE SMOOTH",
"454 455 OFFCURVE",
"411 503 OFFCURVE",
"330 503 CURVE SMOOTH"
);
},
{
closed = 1;
nodes = (
"135 764 LINE",
"135 707 LINE",
"39 0 LINE",
"119 0 LINE",
"223 764 LINE"
);
}
);
width = 482;
},
{
anchors = (
{
name = bottom;
position = "{209, 0}";
}
);
background = {
hints = (
{
horizontal = 1;
place = "{0, 21}";
target = up;
type = BottomGhost;
},
{
horizontal = 1;
place = "{414, 97}";
type = Stem;
},
{
horizontal = 1;
place = "{769, -20}";
target = down;
type = TopGhost;
},
{
place = "{349, 117}";
type = Stem;
},
{
horizontal = 1;
place = "{0, 21}";
target = up;
type = BottomGhost;
},
{
horizontal = 1;
place = "{511, -20}";
target = down;
type = TopGhost;
},
{
place = "{78, 115}";
type = Stem;
},
{
place = "{350, 117}";
type = Stem;
},
{
horizontal = 1;
place = "{508, -20}";
target = down;
type = TopGhost;
},
{
horizontal = 1;
place = "{414, 97}";
type = Stem;
}
);
paths = (
{
closed = 1;
nodes = (
"64 493 LINE",
"77 473 OFFCURVE",
"78 437 OFFCURVE",
"78 414 CURVE SMOOTH",
"78 394 OFFCURVE",
"77 375 OFFCURVE",
"75 356 CURVE SMOOTH",
"27 0 LINE",
"141 0 LINE",
"190 357 LINE",
"211 378 OFFCURVE",
"269 414 OFFCURVE",
"300 414 CURVE SMOOTH",
"337 414 OFFCURVE",
"350 395 OFFCURVE",
"350 360 CURVE SMOOTH",
"350 348 OFFCURVE",
"349 336 OFFCURVE",
"347 324 CURVE SMOOTH",
"304 0 LINE",
"429 0 LINE",
"426 54 LINE",
"464 336 LINE SMOOTH",
"466 352 OFFCURVE",
"467 370 OFFCURVE",
"467 387 CURVE SMOOTH",
"467 469 OFFCURVE",
"430 511 OFFCURVE",
"346 511 CURVE SMOOTH",
"292 511 OFFCURVE",
"234 479 OFFCURVE",
"193 445 CURVE",
"193 466 OFFCURVE",
"191 487 OFFCURVE",
"185 508 CURVE"
);
},
{
closed = 1;
nodes = (
"344 215 OFFCURVE",
"360 231 OFFCURVE",
"360 251 CURVE SMOOTH",
"360 270 OFFCURVE",
"344 286 OFFCURVE",
"325 286 CURVE SMOOTH",
"305 286 OFFCURVE",
"289 270 OFFCURVE",
"289 251 CURVE SMOOTH",
"289 231 OFFCURVE",
"305 215 OFFCURVE",
"325 215 CURVE SMOOTH"
);
}
);
};
layerId = "38588886-3B3E-4A1D-B58B-01CA69B4ACA2";
paths = (
{
closed = 1;
nodes = (
"296 511 OFFCURVE",
"227 481 OFFCURVE",
"176 428 CURVE",
"176 343 LINE",
"209 381 OFFCURVE",
"269 414 OFFCURVE",
"303 414 CURVE SMOOTH",
"332 414 OFFCURVE",
"350 400 OFFCURVE",
"350 366 CURVE SMOOTH",
"350 322 OFFCURVE",
"316 261 OFFCURVE",
"198 235 CURVE",
"224 157 OFFCURVE",
"263 73 OFFCURVE",
"304 0 CURVE",
"436 0 LINE",
"388 72 OFFCURVE",
"348 140 OFFCURVE",
"324 208 CURVE",
"426 260 OFFCURVE",
"467 337 OFFCURVE",
"467 404 CURVE SMOOTH",
"467 476 OFFCURVE",
"417 511 OFFCURVE",
"352 511 CURVE SMOOTH"
);
},
{
closed = 1;
nodes = (
"117 769 LINE",
"122 715 LINE",
"27 0 LINE",
"143 0 LINE",
"246 769 LINE"
);
}
);
width = 491;
}
);
leftKerningGroup = b;
note = k;
rightKerningGroup = k;
unicode = 006B;
},
{
glyphname = kgreenlandic;
layers = (
{
background = {
paths = (
{
closed = 1;
nodes = (
"906 490 LINE",
"839 0 LINE",
"919 0 LINE",
"951 237 LINE",
"1112 0 LINE",
"1206 0 LINE",
"1033 258 LINE",
"1244 490 LINE",
"1157 490 LINE",
"955 263 LINE",
"986 490 LINE"
);
},
{
closed = 1;
nodes = (
"280 503 OFFCURVE",
"208 471 OFFCURVE",
"158 414 CURVE",
"158 353 LINE",
"210 406 OFFCURVE",
"270 431 OFFCURVE",
"312 431 CURVE SMOOTH",
"345 431 OFFCURVE",
"368 415 OFFCURVE",
"368 385 CURVE SMOOTH",
"368 338 OFFCURVE",
"303 267 OFFCURVE",
"181 243 CURVE",
"219 165 OFFCURVE",
"269 78 OFFCURVE",
"324 0 CURVE",
"418 0 LINE",
"364 71 OFFCURVE",
"312 151 OFFCURVE",
"279 220 CURVE",
"400 266 OFFCURVE",
"453 333 OFFCURVE",
"453 398 CURVE SMOOTH",
"453 465 OFFCURVE",
"403 503 OFFCURVE",
"337 503 CURVE SMOOTH"
);
},
{
closed = 1;
nodes = (
"106 490 LINE",
"39 0 LINE",
"119 0 LINE",
"186 490 LINE"
);
}
);
};
layerId = "C7717117-F750-4912-BA39-B64C3F969EBE";
paths = (
{
closed = 1;
nodes = (
"280 503 OFFCURVE",
"205 471 OFFCURVE",
"155 384 CURVE",
"155 323 LINE",
"207 406 OFFCURVE",
"270 431 OFFCURVE",
"312 431 CURVE SMOOTH",
"345 431 OFFCURVE",
"368 415 OFFCURVE",
"368 385 CURVE SMOOTH",
"368 338 OFFCURVE",
"303 267 OFFCURVE",
"181 243 CURVE",
"219 165 OFFCURVE",
"269 78 OFFCURVE",
"324 0 CURVE",
"418 0 LINE",
"364 71 OFFCURVE",
"312 151 OFFCURVE",
"279 220 CURVE",
"400 266 OFFCURVE",
"453 333 OFFCURVE",
"453 398 CURVE SMOOTH",
"453 465 OFFCURVE",
"403 503 OFFCURVE",
"337 503 CURVE SMOOTH"
);
},
{
closed = 1;
nodes = (
"106 490 LINE",
"39 0 LINE",
"119 0 LINE",
"186 490 LINE"
);
}
);
width = 477;
},
{
background = {
paths = (
{
closed = 1;
nodes = (
"93 497 LINE",
"27 0 LINE",
"143 0 LINE",
"175 235 LINE",
"297 0 LINE",
"429 0 LINE",
"293 252 LINE",
"474 497 LINE",
"346 497 LINE",
"177 249 LINE",
"210 497 LINE"
);
}
);
};
layerId = "38588886-3B3E-4A1D-B58B-01CA69B4ACA2";
paths = (
{
closed = 1;
nodes = (
"293 511 OFFCURVE",
"227 484 OFFCURVE",
"176 401 CURVE",
"176 320 LINE",
"211 387 OFFCURVE",
"266 414 OFFCURVE",
"304 414 CURVE SMOOTH",
"330 414 OFFCURVE",
"349 401 OFFCURVE",
"349 372 CURVE SMOOTH",
"349 328 OFFCURVE",
"297 262 OFFCURVE",
"198 235 CURVE",
"224 157 OFFCURVE",
"263 73 OFFCURVE",
"304 0 CURVE",
"436 0 LINE",
"388 72 OFFCURVE",
"348 140 OFFCURVE",
"324 208 CURVE",
"426 260 OFFCURVE",
"465 337 OFFCURVE",
"465 404 CURVE SMOOTH",
"465 476 OFFCURVE",
"414 511 OFFCURVE",
"349 511 CURVE SMOOTH"
);
},
{
closed = 1;
nodes = (
"93 497 LINE",
"27 0 LINE",
"143 0 LINE",
"210 497 LINE"
);
}
);
width = 486;
}
);
unicode = 0138;
},
{
glyphname = l;
layers = (
{
anchors = (
{
name = bottom;
position = "{76, 0}";
},
{
name = center;
position = "{131, 391}";
},
{
name = top;
position = "{175, 728}";
},
{
name = topright;
position = "{43, 521}";
}
);
layerId = "C7717117-F750-4912-BA39-B64C3F969EBE";
paths = (
{
closed = 1;
nodes = (
"135 764 LINE",
"135 707 LINE",
"39 0 LINE",
"128 0 LINE",
"128 58 LINE",
"223 764 LINE"
);
}
);
width = 227;
},
{
anchors = (
{
name = bottom;
position = "{82, 0}";
},
{
name = center;
position = "{137, 391}";
},
{
name = top;
position = "{181, 728}";
},
{
name = topright;
position = "{75, 529}";
}
);
layerId = "38588886-3B3E-4A1D-B58B-01CA69B4ACA2";
paths = (
{
closed = 1;
nodes = (
"119 769 LINE",
"122 715 LINE",
"27 0 LINE",
"154 0 LINE",
"151 54 LINE",
"247 769 LINE"
);
}
);
width = 236;
}
);
leftKerningGroup = b;
note = l;
rightKerningGroup = d;
unicode = 006C;
},
{
glyphname = lcaron;
layers = (
{
layerId = "C7717117-F750-4912-BA39-B64C3F969EBE";
paths = (
{
closed = 1;
nodes = (
"135 764 LINE",
"135 707 LINE",
"39 0 LINE",
"128 0 LINE",
"128 58 LINE",
"223 764 LINE"
);
},
{
closed = 1;
nodes = (
"246 612 LINE",
"319 612 LINE",
"390 764 LINE",
"278 764 LINE"
);
}
);
width = 281;
},
{
layerId = "38588886-3B3E-4A1D-B58B-01CA69B4ACA2";
paths = (
{
closed = 1;
nodes = (
"119 769 LINE",
"122 715 LINE",
"27 0 LINE",
"154 0 LINE",
"151 54 LINE",
"247 769 LINE"
);
},
{
closed = 1;
nodes = (
"260 602 LINE",
"358 602 LINE",
"429 767 LINE",
"294 767 LINE"
);
}
);
width = 326;
}
);
unicode = 013E;
},
{
glyphname = ldot;
layers = (
{
layerId = "C7717117-F750-4912-BA39-B64C3F969EBE";
paths = (
{
closed = 1;
nodes = (
"135 764 LINE",
"135 707 LINE",
"39 0 LINE",
"128 0 LINE",
"128 58 LINE",
"223 764 LINE"
);
},
{
closed = 1;
nodes = (
"348 351 OFFCURVE",
"323 377 OFFCURVE",
"290 377 CURVE SMOOTH",
"250 377 OFFCURVE",
"214 342 OFFCURVE",
"214 301 CURVE SMOOTH",
"214 269 OFFCURVE",
"239 245 OFFCURVE",
"272 245 CURVE SMOOTH",
"311 245 OFFCURVE",
"348 279 OFFCURVE",
"348 319 CURVE SMOOTH"
);
}
);
width = 315;
},
{
layerId = "38588886-3B3E-4A1D-B58B-01CA69B4ACA2";
paths = (
{
closed = 1;
nodes = (
"119 769 LINE",
"122 715 LINE",
"27 0 LINE",
"154 0 LINE",
"151 54 LINE",
"247 769 LINE"
);
},
{
closed = 1;
nodes = (
"382 355 OFFCURVE",
"354 383 OFFCURVE",
"316 383 CURVE SMOOTH",
"272 383 OFFCURVE",
"229 343 OFFCURVE",
"229 296 CURVE SMOOTH",
"229 260 OFFCURVE",
"257 232 OFFCURVE",
"295 232 CURVE SMOOTH",
"339 232 OFFCURVE",
"382 272 OFFCURVE",
"382 319 CURVE SMOOTH"
);
}
);
width = 356;
}
);
unicode = 0140;
},
{
glyphname = m;
layers = (
{
layerId = "C7717117-F750-4912-BA39-B64C3F969EBE";
paths = (
{
closed = 1;
nodes = (
"76 490 LINE",
"76 490 OFFCURVE",
"91 457 OFFCURVE",
"91 402 CURVE SMOOTH",
"91 389 OFFCURVE",
"90 374 OFFCURVE",
"88 359 CURVE SMOOTH",
"41 0 LINE",
"120 0 LINE",
"169 365 LINE",
"180 374 OFFCURVE",
"248 431 OFFCURVE",
"298 431 CURVE SMOOTH",
"350 431 OFFCURVE",
"362 395 OFFCURVE",
"362 355 CURVE SMOOTH",
"362 338 OFFCURVE",
"360 319 OFFCURVE",
"358 303 CURVE SMOOTH",
"318 0 LINE",
"398 0 LINE",
"445 364 LINE",
"480 394 OFFCURVE",
"530 431 OFFCURVE",
"575 431 CURVE SMOOTH",
"628 431 OFFCURVE",
"640 394 OFFCURVE",
"640 353 CURVE SMOOTH",
"640 336 OFFCURVE",
"638 319 OFFCURVE",
"636 303 CURVE SMOOTH",
"596 0 LINE",
"683 0 LINE",
"683 58 LINE",
"719 329 LINE SMOOTH",
"721 345 OFFCURVE",
"722 360 OFFCURVE",
"722 373 CURVE SMOOTH",
"722 480 OFFCURVE",
"658 503 OFFCURVE",
"597 503 CURVE SMOOTH",
"535 503 OFFCURVE",
"480 458 OFFCURVE",
"439 421 CURVE",
"418 484 OFFCURVE",
"374 503 OFFCURVE",
"320 503 CURVE SMOOTH",
"262 503 OFFCURVE",
"212 463 OFFCURVE",
"173 428 CURVE",
"173 451 OFFCURVE",
"168 488 OFFCURVE",
"164 500 CURVE"
);
}
);
width = 762;
},
{
layerId = "38588886-3B3E-4A1D-B58B-01CA69B4ACA2";
paths = (
{
closed = 1;
nodes = (
"64 493 LINE",
"77 473 OFFCURVE",
"78 437 OFFCURVE",
"78 414 CURVE SMOOTH",
"78 394 OFFCURVE",
"77 375 OFFCURVE",
"75 356 CURVE SMOOTH",
"27 0 LINE",
"141 0 LINE",
"190 361 LINE",
"214 385 OFFCURVE",
"258 414 OFFCURVE",
"293 414 CURVE SMOOTH",
"330 414 OFFCURVE",
"344 393 OFFCURVE",
"344 359 CURVE SMOOTH",
"344 351 OFFCURVE",
"343 343 OFFCURVE",
"342 335 CURVE SMOOTH",
"297 0 LINE",
"412 0 LINE",
"460 362 LINE",
"484 384 OFFCURVE",
"529 414 OFFCURVE",
"563 414 CURVE SMOOTH",
"601 414 OFFCURVE",
"616 397 OFFCURVE",
"616 360 CURVE SMOOTH",
"616 351 OFFCURVE",
"615 341 OFFCURVE",
"614 332 CURVE SMOOTH",
"570 0 LINE",
"694 0 LINE",
"691 53 LINE",
"729 339 LINE SMOOTH",
"731 355 OFFCURVE",
"733 372 OFFCURVE",
"733 389 CURVE SMOOTH",
"733 466 OFFCURVE",
"700 510 OFFCURVE",
"619 510 CURVE SMOOTH",
"556 510 OFFCURVE",
"500 479 OFFCURVE",
"455 437 CURVE",
"441 489 OFFCURVE",
"398 510 OFFCURVE",
"347 510 CURVE SMOOTH",
"285 510 OFFCURVE",
"239 482 OFFCURVE",
"193 444 CURVE",
"193 465 OFFCURVE",
"191 487 OFFCURVE",
"185 508 CURVE"
);
}
);
width = 758;
}
);
leftKerningGroup = m;
note = m;
rightKerningGroup = h;
unicode = 006D;
},
{
glyphname = n;
layers = (
{
anchors = (
{
name = bottom;
position = "{228, 0}";
},
{
name = top;
position = "{291, 490}";
},
{
name = topright;
position = "{109, 490}";
}
);
background = {
paths = (
{
closed = 1;
nodes = (
"214 392 OFFCURVE",
"225 403 OFFCURVE",
"225 418 CURVE SMOOTH",
"225 432 OFFCURVE",
"214 443 OFFCURVE",
"200 443 CURVE SMOOTH",
"185 443 OFFCURVE",
"174 432 OFFCURVE",
"174 418 CURVE SMOOTH",
"174 403 OFFCURVE",
"185 392 OFFCURVE",
"200 392 CURVE SMOOTH"
);
},
{
closed = 1;
nodes = (
"76 490 LINE",
"76 490 OFFCURVE",
"92 461 OFFCURVE",
"92 402 CURVE SMOOTH",
"92 387 OFFCURVE",
"91 369 OFFCURVE",
"88 350 CURVE SMOOTH",
"41 0 LINE",
"121 0 LINE",
"170 365 LINE",
"185 378 OFFCURVE",
"249 431 OFFCURVE",
"308 431 CURVE SMOOTH",
"361 431 OFFCURVE",
"373 396 OFFCURVE",
"373 357 CURVE SMOOTH",
"373 339 OFFCURVE",
"370 320 OFFCURVE",
"368 303 CURVE SMOOTH",
"327 0 LINE",
"415 0 LINE",
"415 58 LINE",
"451 329 LINE SMOOTH",
"453 345 OFFCURVE",
"454 360 OFFCURVE",
"454 373 CURVE SMOOTH",
"454 480 OFFCURVE",
"390 503 OFFCURVE",
"330 503 CURVE SMOOTH",
"265 503 OFFCURVE",
"212 463 OFFCURVE",
"173 428 CURVE",
"172 457 OFFCURVE",
"167 490 OFFCURVE",
"164 500 CURVE"
);
}
);
};
layerId = "C7717117-F750-4912-BA39-B64C3F969EBE";
paths = (
{
closed = 1;
nodes = (
"76 490 LINE",
"76 490 OFFCURVE",
"92 461 OFFCURVE",
"92 402 CURVE SMOOTH",
"92 387 OFFCURVE",
"91 369 OFFCURVE",
"88 350 CURVE SMOOTH",
"41 0 LINE",
"121 0 LINE",
"170 362 LINE",
"185 375 OFFCURVE",
"249 431 OFFCURVE",
"308 431 CURVE SMOOTH",
"361 431 OFFCURVE",
"373 396 OFFCURVE",
"373 357 CURVE SMOOTH",
"373 339 OFFCURVE",
"370 320 OFFCURVE",
"368 303 CURVE SMOOTH",
"327 0 LINE",
"415 0 LINE",
"415 58 LINE",
"451 329 LINE SMOOTH",
"453 345 OFFCURVE",
"454 360 OFFCURVE",
"454 373 CURVE SMOOTH",
"454 480 OFFCURVE",
"390 503 OFFCURVE",
"330 503 CURVE SMOOTH",
"265 503 OFFCURVE",
"212 463 OFFCURVE",
"173 429 CURVE",
"172 458 OFFCURVE",
"167 490 OFFCURVE",
"164 500 CURVE"
);
}
);
width = 494;
},
{
anchors = (
{
name = bottom;
position = "{225, 0}";
},
{
name = top;
position = "{288, 497}";
},
{
name = topright;
position = "{106, 497}";
}
);
background = {
paths = (
{
closed = 1;
nodes = (
"244 388 OFFCURVE",
"260 404 OFFCURVE",
"260 424 CURVE SMOOTH",
"260 443 OFFCURVE",
"244 459 OFFCURVE",
"225 459 CURVE SMOOTH",
"205 459 OFFCURVE",
"189 443 OFFCURVE",
"189 424 CURVE SMOOTH",
"189 404 OFFCURVE",
"205 388 OFFCURVE",
"225 388 CURVE SMOOTH"
);
},
{
closed = 1;
nodes = (
"64 493 LINE",
"77 473 OFFCURVE",
"78 437 OFFCURVE",
"78 414 CURVE SMOOTH",
"78 394 OFFCURVE",
"77 375 OFFCURVE",
"75 356 CURVE SMOOTH",
"27 0 LINE",
"141 0 LINE",
"190 361 LINE",
"211 382 OFFCURVE",
"269 414 OFFCURVE",
"300 414 CURVE SMOOTH",
"337 414 OFFCURVE",
"350 395 OFFCURVE",
"350 360 CURVE SMOOTH",
"350 348 OFFCURVE",
"349 336 OFFCURVE",
"347 324 CURVE SMOOTH",
"304 0 LINE",
"429 0 LINE",
"426 54 LINE",
"464 336 LINE SMOOTH",
"466 352 OFFCURVE",
"467 370 OFFCURVE",
"467 387 CURVE SMOOTH",
"467 469 OFFCURVE",
"430 511 OFFCURVE",
"346 511 CURVE SMOOTH",
"292 511 OFFCURVE",
"234 478 OFFCURVE",
"193 444 CURVE",
"193 465 OFFCURVE",
"191 487 OFFCURVE",
"185 508 CURVE"
);
}
);
};
layerId = "38588886-3B3E-4A1D-B58B-01CA69B4ACA2";
paths = (
{
closed = 1;
nodes = (
"64 493 LINE",
"77 473 OFFCURVE",
"78 437 OFFCURVE",
"78 414 CURVE SMOOTH",
"78 394 OFFCURVE",
"77 375 OFFCURVE",
"75 356 CURVE SMOOTH",
"27 0 LINE",
"141 0 LINE",
"190 357 LINE",
"211 378 OFFCURVE",
"269 414 OFFCURVE",
"300 414 CURVE SMOOTH",
"337 414 OFFCURVE",
"350 395 OFFCURVE",
"350 360 CURVE SMOOTH",
"350 348 OFFCURVE",
"349 336 OFFCURVE",
"347 324 CURVE SMOOTH",
"304 0 LINE",
"429 0 LINE",
"426 54 LINE",
"464 336 LINE SMOOTH",
"466 352 OFFCURVE",
"467 370 OFFCURVE",
"467 387 CURVE SMOOTH",
"467 469 OFFCURVE",
"430 511 OFFCURVE",
"346 511 CURVE SMOOTH",
"292 511 OFFCURVE",
"234 479 OFFCURVE",
"193 445 CURVE",
"193 466 OFFCURVE",
"191 487 OFFCURVE",
"185 508 CURVE"
);
}
);
width = 492;
}
);
leftKerningGroup = m;
note = n;
rightKerningGroup = h;
unicode = 006E;
},
{
glyphname = eng;
layers = (
{
layerId = "C7717117-F750-4912-BA39-B64C3F969EBE";
paths = (
{
closed = 1;
nodes = (
"121 0 LINE",
"170 362 LINE",
"185 375 OFFCURVE",
"249 431 OFFCURVE",
"308 431 CURVE SMOOTH",
"361 431 OFFCURVE",
"373 396 OFFCURVE",
"373 357 CURVE SMOOTH",
"373 339 OFFCURVE",
"370 320 OFFCURVE",
"368 303 CURVE SMOOTH",
"328 13 LINE SMOOTH",
"318 -59 OFFCURVE",
"301 -150 OFFCURVE",
"223 -188 CURVE",
"231 -228 LINE",
"357 -211 OFFCURVE",
"395 -78 OFFCURVE",
"409 25 CURVE SMOOTH",
"451 329 LINE SMOOTH",
"453 345 OFFCURVE",
"454 360 OFFCURVE",
"454 373 CURVE SMOOTH",
"454 480 OFFCURVE",
"390 503 OFFCURVE",
"330 503 CURVE SMOOTH",
"265 503 OFFCURVE",
"212 463 OFFCURVE",
"173 429 CURVE",
"172 458 OFFCURVE",
"167 490 OFFCURVE",
"164 500 CURVE",
"76 490 LINE",
"76 490 OFFCURVE",
"92 461 OFFCURVE",
"92 402 CURVE SMOOTH",
"92 387 OFFCURVE",
"91 369 OFFCURVE",
"88 350 CURVE SMOOTH",
"41 0 LINE"
);
}
);
width = 494;
},
{
layerId = "38588886-3B3E-4A1D-B58B-01CA69B4ACA2";
paths = (
{
closed = 1;
nodes = (
"141 0 LINE",
"190 357 LINE",
"211 378 OFFCURVE",
"269 414 OFFCURVE",
"300 414 CURVE SMOOTH",
"337 414 OFFCURVE",
"350 395 OFFCURVE",
"350 360 CURVE SMOOTH",
"350 348 OFFCURVE",
"349 336 OFFCURVE",
"347 324 CURVE SMOOTH",
"309 39 LINE SMOOTH",
"299 -37 OFFCURVE",
"278 -128 OFFCURVE",
"196 -169 CURVE",
"210 -224 LINE",
"368 -206 OFFCURVE",
"409 -65 OFFCURVE",
"427 65 CURVE SMOOTH",
"464 336 LINE SMOOTH",
"466 352 OFFCURVE",
"467 370 OFFCURVE",
"467 387 CURVE SMOOTH",
"467 469 OFFCURVE",
"430 511 OFFCURVE",
"346 511 CURVE SMOOTH",
"292 511 OFFCURVE",
"234 479 OFFCURVE",
"193 445 CURVE",
"193 466 OFFCURVE",
"191 487 OFFCURVE",
"185 508 CURVE",
"64 493 LINE",
"77 473 OFFCURVE",
"78 437 OFFCURVE",
"78 414 CURVE SMOOTH",
"78 394 OFFCURVE",
"77 375 OFFCURVE",
"75 356 CURVE SMOOTH",
"27 0 LINE"
);
}
);
width = 492;
}
);
unicode = 014B;
},
{
glyphname = nhookleft;
layers = (
{
layerId = "C7717117-F750-4912-BA39-B64C3F969EBE";
paths = (
{
closed = 1;
nodes = (
"-53 -228 LINE",
"73 -211 OFFCURVE",
"111 -77 OFFCURVE",
"125 25 CURVE SMOOTH",
"172 362 LINE",
"187 375 OFFCURVE",
"251 431 OFFCURVE",
"310 431 CURVE SMOOTH",
"363 431 OFFCURVE",
"375 396 OFFCURVE",
"375 357 CURVE SMOOTH",
"375 339 OFFCURVE",
"372 320 OFFCURVE",
"370 303 CURVE SMOOTH",
"329 0 LINE",
"417 0 LINE",
"417 58 LINE",
"453 329 LINE SMOOTH",
"455 345 OFFCURVE",
"456 360 OFFCURVE",
"456 373 CURVE SMOOTH",
"456 480 OFFCURVE",
"392 503 OFFCURVE",
"332 503 CURVE SMOOTH",
"267 503 OFFCURVE",
"214 463 OFFCURVE",
"175 429 CURVE",
"174 458 OFFCURVE",
"169 490 OFFCURVE",
"166 500 CURVE",
"78 490 LINE",
"78 490 OFFCURVE",
"94 461 OFFCURVE",
"94 402 CURVE SMOOTH",
"94 387 OFFCURVE",
"93 369 OFFCURVE",
"90 350 CURVE SMOOTH",
"44 13 LINE SMOOTH",
"34 -59 OFFCURVE",
"17 -150 OFFCURVE",
"-61 -188 CURVE"
);
}
);
width = 496;
},
{
layerId = "38588886-3B3E-4A1D-B58B-01CA69B4ACA2";
paths = (
{
closed = 1;
nodes = (
"-67 -224 LINE",
"91 -206 OFFCURVE",
"132 -64 OFFCURVE",
"150 65 CURVE SMOOTH",
"190 357 LINE",
"211 378 OFFCURVE",
"269 414 OFFCURVE",
"300 414 CURVE SMOOTH",
"337 414 OFFCURVE",
"350 395 OFFCURVE",
"350 360 CURVE SMOOTH",
"350 348 OFFCURVE",
"349 336 OFFCURVE",
"347 324 CURVE SMOOTH",
"304 0 LINE",
"429 0 LINE",
"426 54 LINE",
"464 336 LINE SMOOTH",
"466 352 OFFCURVE",
"467 370 OFFCURVE",
"467 387 CURVE SMOOTH",
"467 469 OFFCURVE",
"430 511 OFFCURVE",
"346 511 CURVE SMOOTH",
"292 511 OFFCURVE",
"234 479 OFFCURVE",
"193 445 CURVE",
"193 466 OFFCURVE",
"191 487 OFFCURVE",
"185 508 CURVE",
"64 493 LINE",
"77 473 OFFCURVE",
"78 437 OFFCURVE",
"78 414 CURVE SMOOTH",
"78 394 OFFCURVE",
"78 375 OFFCURVE",
"75 356 CURVE SMOOTH",
"32 39 LINE SMOOTH",
"22 -37 OFFCURVE",
"1 -128 OFFCURVE",
"-81 -169 CURVE"
);
}
);
width = 492;
}
);
unicode = 0272;
},
{
glyphname = o;
layers = (
{
anchors = (
{
name = bottom;
position = "{217, 0}";
},
{
name = center;
position = "{250, 252}";
},
{
name = ogonek;
position = "{261, 0}";
},
{
name = top;
position = "{284, 490}";
},
{
name = topright;
position = "{312, 490}";
}
);
background = {
paths = (
{
closed = 1;
nodes = (
"374 -13 OFFCURVE",
"467 143 OFFCURVE",
"467 294 CURVE SMOOTH",
"467 405 OFFCURVE",
"409 503 OFFCURVE",
"283 503 CURVE SMOOTH",
"122 503 OFFCURVE",
"32 348 OFFCURVE",
"32 197 CURVE SMOOTH",
"32 86 OFFCURVE",
"90 -13 OFFCURVE",
"215 -13 CURVE SMOOTH"
);
},
{
closed = 1;
nodes = (
"145 49 OFFCURVE",
"117 135 OFFCURVE",
"117 202 CURVE SMOOTH",
"117 296 OFFCURVE",
"165 441 OFFCURVE",
"276 441 CURVE SMOOTH",
"356 441 OFFCURVE",
"382 362 OFFCURVE",
"382 293 CURVE SMOOTH",
"382 197 OFFCURVE",
"336 49 OFFCURVE",
"222 49 CURVE SMOOTH"
);
},
{
closed = 1;
nodes = (
"94 169 OFFCURVE",
"112 187 OFFCURVE",
"112 209 CURVE SMOOTH",
"112 230 OFFCURVE",
"94 248 OFFCURVE",
"73 248 CURVE SMOOTH",
"51 248 OFFCURVE",
"33 230 OFFCURVE",
"33 209 CURVE SMOOTH",
"33 187 OFFCURVE",
"51 169 OFFCURVE",
"73 169 CURVE SMOOTH"
);
},
{
closed = 1;
nodes = (
"449 254 OFFCURVE",
"467 272 OFFCURVE",
"467 294 CURVE SMOOTH",
"467 315 OFFCURVE",
"449 333 OFFCURVE",
"428 333 CURVE SMOOTH",
"406 333 OFFCURVE",
"388 315 OFFCURVE",
"388 294 CURVE SMOOTH",
"388 272 OFFCURVE",
"406 254 OFFCURVE",
"428 254 CURVE SMOOTH"
);
}
);
};
guideLines = (
{
angle = 90;
position = "{468, 460}";
},
{
angle = 90;
position = "{385, 460}";
},
{
angle = 90;
position = "{119, 460}";
},
{
angle = 90;
position = "{36, 460}";
}
);
layerId = "C7717117-F750-4912-BA39-B64C3F969EBE";
paths = (
{
closed = 1;
nodes = (
"378 -13 OFFCURVE",
"463 145 OFFCURVE",
"463 286 CURVE SMOOTH",
"463 400 OFFCURVE",
"409 503 OFFCURVE",
"283 503 CURVE SMOOTH",
"121 503 OFFCURVE",
"36 345 OFFCURVE",
"36 204 CURVE SMOOTH",
"36 90 OFFCURVE",
"90 -13 OFFCURVE",
"216 -13 CURVE SMOOTH"
);
},
{
closed = 1;
nodes = (
"149 49 OFFCURVE",
"119 125 OFFCURVE",
"119 209 CURVE SMOOTH",
"119 318 OFFCURVE",
"171 441 OFFCURVE",
"276 441 CURVE SMOOTH",
"350 441 OFFCURVE",
"380 365 OFFCURVE",
"380 281 CURVE SMOOTH",
"380 172 OFFCURVE",
"328 49 OFFCURVE",
"223 49 CURVE SMOOTH"
);
}
);
width = 499;
},
{
anchors = (
{
name = bottom;
position = "{215, 0}";
},
{
name = center;
position = "{248, 252}";
},
{
name = ogonek;
position = "{237, 0}";
},
{
name = top;
position = "{282, 497}";
},
{
name = topright;
position = "{310, 497}";
}
);
background = {
paths = (
{
closed = 1;
nodes = (
"103 143 OFFCURVE",
"128 168 OFFCURVE",
"128 199 CURVE SMOOTH",
"128 230 OFFCURVE",
"103 255 OFFCURVE",
"72 255 CURVE SMOOTH",
"40 255 OFFCURVE",
"15 230 OFFCURVE",
"15 199 CURVE SMOOTH",
"15 168 OFFCURVE",
"40 143 OFFCURVE",
"72 143 CURVE SMOOTH"
);
},
{
closed = 1;
nodes = (
"456 243 OFFCURVE",
"481 268 OFFCURVE",
"481 299 CURVE SMOOTH",
"481 330 OFFCURVE",
"456 355 OFFCURVE",
"425 355 CURVE SMOOTH",
"393 355 OFFCURVE",
"368 330 OFFCURVE",
"368 299 CURVE SMOOTH",
"368 268 OFFCURVE",
"393 243 OFFCURVE",
"425 243 CURVE SMOOTH"
);
},
{
closed = 1;
nodes = (
"378 -12 OFFCURVE",
"481 141 OFFCURVE",
"481 295 CURVE SMOOTH",
"481 417 OFFCURVE",
"411 510 OFFCURVE",
"283 510 CURVE SMOOTH",
"119 510 OFFCURVE",
"15 356 OFFCURVE",
"15 203 CURVE SMOOTH",
"15 81 OFFCURVE",
"85 -12 OFFCURVE",
"213 -12 CURVE SMOOTH"
);
},
{
closed = 1;
nodes = (
"154 68 OFFCURVE",
"140 141 OFFCURVE",
"140 197 CURVE SMOOTH",
"140 275 OFFCURVE",
"170 428 OFFCURVE",
"272 428 CURVE SMOOTH",
"342 428 OFFCURVE",
"356 362 OFFCURVE",
"356 305 CURVE SMOOTH",
"356 224 OFFCURVE",
"330 68 OFFCURVE",
"224 68 CURVE SMOOTH"
);
}
);
};
layerId = "38588886-3B3E-4A1D-B58B-01CA69B4ACA2";
paths = (
{
closed = 1;
nodes = (
"381 -12 OFFCURVE",
"475 152 OFFCURVE",
"475 297 CURVE SMOOTH",
"475 409 OFFCURVE",
"420 510 OFFCURVE",
"283 510 CURVE SMOOTH",
"115 510 OFFCURVE",
"21 346 OFFCURVE",
"21 201 CURVE SMOOTH",
"21 89 OFFCURVE",
"76 -12 OFFCURVE",
"213 -12 CURVE SMOOTH"
);
},
{
closed = 1;
nodes = (
"159 69 OFFCURVE",
"138 129 OFFCURVE",
"138 200 CURVE SMOOTH",
"138 308 OFFCURVE",
"184 429 OFFCURVE",
"272 429 CURVE SMOOTH",
"337 429 OFFCURVE",
"358 369 OFFCURVE",
"358 298 CURVE SMOOTH",
"358 190 OFFCURVE",
"312 69 OFFCURVE",
"224 69 CURVE SMOOTH"
);
}
);
width = 496;
}
);
leftKerningGroup = c;
note = o;
rightKerningGroup = b;
unicode = 006F;
},
{
glyphname = oe;
layers = (
{
layerId = "C7717117-F750-4912-BA39-B64C3F969EBE";
paths = (
{
closed = 1;
nodes = (
"378 -13 OFFCURVE",
"463 145 OFFCURVE",
"463 286 CURVE SMOOTH",
"463 400 OFFCURVE",
"409 503 OFFCURVE",
"283 503 CURVE SMOOTH",
"121 503 OFFCURVE",
"36 345 OFFCURVE",
"36 204 CURVE SMOOTH",
"36 90 OFFCURVE",
"90 -13 OFFCURVE",
"216 -13 CURVE SMOOTH"
);
},
{
closed = 1;
nodes = (
"149 49 OFFCURVE",
"119 125 OFFCURVE",
"119 209 CURVE SMOOTH",
"119 318 OFFCURVE",
"171 441 OFFCURVE",
"276 441 CURVE SMOOTH",
"350 441 OFFCURVE",
"380 365 OFFCURVE",
"380 281 CURVE SMOOTH",
"380 172 OFFCURVE",
"328 49 OFFCURVE",
"223 49 CURVE SMOOTH"
);
},
{
closed = 1;
nodes = (
"492 57 OFFCURVE",
"460 126 OFFCURVE",
"460 213 CURVE SMOOTH",
"460 320 OFFCURVE",
"516 441 OFFCURVE",
"623 441 CURVE SMOOTH",
"656 441 OFFCURVE",
"685 424 OFFCURVE",
"685 390 CURVE SMOOTH",
"685 301 OFFCURVE",
"545 249 OFFCURVE",
"448 261 CURVE",
"448 202 LINE",
"630 197 OFFCURVE",
"769 271 OFFCURVE",
"769 397 CURVE SMOOTH",
"769 473 OFFCURVE",
"702 503 OFFCURVE",
"633 503 CURVE SMOOTH",
"464 503 OFFCURVE",
"377 348 OFFCURVE",
"377 207 CURVE SMOOTH",
"377 87 OFFCURVE",
"434 -13 OFFCURVE",
"575 -13 CURVE SMOOTH",
"634 -13 OFFCURVE",
"700 9 OFFCURVE",
"748 43 CURVE",
"719 102 LINE",
"678 74 OFFCURVE",
"630 57 OFFCURVE",
"580 57 CURVE SMOOTH"
);
}
);
width = 795;
},
{
layerId = "38588886-3B3E-4A1D-B58B-01CA69B4ACA2";
paths = (
{
closed = 1;
nodes = (
"381 -12 OFFCURVE",
"475 152 OFFCURVE",
"475 297 CURVE SMOOTH",
"475 409 OFFCURVE",
"420 510 OFFCURVE",
"283 510 CURVE SMOOTH",
"115 510 OFFCURVE",
"21 346 OFFCURVE",
"21 201 CURVE SMOOTH",
"21 89 OFFCURVE",
"76 -12 OFFCURVE",
"213 -12 CURVE SMOOTH"
);
},
{
closed = 1;
nodes = (
"159 69 OFFCURVE",
"138 129 OFFCURVE",
"138 200 CURVE SMOOTH",
"138 308 OFFCURVE",
"184 429 OFFCURVE",
"272 429 CURVE SMOOTH",
"337 429 OFFCURVE",
"358 369 OFFCURVE",
"358 298 CURVE SMOOTH",
"358 190 OFFCURVE",
"312 69 OFFCURVE",
"224 69 CURVE SMOOTH"
);
},
{
closed = 1;
nodes = (
"501 76 OFFCURVE",
"471 140 OFFCURVE",
"471 221 CURVE SMOOTH",
"471 321 OFFCURVE",
"522 426 OFFCURVE",
"618 426 CURVE SMOOTH",
"647 426 OFFCURVE",
"662 410 OFFCURVE",
"662 387 CURVE SMOOTH",
"662 338 OFFCURVE",
"603 277 OFFCURVE",
"458 277 CURVE",
"458 194 LINE",
"723 188 OFFCURVE",
"785 317 OFFCURVE",
"785 384 CURVE SMOOTH",
"785 471 OFFCURVE",
"713 510 OFFCURVE",
"627 510 CURVE SMOOTH",
"455 510 OFFCURVE",
"354 356 OFFCURVE",
"354 204 CURVE SMOOTH",
"354 85 OFFCURVE",
"415 -12 OFFCURVE",
"571 -12 CURVE SMOOTH",
"693 -12 OFFCURVE",
"769 54 OFFCURVE",
"769 54 CURVE",
"727 137 LINE",
"693 111 OFFCURVE",
"638 76 OFFCURVE",
"583 76 CURVE SMOOTH"
);
}
);
width = 799;
}
);
leftKerningGroup = c;
leftMetricsKey = o;
note = oe;
rightMetricsKey = e;
unicode = 0153;
},
{
glyphname = p;
layers = (
{
background = {
hints = (
{
horizontal = 1;
place = "{-13, 62}";
type = Stem;
},
{
horizontal = 1;
place = "{441, 62}";
type = Stem;
},
{
horizontal = 1;
place = "{764, -20}";
target = down;
type = TopGhost;
},
{
place = "{385, 88}";
type = Stem;
}
);
paths = (
{
closed = 1;
nodes = (
"123 52 LINE",
"166 362 LINE",
"189 386 OFFCURVE",
"245 432 OFFCURVE",
"300 432 CURVE SMOOTH",
"357 432 OFFCURVE",
"379 372 OFFCURVE",
"379 290 CURVE SMOOTH",
"379 176 OFFCURVE",
"329 49 OFFCURVE",
"209 49 CURVE SMOOTH",
"168 49 OFFCURVE",
"131 55 OFFCURVE",
"85 89 CURVE",
"45 33 LINE",
"93 1 OFFCURVE",
"157 -13 OFFCURVE",
"212 -13 CURVE SMOOTH",
"366 -13 OFFCURVE",
"462 125 OFFCURVE",
"462 300 CURVE SMOOTH",
"462 415 OFFCURVE",
"421 503 OFFCURVE",
"316 503 CURVE SMOOTH",
"258 503 OFFCURVE",
"201 461 OFFCURVE",
"176 436 CURVE",
"220 764 LINE",
"132 764 LINE",
"132 707 LINE",
"45 33 LINE"
);
}
);
};
layerId = "C7717117-F750-4912-BA39-B64C3F969EBE";
paths = (
{
closed = 1;
nodes = (
"257 503 OFFCURVE",
"203 465 OFFCURVE",
"169 429 CURVE",
"169 452 OFFCURVE",
"167 467 OFFCURVE",
"161 501 CURVE",
"73 490 LINE",
"83 459 OFFCURVE",
"87 431 OFFCURVE",
"87 405 CURVE SMOOTH",
"87 381 OFFCURVE",
"84 357 OFFCURVE",
"81 333 CURVE SMOOTH",
"8 -224 LINE",
"96 -224 LINE",
"96 -169 LINE",
"118 1 LINE",
"143 -7 OFFCURVE",
"173 -13 OFFCURVE",
"212 -13 CURVE SMOOTH",
"366 -13 OFFCURVE",
"462 125 OFFCURVE",
"462 300 CURVE SMOOTH",
"462 415 OFFCURVE",
"421 503 OFFCURVE",
"317 503 CURVE SMOOTH"
);
},
{
closed = 1;
nodes = (
"357 432 OFFCURVE",
"379 372 OFFCURVE",
"379 290 CURVE SMOOTH",
"379 176 OFFCURVE",
"329 49 OFFCURVE",
"209 49 CURVE SMOOTH",
"177 49 OFFCURVE",
"145 59 OFFCURVE",
"128 71 CURVE",
"166 362 LINE",
"189 386 OFFCURVE",
"245 432 OFFCURVE",
"300 432 CURVE SMOOTH"
);
}
);
width = 497;
},
{
background = {
hints = (
{
horizontal = 1;
place = "{-11, 82}";
type = Stem;
},
{
horizontal = 1;
place = "{426, 84}";
type = Stem;
},
{
horizontal = 1;
place = "{768, -20}";
target = down;
type = TopGhost;
},
{
place = "{376, 121}";
type = Stem;
}
);
paths = (
{
closed = 1;
nodes = (
"151 75 LINE",
"190 353 LINE",
"207 377 OFFCURVE",
"257 422 OFFCURVE",
"301 422 CURVE SMOOTH",
"356 422 OFFCURVE",
"374 368 OFFCURVE",
"374 293 CURVE SMOOTH",
"374 188 OFFCURVE",
"330 70 OFFCURVE",
"232 70 CURVE SMOOTH",
"192 70 OFFCURVE",
"137 84 OFFCURVE",
"106 122 CURVE",
"34 41 LINE",
"95 5 OFFCURVE",
"170 -12 OFFCURVE",
"228 -12 CURVE SMOOTH",
"410 -12 OFFCURVE",
"491 147 OFFCURVE",
"491 299 CURVE SMOOTH",
"491 418 OFFCURVE",
"445 511 OFFCURVE",
"331 511 CURVE SMOOTH",
"288 511 OFFCURVE",
"236 491 OFFCURVE",
"204 459 CURVE",
"245 768 LINE",
"118 768 LINE",
"123 713 LINE",
"34 41 LINE"
);
}
);
};
layerId = "38588886-3B3E-4A1D-B58B-01CA69B4ACA2";
paths = (
{
closed = 1;
nodes = (
"278 511 OFFCURVE",
"230 486 OFFCURVE",
"194 450 CURVE",
"193 470 OFFCURVE",
"190 487 OFFCURVE",
"184 507 CURVE",
"67 492 LINE",
"78 470 OFFCURVE",
"80 438 OFFCURVE",
"80 413 CURVE SMOOTH",
"80 394 OFFCURVE",
"79 375 OFFCURVE",
"76 356 CURVE SMOOTH",
"-2 -225 LINE",
"125 -225 LINE",
"120 -170 LINE",
"142 -1 LINE",
"165 -7 OFFCURVE",
"196 -12 OFFCURVE",
"228 -12 CURVE SMOOTH",
"410 -12 OFFCURVE",
"491 147 OFFCURVE",
"491 299 CURVE SMOOTH",
"491 418 OFFCURVE",
"445 511 OFFCURVE",
"331 511 CURVE SMOOTH"
);
},
{
closed = 1;
nodes = (
"356 422 OFFCURVE",
"374 368 OFFCURVE",
"374 293 CURVE SMOOTH",
"374 188 OFFCURVE",
"330 70 OFFCURVE",
"232 70 CURVE SMOOTH",
"201 70 OFFCURVE",
"178 78 OFFCURVE",
"154 91 CURVE",
"190 353 LINE",
"207 377 OFFCURVE",
"257 422 OFFCURVE",
"301 422 CURVE SMOOTH"
);
}
);
width = 512;
}
);
leftKerningGroup = m;
note = p;
rightKerningGroup = b;
rightMetricsKey = o;
unicode = 0070;
},
{
glyphname = thorn;
layers = (
{
layerId = "C7717117-F750-4912-BA39-B64C3F969EBE";
paths = (
{
closed = 1;
nodes = (
"259 503 OFFCURVE",
"214 477 OFFCURVE",
"180 432 CURVE",
"225 764 LINE",
"137 764 LINE",
"137 707 LINE",
"13 -224 LINE",
"101 -224 LINE",
"101 -169 LINE",
"125 18 LINE",
"145 4 OFFCURVE",
"181 -13 OFFCURVE",
"223 -13 CURVE SMOOTH",
"378 -13 OFFCURVE",
"476 143 OFFCURVE",
"476 318 CURVE SMOOTH",
"476 417 OFFCURVE",
"428 503 OFFCURVE",
"317 503 CURVE SMOOTH"
);
},
{
closed = 1;
nodes = (
"369 441 OFFCURVE",
"388 382 OFFCURVE",
"388 322 CURVE SMOOTH",
"388 179 OFFCURVE",
"334 49 OFFCURVE",
"226 49 CURVE SMOOTH",
"194 49 OFFCURVE",
"154 59 OFFCURVE",
"134 83 CURVE",
"137 109 OFFCURVE",
"140 142 OFFCURVE",
"145 178 CURVE SMOOTH",
"157 265 OFFCURVE",
"189 441 OFFCURVE",
"301 441 CURVE SMOOTH"
);
}
);
width = 514;
},
{
layerId = "38588886-3B3E-4A1D-B58B-01CA69B4ACA2";
paths = (
{
closed = 1;
nodes = (
"291 510 OFFCURVE",
"240 492 OFFCURVE",
"207 461 CURVE",
"248 769 LINE",
"120 769 LINE",
"123 715 LINE",
"-2 -225 LINE",
"125 -225 LINE",
"120 -170 LINE",
"145 21 LINE",
"169 -2 OFFCURVE",
"214 -11 OFFCURVE",
"246 -11 CURVE SMOOTH",
"414 -11 OFFCURVE",
"505 149 OFFCURVE",
"505 301 CURVE SMOOTH",
"505 409 OFFCURVE",
"454 510 OFFCURVE",
"334 510 CURVE SMOOTH"
);
},
{
closed = 1;
nodes = (
"369 426 OFFCURVE",
"383 368 OFFCURVE",
"383 297 CURVE SMOOTH",
"383 226 OFFCURVE",
"350 71 OFFCURVE",
"243 71 CURVE SMOOTH",
"212 71 OFFCURVE",
"185 83 OFFCURVE",
"157 111 CURVE",
"159 125 OFFCURVE",
"161 140 OFFCURVE",
"163 154 CURVE SMOOTH",
"181 286 OFFCURVE",
"212 426 OFFCURVE",
"310 426 CURVE SMOOTH"
);
}
);
width = 526;
}
);
leftKerningGroup = b;
note = thorn;
rightKerningGroup = b;
unicode = 00FE;
},
{
glyphname = q;
layers = (
{
background = {
paths = (
{
closed = 1;
nodes = (
"121 503 OFFCURVE",
"23 330 OFFCURVE",
"23 179 CURVE SMOOTH",
"23 75 OFFCURVE",
"72 -13 OFFCURVE",
"180 -13 CURVE SMOOTH",
"236 -13 OFFCURVE",
"286 16 OFFCURVE",
"322 67 CURVE",
"282 -223 LINE",
"370 -223 LINE",
"370 -167 LINE",
"463 523 LINE",
"424 523 LINE",
"392 460 LINE",
"365 489 OFFCURVE",
"321 503 OFFCURVE",
"286 503 CURVE SMOOTH"
);
},
{
closed = 1;
nodes = (
"320 441 OFFCURVE",
"347 427 OFFCURVE",
"368 403 CURVE",
"354 307 LINE SMOOTH",
"335 177 OFFCURVE",
"288 49 OFFCURVE",
"196 49 CURVE SMOOTH",
"141 49 OFFCURVE",
"116 108 OFFCURVE",
"116 180 CURVE SMOOTH",
"116 294 OFFCURVE",
"171 441 OFFCURVE",
"289 441 CURVE SMOOTH"
);
}
);
};
layerId = "C7717117-F750-4912-BA39-B64C3F969EBE";
paths = (
{
closed = 1;
nodes = (
"371 419 LINE",
"356 307 LINE SMOOTH",
"339 177 OFFCURVE",
"291 51 OFFCURVE",
"203 51 CURVE SMOOTH",
"143 51 OFFCURVE",
"118 116 OFFCURVE",
"118 194 CURVE SMOOTH",
"118 309 OFFCURVE",
"164 441 OFFCURVE",
"288 441 CURVE SMOOTH",
"329 441 OFFCURVE",
"366 425 OFFCURVE",
"407 389 CURVE",
"407 448 LINE",
"371 489 OFFCURVE",
"327 503 OFFCURVE",
"286 503 CURVE SMOOTH",
"116 503 OFFCURVE",
"35 342 OFFCURVE",
"35 193 CURVE SMOOTH",
"35 81 OFFCURVE",
"79 -13 OFFCURVE",
"187 -13 CURVE SMOOTH",
"241 -13 OFFCURVE",
"291 18 OFFCURVE",
"314 52 CURVE",
"318 52 LINE",
"282 -223 LINE",
"370 -223 LINE",
"370 -167 LINE",
"462 495 LINE",
"418 495 LINE"
);
}
);
width = 486;
},
{
background = {
hints = (
{
horizontal = 1;
place = "{-230, 80}";
type = Stem;
},
{
horizontal = 1;
place = "{-12, 83}";
type = Stem;
},
{
horizontal = 1;
place = "{426, 84}";
type = Stem;
},
{
place = "{22, 122}";
type = Stem;
}
);
paths = (
{
closed = 1;
nodes = (
"101 509 OFFCURVE",
"5 349 OFFCURVE",
"5 197 CURVE SMOOTH",
"5 89 OFFCURVE",
"56 -12 OFFCURVE",
"176 -12 CURVE SMOOTH",
"218 -12 OFFCURVE",
"267 2 OFFCURVE",
"305 39 CURVE",
"270 -224 LINE",
"397 -224 LINE",
"392 -169 LINE",
"485 537 LINE",
"438 537 LINE",
"395 460 LINE",
"358 497 OFFCURVE",
"307 509 OFFCURVE",
"274 509 CURVE SMOOTH"
);
},
{
closed = 1;
nodes = (
"297 427 OFFCURVE",
"324 415 OFFCURVE",
"352 387 CURVE",
"347 349 LINE SMOOTH",
"329 216 OFFCURVE",
"290 71 OFFCURVE",
"199 71 CURVE SMOOTH",
"140 71 OFFCURVE",
"126 134 OFFCURVE",
"126 197 CURVE SMOOTH",
"126 268 OFFCURVE",
"159 427 OFFCURVE",
"266 427 CURVE SMOOTH"
);
}
);
};
layerId = "38588886-3B3E-4A1D-B58B-01CA69B4ACA2";
paths = (
{
closed = 1;
nodes = (
"359 407 LINE",
"348 334 LINE SMOOTH",
"328 204 OFFCURVE",
"294 70 OFFCURVE",
"209 70 CURVE SMOOTH",
"157 70 OFFCURVE",
"138 132 OFFCURVE",
"138 204 CURVE SMOOTH",
"138 340 OFFCURVE",
"195 427 OFFCURVE",
"280 427 CURVE SMOOTH",
"320 427 OFFCURVE",
"360 407 OFFCURVE",
"406 365 CURVE",
"406 450 LINE",
"370 494 OFFCURVE",
"309 509 OFFCURVE",
"274 509 CURVE SMOOTH",
"104 509 OFFCURVE",
"21 347 OFFCURVE",
"21 201 CURVE SMOOTH",
"21 87 OFFCURVE",
"69 -12 OFFCURVE",
"186 -12 CURVE SMOOTH",
"229 -12 OFFCURVE",
"271 4 OFFCURVE",
"301 33 CURVE",
"305 33 LINE",
"270 -224 LINE",
"397 -224 LINE",
"392 -169 LINE",
"484 500 LINE",
"421 500 LINE"
);
}
);
width = 497;
}
);
leftKerningGroup = c;
leftMetricsKey = o;
note = q;
unicode = 0071;
},
{
glyphname = r;
layers = (
{
anchors = (
{
name = bottom;
position = "{88, 0}";
},
{
name = top;
position = "{201, 490}";
}
);
background = {
paths = (
{
closed = 1;
nodes = (
"214 369 OFFCURVE",
"225 380 OFFCURVE",
"225 395 CURVE SMOOTH",
"225 409 OFFCURVE",
"214 420 OFFCURVE",
"200 420 CURVE SMOOTH",
"185 420 OFFCURVE",
"174 409 OFFCURVE",
"174 395 CURVE SMOOTH",
"174 380 OFFCURVE",
"185 369 OFFCURVE",
"200 369 CURVE SMOOTH"
);
}
);
};
layerId = "C7717117-F750-4912-BA39-B64C3F969EBE";
paths = (
{
closed = 1;
nodes = (
"76 491 LINE",
"90 466 OFFCURVE",
"93 427 OFFCURVE",
"93 405 CURVE SMOOTH",
"93 389 OFFCURVE",
"92 374 OFFCURVE",
"90 358 CURVE SMOOTH",
"44 0 LINE",
"127 0 LINE",
"170 321 LINE",
"209 375 OFFCURVE",
"255 411 OFFCURVE",
"322 411 CURVE",
"354 502 LINE",
"283 502 OFFCURVE",
"217 460 OFFCURVE",
"178 411 CURVE",
"178 451 OFFCURVE",
"176 476 OFFCURVE",
"168 502 CURVE"
);
}
);
width = 334;
},
{
anchors = (
{
name = bottom;
position = "{86, 0}";
},
{
name = top;
position = "{196, 497}";
}
);
background = {
paths = (
{
closed = 1;
nodes = (
"246 345 OFFCURVE",
"262 361 OFFCURVE",
"262 381 CURVE SMOOTH",
"262 400 OFFCURVE",
"246 416 OFFCURVE",
"227 416 CURVE SMOOTH",
"207 416 OFFCURVE",
"191 400 OFFCURVE",
"191 381 CURVE SMOOTH",
"191 361 OFFCURVE",
"207 345 OFFCURVE",
"227 345 CURVE SMOOTH"
);
}
);
};
layerId = "38588886-3B3E-4A1D-B58B-01CA69B4ACA2";
paths = (
{
closed = 1;
nodes = (
"64 497 LINE",
"78 474 OFFCURVE",
"80 439 OFFCURVE",
"80 413 CURVE SMOOTH",
"80 396 OFFCURVE",
"78 376 OFFCURVE",
"76 363 CURVE SMOOTH",
"28 0 LINE",
"142 0 LINE",
"182 289 LINE",
"227 349 OFFCURVE",
"275 381 OFFCURVE",
"331 381 CURVE",
"366 507 LINE",
"299 507 OFFCURVE",
"232 454 OFFCURVE",
"195 402 CURVE",
"198 431 OFFCURVE",
"194 479 OFFCURVE",
"186 507 CURVE"
);
}
);
width = 335;
}
);
leftKerningGroup = m;
leftMetricsKey = n;
note = r;
rightKerningGroup = r;
unicode = 0072;
},
{
glyphname = s;
layers = (
{
anchors = (
{
name = bottom;
position = "{153, 0}";
},
{
name = top;
position = "{220, 490}";
}
);
layerId = "C7717117-F750-4912-BA39-B64C3F969EBE";
paths = (
{
closed = 1;
nodes = (
"361 470 LINE",
"326 491 OFFCURVE",
"284 503 OFFCURVE",
"240 503 CURVE SMOOTH",
"149 503 OFFCURVE",
"59 457 OFFCURVE",
"59 349 CURVE SMOOTH",
"59 223 OFFCURVE",
"248 225 OFFCURVE",
"248 130 CURVE SMOOTH",
"248 75 OFFCURVE",
"198 49 OFFCURVE",
"150 49 CURVE SMOOTH",
"117 49 OFFCURVE",
"78 65 OFFCURVE",
"49 89 CURVE",
"6 28 LINE",
"50 2 OFFCURVE",
"98 -13 OFFCURVE",
"153 -13 CURVE SMOOTH",
"246 -13 OFFCURVE",
"331 39 OFFCURVE",
"331 139 CURVE SMOOTH",
"331 279 OFFCURVE",
"141 282 OFFCURVE",
"141 364 CURVE SMOOTH",
"141 414 OFFCURVE",
"188 441 OFFCURVE",
"235 441 CURVE SMOOTH",
"268 441 OFFCURVE",
"298 431 OFFCURVE",
"327 410 CURVE"
);
}
);
width = 376;
},
{
anchors = (
{
name = bottom;
position = "{152, 0}";
},
{
name = top;
position = "{219, 497}";
}
);
layerId = "38588886-3B3E-4A1D-B58B-01CA69B4ACA2";
paths = (
{
closed = 1;
nodes = (
"379 479 LINE",
"340 500 OFFCURVE",
"287 510 OFFCURVE",
"243 510 CURVE SMOOTH",
"139 510 OFFCURVE",
"38 460 OFFCURVE",
"38 342 CURVE SMOOTH",
"38 209 OFFCURVE",
"219 231 OFFCURVE",
"219 147 CURVE SMOOTH",
"219 101 OFFCURVE",
"182 71 OFFCURVE",
"139 71 CURVE SMOOTH",
"101 71 OFFCURVE",
"67 94 OFFCURVE",
"37 114 CURVE",
"-15 32 LINE",
"27 5 OFFCURVE",
"87 -12 OFFCURVE",
"137 -12 CURVE SMOOTH",
"246 -12 OFFCURVE",
"346 49 OFFCURVE",
"346 172 CURVE SMOOTH",
"346 311 OFFCURVE",
"166 291 OFFCURVE",
"166 369 CURVE SMOOTH",
"166 409 OFFCURVE",
"202 426 OFFCURVE",
"238 426 CURVE SMOOTH",
"270 426 OFFCURVE",
"304 417 OFFCURVE",
"327 395 CURVE"
);
}
);
width = 371;
}
);
leftKerningGroup = s;
note = s;
unicode = 0073;
},
{
glyphname = germandbls;
layers = (
{
layerId = "C7717117-F750-4912-BA39-B64C3F969EBE";
paths = (
{
closed = 1;
nodes = (
"-127 -216 OFFCURVE",
"-98 -230 OFFCURVE",
"-43 -230 CURVE SMOOTH",
"47 -230 OFFCURVE",
"106 -177 OFFCURVE",
"122 -61 CURVE SMOOTH",
"197 488 LINE SMOOTH",
"208 568 OFFCURVE",
"243 666 OFFCURVE",
"335 666 CURVE SMOOTH",
"377 666 OFFCURVE",
"400 642 OFFCURVE",
"400 603 CURVE SMOOTH",
"400 490 OFFCURVE",
"243 465 OFFCURVE",
"243 349 CURVE SMOOTH",
"243 215 OFFCURVE",
"406 226 OFFCURVE",
"406 130 CURVE SMOOTH",
"406 78 OFFCURVE",
"368 50 OFFCURVE",
"321 50 CURVE SMOOTH",
"289 50 OFFCURVE",
"253 62 OFFCURVE",
"223 89 CURVE",
"180 28 LINE",
"225 0 OFFCURVE",
"275 -13 OFFCURVE",
"321 -13 CURVE SMOOTH",
"412 -13 OFFCURVE",
"489 40 OFFCURVE",
"489 139 CURVE SMOOTH",
"489 276 OFFCURVE",
"325 263 OFFCURVE",
"325 364 CURVE SMOOTH",
"325 438 OFFCURVE",
"484 465 OFFCURVE",
"484 610 CURVE SMOOTH",
"484 684 OFFCURVE",
"423 733 OFFCURVE",
"342 733 CURVE SMOOTH",
"210 733 OFFCURVE",
"163 650 OFFCURVE",
"125 534 CURVE SMOOTH",
"111 490 OFFCURVE",
"87 490 OFFCURVE",
"45 490 CURVE",
"37 427 LINE",
"109 427 LINE",
"44 -52 LINE SMOOTH",
"33 -135 OFFCURVE",
"-1 -166 OFFCURVE",
"-45 -166 CURVE SMOOTH",
"-79 -166 OFFCURVE",
"-88 -160 OFFCURVE",
"-115 -141 CURVE",
"-155 -198 LINE"
);
}
);
width = 541;
},
{
layerId = "38588886-3B3E-4A1D-B58B-01CA69B4ACA2";
paths = (
{
closed = 1;
nodes = (
"-203 -185 OFFCURVE",
"-158 -230 OFFCURVE",
"-72 -230 CURVE SMOOTH",
"40 -230 OFFCURVE",
"108 -159 OFFCURVE",
"124 -42 CURVE SMOOTH",
"192 464 LINE SMOOTH",
"202 535 OFFCURVE",
"228 647 OFFCURVE",
"318 647 CURVE SMOOTH",
"351 647 OFFCURVE",
"376 619 OFFCURVE",
"376 587 CURVE SMOOTH",
"376 480 OFFCURVE",
"216 474 OFFCURVE",
"216 342 CURVE SMOOTH",
"216 209 OFFCURVE",
"397 231 OFFCURVE",
"397 147 CURVE SMOOTH",
"397 101 OFFCURVE",
"360 71 OFFCURVE",
"317 71 CURVE SMOOTH",
"279 71 OFFCURVE",
"246 94 OFFCURVE",
"225 114 CURVE",
"173 32 LINE",
"206 5 OFFCURVE",
"265 -12 OFFCURVE",
"315 -12 CURVE SMOOTH",
"424 -12 OFFCURVE",
"524 49 OFFCURVE",
"524 172 CURVE SMOOTH",
"524 311 OFFCURVE",
"344 291 OFFCURVE",
"344 369 CURVE SMOOTH",
"344 430 OFFCURVE",
"504 443 OFFCURVE",
"504 604 CURVE SMOOTH",
"504 705 OFFCURVE",
"421 744 OFFCURVE",
"330 744 CURVE SMOOTH",
"204 744 OFFCURVE",
"136 678 OFFCURVE",
"90 550 CURVE SMOOTH",
"77 514 OFFCURVE",
"55 497 OFFCURVE",
"6 497 CURVE",
"-6 406 LINE",
"66 406 LINE",
"5 -44 LINE SMOOTH",
"-5 -120 OFFCURVE",
"-30 -140 OFFCURVE",
"-80 -140 CURVE SMOOTH",
"-120 -140 OFFCURVE",
"-156 -101 OFFCURVE",
"-156 -101 CURVE",
"-203 -185 LINE"
);
}
);
width = 536;
}
);
leftKerningGroup = f;
note = germandbls;
rightKerningGroup = germandbls;
unicode = 00DF;
},
{
glyphname = longs;
layers = (
{
layerId = "C7717117-F750-4912-BA39-B64C3F969EBE";
paths = (
{
closed = 1;
nodes = (
"178 770 OFFCURVE",
"135 634 OFFCURVE",
"118 490 CURVE",
"46 490 LINE",
"38 427 LINE",
"109 427 LINE",
"44 -52 LINE SMOOTH",
"33 -136 OFFCURVE",
"-1 -166 OFFCURVE",
"-45 -166 CURVE SMOOTH",
"-78 -166 OFFCURVE",
"-89 -159 OFFCURVE",
"-115 -141 CURVE",
"-155 -198 LINE",
"-127 -216 OFFCURVE",
"-98 -230 OFFCURVE",
"-43 -230 CURVE SMOOTH",
"47 -230 OFFCURVE",
"106 -176 OFFCURVE",
"122 -61 CURVE SMOOTH",
"197 490 LINE SMOOTH",
"209 593 OFFCURVE",
"235 707 OFFCURVE",
"343 707 CURVE SMOOTH",
"371 707 OFFCURVE",
"397 694 OFFCURVE",
"418 672 CURVE",
"457 731 LINE",
"425 753 OFFCURVE",
"391 770 OFFCURVE",
"337 770 CURVE SMOOTH"
);
}
);
width = 250;
},
{
layerId = "38588886-3B3E-4A1D-B58B-01CA69B4ACA2";
paths = (
{
closed = 1;
nodes = (
"182 776 OFFCURVE",
"127 650 OFFCURVE",
"107 497 CURVE",
"28 497 LINE",
"18 414 LINE",
"97 414 LINE",
"36 -35 LINE SMOOTH",
"29 -85 OFFCURVE",
"12 -151 OFFCURVE",
"-49 -151 CURVE SMOOTH",
"-71 -151 OFFCURVE",
"-106 -135 OFFCURVE",
"-122 -120 CURVE",
"-170 -186 LINE",
"-142 -219 OFFCURVE",
"-73 -230 OFFCURVE",
"-33 -230 CURVE SMOOTH",
"84 -230 OFFCURVE",
"134 -155 OFFCURVE",
"149 -47 CURVE SMOOTH",
"222 497 LINE SMOOTH",
"232 567 OFFCURVE",
"262 694 OFFCURVE",
"354 694 CURVE SMOOTH",
"397 694 OFFCURVE",
"421 682 OFFCURVE",
"452 654 CURVE",
"501 733 LINE",
"463 759 OFFCURVE",
"403 776 OFFCURVE",
"357 776 CURVE SMOOTH"
);
}
);
width = 301;
}
);
unicode = 017F;
},
{
glyphname = t;
layers = (
{
anchors = (
{
name = bottom;
position = "{119, 0}";
},
{
name = center;
position = "{122, 264}";
},
{
name = topright;
position = "{77, 490}";
}
);
background = {
paths = (
{
closed = 1;
nodes = (
"166 639 LINE",
"146 576 OFFCURVE",
"110 486 OFFCURVE",
"31 484 CURVE",
"25 434 LINE",
"99 434 LINE",
"60 118 LINE SMOOTH",
"50 36 OFFCURVE",
"73 -11 OFFCURVE",
"158 -11 CURVE SMOOTH",
"196 -11 OFFCURVE",
"225 -3 OFFCURVE",
"259 7 CURVE",
"252 63 LINE",
"232 58 OFFCURVE",
"209 53 OFFCURVE",
"188 53 CURVE SMOOTH",
"145 53 OFFCURVE",
"138 77 OFFCURVE",
"143 116 CURVE SMOOTH",
"182 434 LINE",
"294 434 LINE",
"319 497 LINE",
"189 497 LINE",
"195 543 OFFCURVE",
"212 594 OFFCURVE",
"229 639 CURVE"
);
}
);
};
layerId = "C7717117-F750-4912-BA39-B64C3F969EBE";
paths = (
{
closed = 1;
nodes = (
"164 631 LINE",
"128 521 OFFCURVE",
"95 490 OFFCURVE",
"41 490 CURVE",
"32 427 LINE",
"101 427 LINE",
"60 116 LINE",
"60 116 OFFCURVE",
"57 92 OFFCURVE",
"57 81 CURVE SMOOTH",
"57 0 OFFCURVE",
"104 -13 OFFCURVE",
"152 -13 CURVE SMOOTH",
"195 -13 OFFCURVE",
"248 7 OFFCURVE",
"248 7 CURVE",
"241 60 LINE",
"213 53 OFFCURVE",
"191 49 OFFCURVE",
"176 49 CURVE SMOOTH",
"147 49 OFFCURVE",
"137 64 OFFCURVE",
"137 89 CURVE SMOOTH",
"137 95 OFFCURVE",
"139 110 OFFCURVE",
"139 110 CURVE",
"180 427 LINE",
"282 427 LINE",
"302 490 LINE",
"189 490 LINE",
"200 542 OFFCURVE",
"211 580 OFFCURVE",
"226 631 CURVE"
);
}
);
width = 287;
},
{
anchors = (
{
name = bottom;
position = "{129, 0}";
},
{
name = center;
position = "{132, 264}";
},
{
name = topright;
position = "{87, 497}";
}
);
background = {
paths = (
{
closed = 1;
nodes = (
"323 414 LINE",
"335 497 LINE",
"220 497 LINE",
"251 633 LINE",
"124 633 LINE",
"105 497 LINE",
"36 497 LINE",
"25 414 LINE",
"94 414 LINE",
"54 116 LINE SMOOTH",
"52 104 OFFCURVE",
"51 92 OFFCURVE",
"51 82 CURVE SMOOTH",
"51 23 OFFCURVE",
"79 -10 OFFCURVE",
"155 -10 CURVE SMOOTH",
"194 -10 OFFCURVE",
"252 1 OFFCURVE",
"289 13 CURVE",
"278 82 LINE",
"254 76 OFFCURVE",
"228 72 OFFCURVE",
"203 72 CURVE SMOOTH",
"176 72 OFFCURVE",
"170 90 OFFCURVE",
"170 111 CURVE SMOOTH",
"170 120 OFFCURVE",
"171 130 OFFCURVE",
"172 139 CURVE SMOOTH",
"208 414 LINE"
);
}
);
};
layerId = "38588886-3B3E-4A1D-B58B-01CA69B4ACA2";
paths = (
{
closed = 1;
nodes = (
"163 633 LINE",
"132 529 OFFCURVE",
"112 497 OFFCURVE",
"36 497 CURVE",
"25 414 LINE",
"94 414 LINE",
"54 116 LINE SMOOTH",
"52 104 OFFCURVE",
"51 92 OFFCURVE",
"51 82 CURVE SMOOTH",
"51 23 OFFCURVE",
"79 -10 OFFCURVE",
"155 -10 CURVE SMOOTH",
"194 -10 OFFCURVE",
"252 1 OFFCURVE",
"289 13 CURVE",
"278 82 LINE",
"254 76 OFFCURVE",
"228 72 OFFCURVE",
"203 72 CURVE SMOOTH",
"176 72 OFFCURVE",
"170 90 OFFCURVE",
"170 111 CURVE SMOOTH",
"170 120 OFFCURVE",
"171 130 OFFCURVE",
"172 139 CURVE SMOOTH",
"208 414 LINE",
"308 414 LINE",
"335 497 LINE",
"220 497 LINE",
"228 542 OFFCURVE",
"239 588 OFFCURVE",
"251 633 CURVE"
);
}
);
width = 315;
}
);
leftKerningGroup = t;
note = t;
unicode = 0074;
},
{
glyphname = tbar;
layers = (
{
layerId = "C7717117-F750-4912-BA39-B64C3F969EBE";
paths = (
{
closed = 1;
nodes = (
"164 631 LINE",
"128 521 OFFCURVE",
"95 490 OFFCURVE",
"41 490 CURVE",
"32 427 LINE",
"101 427 LINE",
"60 116 LINE",
"60 116 OFFCURVE",
"57 92 OFFCURVE",
"57 81 CURVE SMOOTH",
"57 0 OFFCURVE",
"104 -13 OFFCURVE",
"152 -13 CURVE SMOOTH",
"195 -13 OFFCURVE",
"248 7 OFFCURVE",
"248 7 CURVE",
"241 60 LINE",
"213 53 OFFCURVE",
"191 49 OFFCURVE",
"176 49 CURVE SMOOTH",
"147 49 OFFCURVE",
"137 64 OFFCURVE",
"137 89 CURVE SMOOTH",
"137 95 OFFCURVE",
"139 110 OFFCURVE",
"139 110 CURVE",
"180 427 LINE",
"282 427 LINE",
"302 490 LINE",
"189 490 LINE",
"200 542 OFFCURVE",
"211 580 OFFCURVE",
"226 631 CURVE"
);
},
{
closed = 1;
nodes = (
"6 232 LINE",
"267 232 LINE",
"277 297 LINE",
"16 297 LINE"
);
}
);
width = 287;
},
{
layerId = "38588886-3B3E-4A1D-B58B-01CA69B4ACA2";
paths = (
{
closed = 1;
nodes = (
"163 633 LINE",
"132 529 OFFCURVE",
"112 497 OFFCURVE",
"36 497 CURVE",
"25 414 LINE",
"94 414 LINE",
"54 116 LINE SMOOTH",
"52 104 OFFCURVE",
"51 92 OFFCURVE",
"51 82 CURVE SMOOTH",
"51 23 OFFCURVE",
"79 -10 OFFCURVE",
"155 -10 CURVE SMOOTH",
"194 -10 OFFCURVE",
"252 1 OFFCURVE",
"289 13 CURVE",
"278 82 LINE",
"254 76 OFFCURVE",
"228 72 OFFCURVE",
"203 72 CURVE SMOOTH",
"176 72 OFFCURVE",
"170 90 OFFCURVE",
"170 111 CURVE SMOOTH",
"170 120 OFFCURVE",
"171 130 OFFCURVE",
"172 139 CURVE SMOOTH",
"208 414 LINE",
"308 414 LINE",
"335 497 LINE",
"220 497 LINE",
"228 542 OFFCURVE",
"239 588 OFFCURVE",
"251 633 CURVE"
);
},
{
closed = 1;
nodes = (
"-1 221 LINE",
"296 221 LINE",
"308 306 LINE",
"11 306 LINE"
);
}
);
width = 315;
}
);
unicode = 0167;
},
{
glyphname = u;
layers = (
{
anchors = (
{
name = bottom;
position = "{195, 0}";
},
{
name = ogonek;
position = "{428, 0}";
},
{
name = top;
position = "{268, 490}";
},
{
name = topright;
position = "{326, 502}";
}
);
background = {
paths = (
{
closed = 1;
nodes = (
"312 52 OFFCURVE",
"323 63 OFFCURVE",
"323 78 CURVE SMOOTH",
"323 92 OFFCURVE",
"312 103 OFFCURVE",
"298 103 CURVE SMOOTH",
"283 103 OFFCURVE",
"272 92 OFFCURVE",
"272 78 CURVE SMOOTH",
"272 63 OFFCURVE",
"283 52 OFFCURVE",
"298 52 CURVE SMOOTH"
);
}
);
};
layerId = "C7717117-F750-4912-BA39-B64C3F969EBE";
paths = (
{
closed = 1;
nodes = (
"81 490 LINE",
"81 433 LINE",
"43 159 LINE SMOOTH",
"41 145 OFFCURVE",
"40 132 OFFCURVE",
"40 119 CURVE SMOOTH",
"40 40 OFFCURVE",
"79 -13 OFFCURVE",
"168 -13 CURVE SMOOTH",
"271 -13 OFFCURVE",
"311 50 OFFCURVE",
"325 71 CURVE",
"329 71 LINE",
"329 12 OFFCURVE",
"374 -12 OFFCURVE",
"408 -12 CURVE SMOOTH",
"439 -12 OFFCURVE",
"483 11 OFFCURVE",
"483 11 CURVE",
"472 63 LINE",
"472 63 OFFCURVE",
"451 53 OFFCURVE",
"431 53 CURVE SMOOTH",
"415 53 OFFCURVE",
"403 63 OFFCURVE",
"403 95 CURVE SMOOTH",
"403 102 OFFCURVE",
"404 111 OFFCURVE",
"405 121 CURVE",
"456 490 LINE",
"368 490 LINE",
"368 432 LINE",
"346 279 LINE SMOOTH",
"320 95 OFFCURVE",
"243 49 OFFCURVE",
"189 49 CURVE SMOOTH",
"145 49 OFFCURVE",
"122 73 OFFCURVE",
"122 130 CURVE SMOOTH",
"122 142 OFFCURVE",
"123 156 OFFCURVE",
"125 171 CURVE SMOOTH",
"168 490 LINE"
);
}
);
width = 510;
},
{
anchors = (
{
name = bottom;
position = "{206, 0}";
},
{
name = ogonek;
position = "{403, 0}";
},
{
name = top;
position = "{274, 497}";
},
{
name = topright;
position = "{304, 508}";
}
);
layerId = "38588886-3B3E-4A1D-B58B-01CA69B4ACA2";
paths = (
{
closed = 1;
nodes = (
"65 497 LINE",
"70 453 LINE",
"30 146 LINE",
"28 134 OFFCURVE",
"27 122 OFFCURVE",
"27 111 CURVE SMOOTH",
"27 29 OFFCURVE",
"72 -11 OFFCURVE",
"153 -11 CURVE SMOOTH",
"208 -11 OFFCURVE",
"275 13 OFFCURVE",
"310 59 CURVE",
"314 59 LINE",
"322 20 OFFCURVE",
"355 -9 OFFCURVE",
"396 -9 CURVE SMOOTH",
"429 -9 OFFCURVE",
"475 3 OFFCURVE",
"504 22 CURVE",
"487 85 LINE",
"474 80 OFFCURVE",
"452 73 OFFCURVE",
"439 73 CURVE SMOOTH",
"418 73 OFFCURVE",
"414 92 OFFCURVE",
"414 109 CURVE SMOOTH",
"414 116 OFFCURVE",
"415 123 OFFCURVE",
"416 130 CURVE SMOOTH",
"470 497 LINE",
"342 497 LINE",
"348 453 LINE",
"329 307 LINE SMOOTH",
"319 231 OFFCURVE",
"284 84 OFFCURVE",
"196 84 CURVE SMOOTH",
"158 84 OFFCURVE",
"147 108 OFFCURVE",
"147 142 CURVE SMOOTH",
"147 151 OFFCURVE",
"148 160 OFFCURVE",
"149 169 CURVE SMOOTH",
"192 497 LINE"
);
}
);
width = 499;
}
);
leftKerningGroup = u;
note = u;
rightKerningGroup = a;
unicode = 0075;
},
{
glyphname = uhorn;
layers = (
{
anchors = (
{
name = bottom;
position = "{195, 0}";
},
{
name = top;
position = "{273, 490}";
}
);
layerId = "C7717117-F750-4912-BA39-B64C3F969EBE";
paths = (
{
closed = 1;
nodes = (
"81 490 LINE",
"81 433 LINE",
"43 159 LINE SMOOTH",
"41 145 OFFCURVE",
"40 132 OFFCURVE",
"40 119 CURVE SMOOTH",
"40 40 OFFCURVE",
"79 -13 OFFCURVE",
"168 -13 CURVE SMOOTH",
"271 -13 OFFCURVE",
"311 50 OFFCURVE",
"325 71 CURVE",
"329 71 LINE",
"329 12 OFFCURVE",
"374 -12 OFFCURVE",
"408 -12 CURVE SMOOTH",
"439 -12 OFFCURVE",
"483 11 OFFCURVE",
"483 11 CURVE",
"472 63 LINE",
"472 63 OFFCURVE",
"451 53 OFFCURVE",
"431 53 CURVE SMOOTH",
"415 53 OFFCURVE",
"403 63 OFFCURVE",
"403 95 CURVE SMOOTH",
"403 102 OFFCURVE",
"404 111 OFFCURVE",
"405 121 CURVE",
"456 490 LINE",
"368 490 LINE",
"368 432 LINE",
"346 279 LINE SMOOTH",
"320 95 OFFCURVE",
"243 49 OFFCURVE",
"189 49 CURVE SMOOTH",
"145 49 OFFCURVE",
"122 73 OFFCURVE",
"122 130 CURVE SMOOTH",
"122 142 OFFCURVE",
"123 156 OFFCURVE",
"125 171 CURVE SMOOTH",
"168 490 LINE"
);
},
{
closed = 1;
nodes = (
"370 440 LINE",
"505 404 OFFCURVE",
"592 510 OFFCURVE",
"602 610 CURVE",
"503 610 LINE",
"502 540 OFFCURVE",
"466 490 OFFCURVE",
"414 490 CURVE"
);
}
);
width = 510;
},
{
anchors = (
{
name = bottom;
position = "{206, 0}";
},
{
name = top;
position = "{274, 497}";
}
);
layerId = "38588886-3B3E-4A1D-B58B-01CA69B4ACA2";
paths = (
{
closed = 1;
nodes = (
"65 497 LINE",
"70 453 LINE",
"30 146 LINE",
"28 134 OFFCURVE",
"27 122 OFFCURVE",
"27 111 CURVE SMOOTH",
"27 29 OFFCURVE",
"72 -11 OFFCURVE",
"153 -11 CURVE SMOOTH",
"208 -11 OFFCURVE",
"275 13 OFFCURVE",
"310 59 CURVE",
"314 59 LINE",
"322 20 OFFCURVE",
"355 -9 OFFCURVE",
"396 -9 CURVE SMOOTH",
"429 -9 OFFCURVE",
"475 3 OFFCURVE",
"504 22 CURVE",
"487 85 LINE",
"474 80 OFFCURVE",
"452 73 OFFCURVE",
"439 73 CURVE SMOOTH",
"418 73 OFFCURVE",
"414 92 OFFCURVE",
"414 109 CURVE SMOOTH",
"414 116 OFFCURVE",
"415 123 OFFCURVE",
"416 130 CURVE SMOOTH",
"470 497 LINE",
"342 497 LINE",
"348 453 LINE",
"329 307 LINE SMOOTH",
"319 231 OFFCURVE",
"284 84 OFFCURVE",
"196 84 CURVE SMOOTH",
"158 84 OFFCURVE",
"147 108 OFFCURVE",
"147 142 CURVE SMOOTH",
"147 151 OFFCURVE",
"148 160 OFFCURVE",
"149 169 CURVE SMOOTH",
"192 497 LINE"
);
},
{
closed = 1;
nodes = (
"352 443 LINE",
"514 407 OFFCURVE",
"585 528 OFFCURVE",
"591 628 CURVE",
"475 628 LINE",
"476 557 OFFCURVE",
"445 497 OFFCURVE",
"394 497 CURVE"
);
}
);
width = 499;
}
);
unicode = 01B0;
},
{
glyphname = v;
layers = (
{
layerId = "C7717117-F750-4912-BA39-B64C3F969EBE";
paths = (
{
closed = 1;
nodes = (
"42 490 LINE",
"143 -5 LINE",
"216 -5 LINE",
"451 490 LINE",
"376 490 LINE",
"315 361 OFFCURVE",
"251 233 OFFCURVE",
"200 104 CURVE",
"180 233 OFFCURVE",
"152 361 OFFCURVE",
"126 490 CURVE"
);
}
);
width = 418;
},
{
layerId = "38588886-3B3E-4A1D-B58B-01CA69B4ACA2";
paths = (
{
closed = 1;
nodes = (
"15 497 LINE",
"121 -4 LINE",
"227 -4 LINE",
"459 497 LINE",
"342 497 LINE",
"244 278 OFFCURVE",
"227 246 OFFCURVE",
"200 151 CURVE",
"195 218 OFFCURVE",
"187 262 OFFCURVE",
"137 497 CURVE"
);
}
);
width = 419;
}
);
leftKerningGroup = v;
note = v;
rightKerningGroup = v;
unicode = 0076;
},
{
glyphname = w;
layers = (
{
anchors = (
{
name = top;
position = "{345, 490}";
}
);
layerId = "C7717117-F750-4912-BA39-B64C3F969EBE";
paths = (
{
closed = 1;
nodes = (
"42 490 LINE",
"115 -5 LINE",
"173 -5 LINE",
"222 107 OFFCURVE",
"273 222 OFFCURVE",
"322 342 CURVE",
"338 220 OFFCURVE",
"353 107 OFFCURVE",
"370 -5 CURVE",
"428 -5 LINE",
"643 490 LINE",
"572 490 LINE",
"524 379 OFFCURVE",
"474 268 OFFCURVE",
"426 146 CURVE",
"410 267 OFFCURVE",
"394 379 OFFCURVE",
"377 490 CURVE",
"319 490 LINE",
"271 379 OFFCURVE",
"220 265 OFFCURVE",
"172 146 CURVE",
"157 265 OFFCURVE",
"141 379 OFFCURVE",
"124 490 CURVE"
);
}
);
width = 610;
},
{
anchors = (
{
name = top;
position = "{354, 497}";
}
);
layerId = "38588886-3B3E-4A1D-B58B-01CA69B4ACA2";
paths = (
{
closed = 1;
nodes = (
"15 497 LINE",
"89 -4 LINE",
"188 -4 LINE",
"267 176 OFFCURVE",
"300 240 OFFCURVE",
"320 335 CURVE SMOOTH",
"321 219 OFFCURVE",
"332 187 OFFCURVE",
"360 -4 CURVE",
"459 -4 LINE",
"678 497 LINE",
"563 497 LINE",
"485 309 OFFCURVE",
"464 259 OFFCURVE",
"442 173 CURVE",
"448 250 OFFCURVE",
"432 331 OFFCURVE",
"408 497 CURVE",
"296 497 LINE",
"205 281 OFFCURVE",
"188 246 OFFCURVE",
"171 173 CURVE",
"176 257 OFFCURVE",
"166 295 OFFCURVE",
"137 497 CURVE"
);
}
);
width = 638;
}
);
leftKerningGroup = v;
note = w;
rightKerningGroup = v;
unicode = 0077;
},
{
glyphname = x;
layers = (
{
background = {
paths = (
{
closed = 1;
nodes = (
"42 490 LINE",
"156 254 LINE",
"-36 0 LINE",
"43 0 LINE",
"188 191 LINE",
"279 0 LINE",
"370 0 LINE",
"244 261 LINE",
"421 490 LINE",
"342 490 LINE",
"212 324 LINE",
"131 490 LINE"
);
}
);
};
layerId = "C7717117-F750-4912-BA39-B64C3F969EBE";
paths = (
{
closed = 1;
nodes = (
"42 490 LINE",
"279 0 LINE",
"370 0 LINE",
"131 490 LINE"
);
},
{
closed = 1;
nodes = (
"-36 0 LINE",
"54 0 LINE",
"421 490 LINE",
"331 490 LINE"
);
}
);
width = 388;
},
{
background = {
paths = (
{
closed = 1;
nodes = (
"67 497 LINE",
"187 264 LINE",
"-20 0 LINE",
"110 0 LINE",
"230 165 LINE",
"306 0 LINE",
"439 0 LINE",
"305 267 LINE",
"484 497 LINE",
"355 497 LINE",
"260 365 LINE",
"199 497 LINE"
);
}
);
};
layerId = "38588886-3B3E-4A1D-B58B-01CA69B4ACA2";
paths = (
{
closed = 1;
nodes = (
"67 497 LINE",
"306 0 LINE",
"439 0 LINE",
"199 497 LINE"
);
},
{
closed = 1;
nodes = (
"-20 0 LINE",
"114 0 LINE",
"484 497 LINE",
"351 497 LINE"
);
}
);
width = 464;
}
);
leftKerningGroup = x;
note = x;
rightKerningGroup = x;
unicode = 0078;
},
{
glyphname = y;
layers = (
{
anchors = (
{
name = bottom;
position = "{283, 0}";
},
{
name = top;
position = "{245, 490}";
}
);
background = {
paths = (
{
closed = 1;
nodes = (
"45 490 LINE",
"149 3 LINE",
"100 -111 OFFCURVE",
"50 -164 OFFCURVE",
"-41 -164 CURVE SMOOTH",
"-73 -164 OFFCURVE",
"-86 -156 OFFCURVE",
"-114 -143 CURVE",
"-152 -203 LINE",
"-125 -219 OFFCURVE",
"-85 -230 OFFCURVE",
"-46 -230 CURVE SMOOTH",
"74 -230 OFFCURVE",
"155 -155 OFFCURVE",
"203 -51 CURVE SMOOTH",
"451 490 LINE",
"375 490 LINE",
"318 366 OFFCURVE",
"258 241 OFFCURVE",
"201 108 CURVE",
"179 237 OFFCURVE",
"154 366 OFFCURVE",
"130 490 CURVE"
);
}
);
};
layerId = "C7717117-F750-4912-BA39-B64C3F969EBE";
paths = (
{
closed = 1;
nodes = (
"-40 -230 LINE",
"77 -227 OFFCURVE",
"156 -153 OFFCURVE",
"203 -51 CURVE SMOOTH",
"451 490 LINE",
"375 490 LINE",
"318 366 OFFCURVE",
"258 241 OFFCURVE",
"201 108 CURVE",
"179 237 OFFCURVE",
"154 366 OFFCURVE",
"130 490 CURVE",
"45 490 LINE",
"149 3 LINE",
"102 -107 OFFCURVE",
"54 -160 OFFCURVE",
"-31 -164 CURVE"
);
}
);
width = 409;
},
{
anchors = (
{
name = bottom;
position = "{283, 0}";
},
{
name = top;
position = "{237, 497}";
}
);
background = {
paths = (
{
closed = 1;
nodes = (
"15 497 LINE",
"120 1 LINE",
"90 -57 OFFCURVE",
"40 -150 OFFCURVE",
"-48 -150 CURVE SMOOTH",
"-97 -150 OFFCURVE",
"-136 -113 OFFCURVE",
"-136 -113 CURVE",
"-187 -190 LINE",
"-187 -190 OFFCURVE",
"-137 -230 OFFCURVE",
"-47 -230 CURVE SMOOTH",
"114 -230 OFFCURVE",
"179 -103 OFFCURVE",
"226 -3 CURVE SMOOTH",
"459 497 LINE",
"347 497 LINE",
"276 342 OFFCURVE",
"232 270 OFFCURVE",
"196 146 CURVE",
"190 281 OFFCURVE",
"168 348 OFFCURVE",
"137 497 CURVE"
);
}
);
};
layerId = "38588886-3B3E-4A1D-B58B-01CA69B4ACA2";
paths = (
{
closed = 1;
nodes = (
"-57 -230 LINE",
"99 -230 OFFCURVE",
"163 -137 OFFCURVE",
"226 -3 CURVE SMOOTH",
"459 497 LINE",
"347 497 LINE",
"276 342 OFFCURVE",
"232 270 OFFCURVE",
"196 146 CURVE",
"190 281 OFFCURVE",
"168 348 OFFCURVE",
"137 497 CURVE",
"15 497 LINE",
"120 1 LINE",
"90 -57 OFFCURVE",
"40 -150 OFFCURVE",
"-48 -150 CURVE"
);
}
);
width = 419;
}
);
leftKerningGroup = v;
note = y;
rightKerningGroup = v;
unicode = 0079;
},
{
glyphname = z;
layers = (
{
anchors = (
{
name = top;
position = "{255, 490}";
}
);
background = {
paths = (
{
closed = 1;
nodes = (
"87 427 LINE",
"313 427 LINE",
"11 41 LINE",
"70 -10 LINE",
"423 443 LINE",
"423 490 LINE",
"96 490 LINE"
);
},
{
closed = 1;
nodes = (
"100 17 OFFCURVE",
"138 22 OFFCURVE",
"178 22 CURVE SMOOTH",
"238 22 OFFCURVE",
"304 11 OFFCURVE",
"356 -10 CURVE",
"385 55 LINE",
"343 76 OFFCURVE",
"289 86 OFFCURVE",
"234 86 CURVE SMOOTH",
"177 86 OFFCURVE",
"119 75 OFFCURVE",
"70 55 CURVE",
"70 7 LINE"
);
}
);
};
layerId = "C7717117-F750-4912-BA39-B64C3F969EBE";
paths = (
{
closed = 1;
nodes = (
"87 427 LINE",
"313 427 LINE",
"18 48 LINE",
"18 0 LINE",
"372 0 LINE",
"382 63 LINE",
"126 63 LINE",
"423 443 LINE",
"423 490 LINE",
"96 490 LINE"
);
}
);
width = 433;
},
{
anchors = (
{
name = top;
position = "{240, 497}";
}
);
background = {
paths = (
{
closed = 1;
nodes = (
"51 414 LINE",
"260 414 LINE",
"-14 57 LINE",
"71 -12 LINE",
"418 435 LINE",
"418 497 LINE",
"62 497 LINE"
);
},
{
closed = 1;
nodes = (
"102 18 OFFCURVE",
"147 22 OFFCURVE",
"186 22 CURVE SMOOTH",
"251 22 OFFCURVE",
"313 9 OFFCURVE",
"362 -11 CURVE",
"391 77 LINE",
"353 96 OFFCURVE",
"300 107 OFFCURVE",
"241 107 CURVE SMOOTH",
"185 107 OFFCURVE",
"125 97 OFFCURVE",
"70 73 CURVE",
"70 7 LINE"
);
}
);
};
guideLines = (
{
position = "{445, 7}";
}
);
layerId = "38588886-3B3E-4A1D-B58B-01CA69B4ACA2";
paths = (
{
closed = 1;
nodes = (
"51 414 LINE",
"260 414 LINE",
"-10 61 LINE",
"-10 0 LINE",
"373 0 LINE",
"384 84 LINE",
"145 84 LINE",
"418 435 LINE",
"418 497 LINE",
"62 497 LINE"
);
}
);
width = 418;
}
);
leftKerningGroup = z;
note = z;
rightKerningGroup = z;
unicode = 007A;
},
{
glyphname = f_f;
layers = (
{
layerId = "C7717117-F750-4912-BA39-B64C3F969EBE";
paths = (
{
closed = 1;
nodes = (
"-107 -222 LINE",
"13 -254 OFFCURVE",
"103 -197 OFFCURVE",
"122 -61 CURVE SMOOTH",
"189 427 LINE",
"401 427 LINE",
"409 490 LINE",
"197 490 LINE",
"209 593 OFFCURVE",
"219 707 OFFCURVE",
"313 707 CURVE SMOOTH",
"337 707 OFFCURVE",
"358 694 OFFCURVE",
"378 672 CURVE",
"417 731 LINE",
"388 752 OFFCURVE",
"350 770 OFFCURVE",
"307 770 CURVE SMOOTH",
"175 770 OFFCURVE",
"141 659 OFFCURVE",
"120 532 CURVE SMOOTH",
"113 488 OFFCURVE",
"70 490 OFFCURVE",
"46 490 CURVE",
"38 427 LINE",
"109 427 LINE",
"44 -52 LINE SMOOTH",
"33 -138 OFFCURVE",
"-9 -182 OFFCURVE",
"-93 -164 CURVE"
);
},
{
closed = 1;
nodes = (
"162 -222 LINE",
"282 -254 OFFCURVE",
"372 -197 OFFCURVE",
"391 -61 CURVE SMOOTH",
"458 427 LINE",
"570 427 LINE",
"578 490 LINE",
"466 490 LINE",
"478 593 OFFCURVE",
"498 707 OFFCURVE",
"612 707 CURVE SMOOTH",
"640 707 OFFCURVE",
"666 694 OFFCURVE",
"687 672 CURVE",
"726 731 LINE",
"694 753 OFFCURVE",
"660 770 OFFCURVE",
"606 770 CURVE SMOOTH",
"464 770 OFFCURVE",
"420 659 OFFCURVE",
"389 532 CURVE SMOOTH",
"378 488 OFFCURVE",
"339 490 OFFCURVE",
"315 490 CURVE",
"307 427 LINE",
"378 427 LINE",
"313 -52 LINE SMOOTH",
"302 -138 OFFCURVE",
"260 -182 OFFCURVE",
"176 -164 CURVE"
);
}
);
width = 538;
},
{
layerId = "38588886-3B3E-4A1D-B58B-01CA69B4ACA2";
paths = (
{
closed = 1;
nodes = (
"-120 -216 LINE",
"22 -260 OFFCURVE",
"127 -204 OFFCURVE",
"149 -47 CURVE SMOOTH",
"211 414 LINE",
"329 414 LINE",
"340 497 LINE",
"222 497 LINE",
"232 567 OFFCURVE",
"244 694 OFFCURVE",
"318 694 CURVE SMOOTH",
"351 694 OFFCURVE",
"373 680 OFFCURVE",
"402 654 CURVE",
"451 733 LINE",
"413 759 OFFCURVE",
"366 776 OFFCURVE",
"317 776 CURVE SMOOTH",
"175 776 OFFCURVE",
"141 660 OFFCURVE",
"117 545 CURVE SMOOTH",
"107 497 OFFCURVE",
"62 497 OFFCURVE",
"28 497 CURVE",
"18 414 LINE",
"97 414 LINE",
"36 -35 LINE SMOOTH",
"24 -121 OFFCURVE",
"-10 -174 OFFCURVE",
"-104 -149 CURVE"
);
},
{
closed = 1;
nodes = (
"179 -216 LINE",
"321 -260 OFFCURVE",
"426 -204 OFFCURVE",
"448 -47 CURVE SMOOTH",
"510 414 LINE",
"628 414 LINE",
"639 497 LINE",
"521 497 LINE",
"531 567 OFFCURVE",
"556 694 OFFCURVE",
"643 694 CURVE SMOOTH",
"686 694 OFFCURVE",
"710 682 OFFCURVE",
"741 654 CURVE",
"790 733 LINE",
"752 759 OFFCURVE",
"692 776 OFFCURVE",
"646 776 CURVE SMOOTH",
"484 776 OFFCURVE",
"451 660 OFFCURVE",
"416 545 CURVE SMOOTH",
"401 497 OFFCURVE",
"361 497 OFFCURVE",
"327 497 CURVE",
"317 414 LINE",
"396 414 LINE",
"335 -35 LINE SMOOTH",
"323 -121 OFFCURVE",
"289 -174 OFFCURVE",
"195 -149 CURVE"
);
}
);
width = 598;
}
);
leftMetricsKey = f;
rightMetricsKey = f;
},
{
glyphname = f_f_i;
layers = (
{
layerId = "C7717117-F750-4912-BA39-B64C3F969EBE";
paths = (
{
closed = 1;
nodes = (
"-107 -222 LINE",
"13 -254 OFFCURVE",
"103 -197 OFFCURVE",
"122 -61 CURVE SMOOTH",
"189 427 LINE",
"401 427 LINE",
"409 490 LINE",
"197 490 LINE",
"209 593 OFFCURVE",
"219 707 OFFCURVE",
"313 707 CURVE SMOOTH",
"337 707 OFFCURVE",
"358 694 OFFCURVE",
"378 672 CURVE",
"417 731 LINE",
"388 752 OFFCURVE",
"350 770 OFFCURVE",
"307 770 CURVE SMOOTH",
"175 770 OFFCURVE",
"141 659 OFFCURVE",
"120 532 CURVE SMOOTH",
"113 487 OFFCURVE",
"70 490 OFFCURVE",
"46 490 CURVE",
"38 427 LINE",
"109 427 LINE",
"44 -52 LINE SMOOTH",
"33 -138 OFFCURVE",
"-9 -182 OFFCURVE",
"-93 -164 CURVE"
);
},
{
closed = 1;
nodes = (
"162 -222 LINE",
"282 -254 OFFCURVE",
"373 -197 OFFCURVE",
"391 -62 CURVE SMOOTH",
"458 427 LINE",
"641 427 LINE",
"584 0 LINE",
"673 0 LINE",
"673 62 LINE",
"729 490 LINE",
"468 490 LINE",
"484 643 OFFCURVE",
"525 707 OFFCURVE",
"605 707 CURVE SMOOTH",
"648 707 OFFCURVE",
"678 682 OFFCURVE",
"683 635 CURVE",
"760 658 LINE",
"745 733 OFFCURVE",
"685 771 OFFCURVE",
"608 771 CURVE SMOOTH",
"464 771 OFFCURVE",
"421 658 OFFCURVE",
"389 532 CURVE SMOOTH",
"378 488 OFFCURVE",
"339 490 OFFCURVE",
"315 490 CURVE",
"307 427 LINE",
"378 427 LINE",
"313 -52 LINE SMOOTH",
"301 -139 OFFCURVE",
"260 -182 OFFCURVE",
"176 -164 CURVE"
);
}
);
width = 769;
},
{
background = {
hints = (
{
horizontal = 1;
place = "{-230, 79}";
type = Stem;
},
{
horizontal = 1;
place = "{0, 21}";
target = up;
type = BottomGhost;
},
{
horizontal = 1;
place = "{414, 83}";
type = Stem;
},
{
horizontal = 1;
place = "{694, 82}";
type = Stem;
},
{
place = "{129, 695}";
type = Stem;
}
);
paths = (
{
closed = 1;
nodes = (
"179 -216 LINE",
"319 -261 OFFCURVE",
"426 -203 OFFCURVE",
"448 -47 CURVE SMOOTH",
"510 414 LINE",
"683 414 LINE",
"627 0 LINE",
"751 0 LINE",
"749 55 LINE",
"808 497 LINE",
"521 497 LINE",
"532 590 OFFCURVE",
"558 694 OFFCURVE",
"643 694 CURVE SMOOTH",
"686 694 OFFCURVE",
"712 641 OFFCURVE",
"712 600 CURVE",
"824 631 LINE",
"800 749 OFFCURVE",
"695 776 OFFCURVE",
"649 776 CURVE SMOOTH",
"484 776 OFFCURVE",
"451 660 OFFCURVE",
"416 545 CURVE SMOOTH",
"401 497 OFFCURVE",
"361 497 OFFCURVE",
"327 497 CURVE",
"317 414 LINE",
"396 414 LINE",
"335 -35 LINE SMOOTH",
"322 -128 OFFCURVE",
"284 -173 OFFCURVE",
"195 -149 CURVE"
);
}
);
};
layerId = "38588886-3B3E-4A1D-B58B-01CA69B4ACA2";
paths = (
{
closed = 1;
nodes = (
"-120 -216 LINE",
"22 -260 OFFCURVE",
"127 -204 OFFCURVE",
"149 -47 CURVE SMOOTH",
"211 414 LINE",
"329 414 LINE",
"340 497 LINE",
"222 497 LINE",
"232 567 OFFCURVE",
"244 694 OFFCURVE",
"318 694 CURVE SMOOTH",
"351 694 OFFCURVE",
"373 680 OFFCURVE",
"402 654 CURVE",
"451 733 LINE",
"413 759 OFFCURVE",
"366 776 OFFCURVE",
"317 776 CURVE SMOOTH",
"175 776 OFFCURVE",
"141 660 OFFCURVE",
"117 545 CURVE SMOOTH",
"107 497 OFFCURVE",
"62 497 OFFCURVE",
"28 497 CURVE",
"18 414 LINE",
"97 414 LINE",
"36 -35 LINE SMOOTH",
"24 -121 OFFCURVE",
"-10 -174 OFFCURVE",
"-104 -149 CURVE"
);
},
{
closed = 1;
nodes = (
"179 -216 LINE",
"319 -261 OFFCURVE",
"426 -203 OFFCURVE",
"448 -47 CURVE SMOOTH",
"510 414 LINE",
"683 414 LINE",
"627 0 LINE",
"751 0 LINE",
"749 55 LINE",
"808 497 LINE",
"521 497 LINE",
"532 590 OFFCURVE",
"558 694 OFFCURVE",
"643 694 CURVE SMOOTH",
"686 694 OFFCURVE",
"712 641 OFFCURVE",
"712 600 CURVE",
"824 631 LINE",
"800 749 OFFCURVE",
"695 776 OFFCURVE",
"649 776 CURVE SMOOTH",
"484 776 OFFCURVE",
"451 660 OFFCURVE",
"416 545 CURVE SMOOTH",
"401 497 OFFCURVE",
"361 497 OFFCURVE",
"327 497 CURVE",
"317 414 LINE",
"396 414 LINE",
"335 -35 LINE SMOOTH",
"322 -128 OFFCURVE",
"284 -173 OFFCURVE",
"195 -149 CURVE"
);
}
);
width = 829;
}
);
leftMetricsKey = f;
rightMetricsKey = fi;
},
{
glyphname = f_f_l;
layers = (
{
layerId = "C7717117-F750-4912-BA39-B64C3F969EBE";
paths = (
{
closed = 1;
nodes = (
"-107 -222 LINE",
"13 -254 OFFCURVE",
"103 -197 OFFCURVE",
"122 -61 CURVE SMOOTH",
"189 427 LINE",
"401 427 LINE",
"409 490 LINE",
"197 490 LINE",
"209 593 OFFCURVE",
"219 707 OFFCURVE",
"313 707 CURVE SMOOTH",
"337 707 OFFCURVE",
"358 694 OFFCURVE",
"378 672 CURVE",
"417 731 LINE",
"388 752 OFFCURVE",
"350 770 OFFCURVE",
"307 770 CURVE SMOOTH",
"175 770 OFFCURVE",
"141 659 OFFCURVE",
"120 532 CURVE SMOOTH",
"113 488 OFFCURVE",
"70 490 OFFCURVE",
"46 490 CURVE",
"38 427 LINE",
"109 427 LINE",
"44 -52 LINE SMOOTH",
"33 -138 OFFCURVE",
"-9 -182 OFFCURVE",
"-93 -164 CURVE"
);
},
{
closed = 1;
nodes = (
"161 -222 LINE",
"278 -255 OFFCURVE",
"371 -198 OFFCURVE",
"390 -62 CURVE SMOOTH",
"458 427 LINE",
"570 427 LINE",
"579 490 LINE",
"467 490 LINE",
"487 643 OFFCURVE",
"523 709 OFFCURVE",
"613 709 CURVE SMOOTH",
"656 709 OFFCURVE",
"686 681 OFFCURVE",
"686 646 CURVE SMOOTH",
"686 625 OFFCURVE",
"627 215 OFFCURVE",
"598 0 CURVE",
"688 0 LINE",
"688 63 LINE",
"782 766 LINE",
"713 740 LINE",
"704 747 OFFCURVE",
"667 772 OFFCURVE",
"609 772 CURVE SMOOTH",
"463 772 OFFCURVE",
"419 659 OFFCURVE",
"388 531 CURVE SMOOTH",
"377 488 OFFCURVE",
"338 490 OFFCURVE",
"314 490 CURVE",
"306 427 LINE",
"377 427 LINE",
"312 -52 LINE SMOOTH",
"300 -142 OFFCURVE",
"254 -184 OFFCURVE",
"175 -164 CURVE"
);
}
);
width = 787;
},
{
layerId = "38588886-3B3E-4A1D-B58B-01CA69B4ACA2";
paths = (
{
closed = 1;
nodes = (
"-120 -216 LINE",
"22 -260 OFFCURVE",
"127 -204 OFFCURVE",
"149 -47 CURVE SMOOTH",
"211 414 LINE",
"329 414 LINE",
"340 497 LINE",
"222 497 LINE",
"232 567 OFFCURVE",
"244 694 OFFCURVE",
"318 694 CURVE SMOOTH",
"351 694 OFFCURVE",
"373 680 OFFCURVE",
"402 654 CURVE",
"451 733 LINE",
"413 759 OFFCURVE",
"366 776 OFFCURVE",
"317 776 CURVE SMOOTH",
"175 776 OFFCURVE",
"141 660 OFFCURVE",
"117 545 CURVE SMOOTH",
"107 497 OFFCURVE",
"62 497 OFFCURVE",
"28 497 CURVE",
"18 414 LINE",
"97 414 LINE",
"36 -35 LINE SMOOTH",
"24 -121 OFFCURVE",
"-10 -174 OFFCURVE",
"-104 -149 CURVE"
);
},
{
closed = 1;
nodes = (
"179 -216 LINE",
"321 -260 OFFCURVE",
"426 -203 OFFCURVE",
"448 -47 CURVE SMOOTH",
"510 414 LINE",
"628 414 LINE",
"639 497 LINE",
"521 497 LINE",
"533 572 OFFCURVE",
"553 694 OFFCURVE",
"653 694 CURVE SMOOTH",
"691 694 OFFCURVE",
"711 671 OFFCURVE",
"711 633 CURVE SMOOTH",
"711 616 OFFCURVE",
"699 531 OFFCURVE",
"628 0 CURVE",
"755 0 LINE",
"752 54 LINE",
"848 769 LINE",
"751 745 LINE",
"729 761 OFFCURVE",
"679 776 OFFCURVE",
"650 776 CURVE SMOOTH",
"484 776 OFFCURVE",
"451 660 OFFCURVE",
"416 545 CURVE SMOOTH",
"401 497 OFFCURVE",
"361 497 OFFCURVE",
"327 497 CURVE",
"317 414 LINE",
"396 414 LINE",
"335 -35 LINE SMOOTH",
"322 -127 OFFCURVE",
"284 -174 OFFCURVE",
"195 -149 CURVE"
);
}
);
width = 828;
}
);
leftMetricsKey = f;
rightMetricsKey = fl;
},
{
glyphname = f_iacute;
layers = (
{
layerId = "C7717117-F750-4912-BA39-B64C3F969EBE";
paths = (
{
closed = 1;
nodes = (
"-107 -222 LINE",
"13 -254 OFFCURVE",
"103 -197 OFFCURVE",
"122 -61 CURVE SMOOTH",
"189 427 LINE",
"421 427 LINE",
"429 490 LINE",
"197 490 LINE",
"209 593 OFFCURVE",
"219 707 OFFCURVE",
"331 707 CURVE SMOOTH",
"359 707 OFFCURVE",
"385 695 OFFCURVE",
"406 673 CURVE",
"449 731 LINE",
"417 753 OFFCURVE",
"381 770 OFFCURVE",
"327 770 CURVE SMOOTH",
"185 770 OFFCURVE",
"151 659 OFFCURVE",
"120 532 CURVE SMOOTH",
"109 488 OFFCURVE",
"70 490 OFFCURVE",
"46 490 CURVE",
"38 427 LINE",
"109 427 LINE",
"44 -52 LINE SMOOTH",
"33 -138 OFFCURVE",
"-9 -182 OFFCURVE",
"-93 -164 CURVE"
);
},
{
closed = 1;
nodes = (
"418 58 LINE",
"476 490 LINE",
"388 490 LINE",
"388 433 LINE",
"330 0 LINE",
"418 0 LINE"
);
},
{
closed = 1;
nodes = (
"402 581 LINE",
"480 581 LINE",
"642 733 LINE",
"520 733 LINE"
);
}
);
width = 517;
},
{
layerId = "38588886-3B3E-4A1D-B58B-01CA69B4ACA2";
paths = (
{
closed = 1;
nodes = (
"-120 -216 LINE",
"22 -260 OFFCURVE",
"127 -204 OFFCURVE",
"149 -47 CURVE SMOOTH",
"211 414 LINE",
"459 414 LINE",
"470 497 LINE",
"222 497 LINE",
"232 567 OFFCURVE",
"248 694 OFFCURVE",
"331 694 CURVE SMOOTH",
"371 694 OFFCURVE",
"397 686 OFFCURVE",
"428 658 CURVE",
"487 733 LINE",
"449 759 OFFCURVE",
"385 776 OFFCURVE",
"339 776 CURVE SMOOTH",
"177 776 OFFCURVE",
"152 660 OFFCURVE",
"117 545 CURVE SMOOTH",
"102 497 OFFCURVE",
"62 497 OFFCURVE",
"28 497 CURVE",
"18 414 LINE",
"97 414 LINE",
"36 -35 LINE SMOOTH",
"24 -121 OFFCURVE",
"-10 -174 OFFCURVE",
"-104 -149 CURVE"
);
},
{
closed = 1;
nodes = (
"468 55 LINE",
"527 497 LINE",
"403 497 LINE",
"406 443 LINE",
"347 0 LINE",
"471 0 LINE"
);
},
{
closed = 1;
nodes = (
"427 570 LINE",
"530 570 LINE",
"705 735 LINE",
"560 735 LINE"
);
}
);
width = 548;
}
);
leftMetricsKey = f;
rightMetricsKey = iacute;
},
{
glyphname = fi;
layers = (
{
background = {
hints = (
{
horizontal = 1;
place = "{-230, 64}";
type = Stem;
},
{
horizontal = 1;
place = "{427, 63}";
type = Stem;
},
{
horizontal = 1;
place = "{707, 63}";
type = Stem;
}
);
paths = (
{
closed = 1;
nodes = (
"-107 -222 LINE",
"13 -254 OFFCURVE",
"103 -197 OFFCURVE",
"122 -61 CURVE SMOOTH",
"189 427 LINE",
"301 427 LINE",
"309 490 LINE",
"197 490 LINE",
"209 593 OFFCURVE",
"229 707 OFFCURVE",
"343 707 CURVE SMOOTH",
"371 707 OFFCURVE",
"397 694 OFFCURVE",
"418 672 CURVE",
"457 731 LINE",
"425 753 OFFCURVE",
"391 770 OFFCURVE",
"337 770 CURVE SMOOTH",
"195 770 OFFCURVE",
"151 659 OFFCURVE",
"120 532 CURVE SMOOTH",
"109 488 OFFCURVE",
"70 490 OFFCURVE",
"46 490 CURVE",
"38 427 LINE",
"109 427 LINE",
"44 -52 LINE SMOOTH",
"33 -138 OFFCURVE",
"-9 -182 OFFCURVE",
"-93 -164 CURVE"
);
}
);
};
layerId = "C7717117-F750-4912-BA39-B64C3F969EBE";
paths = (
{
closed = 1;
nodes = (
"-107 -222 LINE",
"13 -254 OFFCURVE",
"104 -197 OFFCURVE",
"122 -62 CURVE SMOOTH",
"189 427 LINE",
"372 427 LINE",
"315 0 LINE",
"404 0 LINE",
"404 62 LINE",
"460 490 LINE",
"199 490 LINE",
"215 643 OFFCURVE",
"256 707 OFFCURVE",
"336 707 CURVE SMOOTH",
"379 707 OFFCURVE",
"409 682 OFFCURVE",
"414 635 CURVE",
"491 658 LINE",
"476 733 OFFCURVE",
"416 771 OFFCURVE",
"339 771 CURVE SMOOTH",
"195 771 OFFCURVE",
"152 658 OFFCURVE",
"120 532 CURVE SMOOTH",
"109 488 OFFCURVE",
"70 490 OFFCURVE",
"46 490 CURVE",
"38 427 LINE",
"109 427 LINE",
"44 -52 LINE SMOOTH",
"32 -139 OFFCURVE",
"-9 -182 OFFCURVE",
"-93 -164 CURVE"
);
}
);
width = 500;
},
{
background = {
paths = (
{
closed = 1;
nodes = (
"-120 -216 LINE",
"22 -260 OFFCURVE",
"127 -204 OFFCURVE",
"149 -47 CURVE SMOOTH",
"211 414 LINE",
"329 414 LINE",
"340 497 LINE",
"222 497 LINE",
"232 567 OFFCURVE",
"257 694 OFFCURVE",
"344 694 CURVE SMOOTH",
"387 694 OFFCURVE",
"411 682 OFFCURVE",
"442 654 CURVE",
"491 733 LINE",
"453 759 OFFCURVE",
"393 776 OFFCURVE",
"347 776 CURVE SMOOTH",
"185 776 OFFCURVE",
"152 660 OFFCURVE",
"117 545 CURVE SMOOTH",
"102 497 OFFCURVE",
"62 497 OFFCURVE",
"28 497 CURVE",
"18 414 LINE",
"97 414 LINE",
"36 -35 LINE SMOOTH",
"24 -121 OFFCURVE",
"-10 -174 OFFCURVE",
"-104 -149 CURVE"
);
}
);
};
layerId = "38588886-3B3E-4A1D-B58B-01CA69B4ACA2";
paths = (
{
closed = 1;
nodes = (
"-120 -216 LINE",
"20 -261 OFFCURVE",
"127 -203 OFFCURVE",
"149 -47 CURVE SMOOTH",
"211 414 LINE",
"384 414 LINE",
"328 0 LINE",
"452 0 LINE",
"450 55 LINE",
"509 497 LINE",
"222 497 LINE",
"233 590 OFFCURVE",
"259 694 OFFCURVE",
"344 694 CURVE SMOOTH",
"387 694 OFFCURVE",
"413 641 OFFCURVE",
"413 600 CURVE",
"525 631 LINE",
"501 749 OFFCURVE",
"396 776 OFFCURVE",
"350 776 CURVE SMOOTH",
"185 776 OFFCURVE",
"152 660 OFFCURVE",
"117 545 CURVE SMOOTH",
"102 497 OFFCURVE",
"62 497 OFFCURVE",
"28 497 CURVE",
"18 414 LINE",
"97 414 LINE",
"36 -35 LINE SMOOTH",
"23 -128 OFFCURVE",
"-15 -173 OFFCURVE",
"-104 -149 CURVE"
);
}
);
width = 530;
}
);
note = fi;
rightKerningGroup = i;
unicode = FB01;
},
{
glyphname = fl;
layers = (
{
background = {
hints = (
{
horizontal = 1;
place = "{-230, 64}";
type = Stem;
},
{
horizontal = 1;
place = "{427, 63}";
type = Stem;
},
{
horizontal = 1;
place = "{707, 63}";
type = Stem;
}
);
paths = (
{
closed = 1;
nodes = (
"-107 -222 LINE",
"13 -254 OFFCURVE",
"103 -197 OFFCURVE",
"122 -61 CURVE SMOOTH",
"189 427 LINE",
"301 427 LINE",
"309 490 LINE",
"197 490 LINE",
"209 593 OFFCURVE",
"229 707 OFFCURVE",
"343 707 CURVE SMOOTH",
"371 707 OFFCURVE",
"397 694 OFFCURVE",
"418 672 CURVE",
"457 731 LINE",
"425 753 OFFCURVE",
"391 770 OFFCURVE",
"337 770 CURVE SMOOTH",
"195 770 OFFCURVE",
"151 659 OFFCURVE",
"120 532 CURVE SMOOTH",
"109 488 OFFCURVE",
"70 490 OFFCURVE",
"46 490 CURVE",
"38 427 LINE",
"109 427 LINE",
"44 -52 LINE SMOOTH",
"33 -138 OFFCURVE",
"-9 -182 OFFCURVE",
"-93 -164 CURVE"
);
}
);
};
layerId = "C7717117-F750-4912-BA39-B64C3F969EBE";
paths = (
{
closed = 1;
nodes = (
"-107 -222 LINE",
"10 -255 OFFCURVE",
"103 -198 OFFCURVE",
"122 -62 CURVE SMOOTH",
"190 427 LINE",
"302 427 LINE",
"311 490 LINE",
"199 490 LINE",
"219 643 OFFCURVE",
"255 709 OFFCURVE",
"345 709 CURVE SMOOTH",
"388 709 OFFCURVE",
"418 681 OFFCURVE",
"418 646 CURVE SMOOTH",
"418 625 OFFCURVE",
"359 215 OFFCURVE",
"330 0 CURVE",
"420 0 LINE",
"420 63 LINE",
"514 766 LINE",
"445 740 LINE",
"436 747 OFFCURVE",
"399 772 OFFCURVE",
"341 772 CURVE SMOOTH",
"195 772 OFFCURVE",
"151 659 OFFCURVE",
"120 531 CURVE SMOOTH",
"109 488 OFFCURVE",
"70 490 OFFCURVE",
"46 490 CURVE",
"38 427 LINE",
"109 427 LINE",
"44 -52 LINE SMOOTH",
"32 -142 OFFCURVE",
"-14 -184 OFFCURVE",
"-93 -164 CURVE"
);
}
);
width = 519;
},
{
background = {
hints = (
{
horizontal = 1;
place = "{-230, 79}";
type = Stem;
},
{
horizontal = 1;
place = "{414, 83}";
type = Stem;
},
{
horizontal = 1;
place = "{733, -20}";
target = down;
type = TopGhost;
},
{
horizontal = 1;
place = "{694, 82}";
type = Stem;
}
);
paths = (
{
closed = 1;
nodes = (
"-120 -216 LINE",
"22 -260 OFFCURVE",
"127 -204 OFFCURVE",
"149 -47 CURVE SMOOTH",
"211 414 LINE",
"329 414 LINE",
"340 497 LINE",
"222 497 LINE",
"232 567 OFFCURVE",
"257 694 OFFCURVE",
"344 694 CURVE SMOOTH",
"387 694 OFFCURVE",
"411 682 OFFCURVE",
"442 654 CURVE",
"491 733 LINE",
"453 759 OFFCURVE",
"393 776 OFFCURVE",
"347 776 CURVE SMOOTH",
"185 776 OFFCURVE",
"152 660 OFFCURVE",
"117 545 CURVE SMOOTH",
"102 497 OFFCURVE",
"62 497 OFFCURVE",
"28 497 CURVE",
"18 414 LINE",
"97 414 LINE",
"36 -35 LINE SMOOTH",
"24 -121 OFFCURVE",
"-10 -174 OFFCURVE",
"-104 -149 CURVE"
);
}
);
};
layerId = "38588886-3B3E-4A1D-B58B-01CA69B4ACA2";
paths = (
{
closed = 1;
nodes = (
"-120 -216 LINE",
"22 -260 OFFCURVE",
"127 -203 OFFCURVE",
"149 -47 CURVE SMOOTH",
"211 414 LINE",
"329 414 LINE",
"340 497 LINE",
"222 497 LINE",
"234 572 OFFCURVE",
"254 694 OFFCURVE",
"354 694 CURVE SMOOTH",
"392 694 OFFCURVE",
"412 671 OFFCURVE",
"412 633 CURVE SMOOTH",
"412 616 OFFCURVE",
"400 531 OFFCURVE",
"329 0 CURVE",
"456 0 LINE",
"453 54 LINE",
"549 769 LINE",
"452 745 LINE",
"430 761 OFFCURVE",
"380 776 OFFCURVE",
"351 776 CURVE SMOOTH",
"185 776 OFFCURVE",
"152 660 OFFCURVE",
"117 545 CURVE SMOOTH",
"102 497 OFFCURVE",
"62 497 OFFCURVE",
"28 497 CURVE",
"18 414 LINE",
"97 414 LINE",
"36 -35 LINE SMOOTH",
"23 -127 OFFCURVE",
"-15 -174 OFFCURVE",
"-104 -149 CURVE"
);
}
);
width = 529;
}
);
note = fl;
rightKerningGroup = d;
unicode = FB02;
},
{
glyphname = ordfeminine;
layers = (
{
layerId = "C7717117-F750-4912-BA39-B64C3F969EBE";
paths = (
{
closed = 1;
nodes = (
"136 721 OFFCURVE",
"72 605 OFFCURVE",
"72 509 CURVE SMOOTH",
"72 442 OFFCURVE",
"104 385 OFFCURVE",
"174 385 CURVE SMOOTH",
"210 385 OFFCURVE",
"244 400 OFFCURVE",
"267 433 CURVE",
"271 433 LINE",
"275 403 OFFCURVE",
"295 386 OFFCURVE",
"325 386 CURVE SMOOTH",
"341 386 OFFCURVE",
"359 394 OFFCURVE",
"373 401 CURVE",
"366 434 LINE",
"358 431 OFFCURVE",
"349 429 OFFCURVE",
"340 429 CURVE SMOOTH",
"324 429 OFFCURVE",
"319 439 OFFCURVE",
"319 455 CURVE SMOOTH",
"319 466 OFFCURVE",
"327 514 OFFCURVE",
"364 716 CURVE",
"331 716 LINE",
"314 691 LINE",
"297 713 OFFCURVE",
"267 721 OFFCURVE",
"243 721 CURVE SMOOTH"
);
},
{
closed = 1;
nodes = (
"264 676 OFFCURVE",
"283 668 OFFCURVE",
"297 651 CURVE",
"288 598 LINE SMOOTH",
"274 513 OFFCURVE",
"245 429 OFFCURVE",
"184 429 CURVE SMOOTH",
"148 429 OFFCURVE",
"132 466 OFFCURVE",
"132 512 CURVE SMOOTH",
"132 585 OFFCURVE",
"173 676 OFFCURVE",
"244 676 CURVE SMOOTH"
);
},
{
closed = 1;
nodes = (
"314 277 LINE",
"322 331 LINE",
"94 331 LINE",
"85 277 LINE"
);
}
);
width = 363;
},
{
guideLines = (
{
angle = 90;
position = "{131, 641}";
},
{
angle = 90;
position = "{49, 641}";
}
);
layerId = "38588886-3B3E-4A1D-B58B-01CA69B4ACA2";
paths = (
{
closed = 1;
nodes = (
"112 715 OFFCURVE",
"49 603 OFFCURVE",
"49 507 CURVE SMOOTH",
"49 433 OFFCURVE",
"86 368 OFFCURVE",
"163 368 CURVE SMOOTH",
"195 368 OFFCURVE",
"233 381 OFFCURVE",
"259 416 CURVE",
"263 416 LINE",
"268 389 OFFCURVE",
"290 370 OFFCURVE",
"317 370 CURVE SMOOTH",
"340 370 OFFCURVE",
"368 379 OFFCURVE",
"388 391 CURVE",
"376 433 LINE",
"368 430 OFFCURVE",
"353 425 OFFCURVE",
"344 425 CURVE SMOOTH",
"331 425 OFFCURVE",
"328 438 OFFCURVE",
"328 449 CURVE SMOOTH",
"328 459 OFFCURVE",
"332 492 OFFCURVE",
"369 709 CURVE",
"326 709 LINE",
"308 682 LINE",
"284 706 OFFCURVE",
"250 715 OFFCURVE",
"228 715 CURVE SMOOTH"
);
},
{
closed = 1;
nodes = (
"243 660 OFFCURVE",
"261 652 OFFCURVE",
"280 634 CURVE",
"273 591 LINE SMOOTH",
"259 507 OFFCURVE",
"235 424 OFFCURVE",
"178 424 CURVE SMOOTH",
"145 424 OFFCURVE",
"130 464 OFFCURVE",
"130 510 CURVE SMOOTH",
"130 578 OFFCURVE",
"162 660 OFFCURVE",
"223 660 CURVE SMOOTH"
);
},
{
closed = 1;
nodes = (
"310 252 LINE",
"318 310 LINE",
"70 310 LINE",
"62 252 LINE"
);
}
);
width = 371;
}
);
note = ordfeminine;
unicode = 00AA;
},
{
glyphname = ordmasculine;
layers = (
{
layerId = "C7717117-F750-4912-BA39-B64C3F969EBE";
paths = (
{
closed = 1;
nodes = (
"364 657 OFFCURVE",
"325 722 OFFCURVE",
"242 722 CURVE SMOOTH",
"137 722 OFFCURVE",
"75 615 OFFCURVE",
"75 522 CURVE SMOOTH",
"75 447 OFFCURVE",
"114 383 OFFCURVE",
"197 383 CURVE SMOOTH",
"304 383 OFFCURVE",
"364 488 OFFCURVE",
"364 582 CURVE SMOOTH"
);
},
{
closed = 1;
nodes = (
"303 520 OFFCURVE",
"273 431 OFFCURVE",
"203 431 CURVE SMOOTH",
"152 431 OFFCURVE",
"136 486 OFFCURVE",
"136 529 CURVE SMOOTH",
"136 587 OFFCURVE",
"168 674 OFFCURVE",
"236 674 CURVE SMOOTH",
"288 674 OFFCURVE",
"303 623 OFFCURVE",
"303 579 CURVE SMOOTH"
);
},
{
closed = 1;
nodes = (
"297 277 LINE",
"306 331 LINE",
"77 331 LINE",
"69 277 LINE"
);
}
);
width = 355;
},
{
layerId = "38588886-3B3E-4A1D-B58B-01CA69B4ACA2";
paths = (
{
closed = 1;
nodes = (
"375 657 OFFCURVE",
"327 715 OFFCURVE",
"240 715 CURVE SMOOTH",
"126 715 OFFCURVE",
"58 614 OFFCURVE",
"58 508 CURVE SMOOTH",
"58 423 OFFCURVE",
"106 366 OFFCURVE",
"192 366 CURVE SMOOTH",
"307 366 OFFCURVE",
"375 465 OFFCURVE",
"375 573 CURVE SMOOTH"
);
},
{
closed = 1;
nodes = (
"290 521 OFFCURVE",
"271 421 OFFCURVE",
"201 421 CURVE SMOOTH",
"153 421 OFFCURVE",
"142 465 OFFCURVE",
"142 505 CURVE SMOOTH",
"142 559 OFFCURVE",
"161 660 OFFCURVE",
"232 660 CURVE SMOOTH",
"279 660 OFFCURVE",
"290 615 OFFCURVE",
"290 576 CURVE SMOOTH"
);
},
{
closed = 1;
nodes = (
"300 252 LINE",
"308 310 LINE",
"61 310 LINE",
"53 252 LINE"
);
}
);
width = 355;
}
);
note = ordmasculine;
unicode = 00BA;
},
{
glyphname = nmod;
layers = (
{
layerId = "C7717117-F750-4912-BA39-B64C3F969EBE";
paths = (
{
closed = 1;
nodes = (
"99 720 LINE",
"108 706 OFFCURVE",
"111 684 OFFCURVE",
"111 662 CURVE SMOOTH",
"111 649 OFFCURVE",
"110 636 OFFCURVE",
"108 626 CURVE SMOOTH",
"75 392 LINE",
"138 392 LINE",
"172 632 LINE",
"198 654 OFFCURVE",
"236 676 OFFCURVE",
"268 676 CURVE SMOOTH",
"306 676 OFFCURVE",
"315 653 OFFCURVE",
"315 625 CURVE SMOOTH",
"315 614 OFFCURVE",
"314 601 OFFCURVE",
"312 589 CURVE SMOOTH",
"284 392 LINE",
"347 392 LINE",
"379 617 LINE SMOOTH",
"380 626 OFFCURVE",
"381 634 OFFCURVE",
"381 642 CURVE SMOOTH",
"381 697 OFFCURVE",
"353 731 OFFCURVE",
"289 731 CURVE SMOOTH",
"250 731 OFFCURVE",
"204 707 OFFCURVE",
"176 681 CURVE",
"176 697 OFFCURVE",
"173 713 OFFCURVE",
"169 728 CURVE"
);
}
);
width = 378;
},
{
layerId = "38588886-3B3E-4A1D-B58B-01CA69B4ACA2";
paths = (
{
closed = 1;
nodes = (
"96 718 LINE",
"103 707 OFFCURVE",
"105 686 OFFCURVE",
"105 666 CURVE SMOOTH",
"105 652 OFFCURVE",
"104 638 OFFCURVE",
"103 629 CURVE SMOOTH",
"71 398 LINE",
"149 398 LINE",
"182 632 LINE",
"197 647 OFFCURVE",
"242 668 OFFCURVE",
"262 668 CURVE SMOOTH",
"293 668 OFFCURVE",
"301 650 OFFCURVE",
"301 628 CURVE SMOOTH",
"301 622 OFFCURVE",
"300 615 OFFCURVE",
"299 608 CURVE SMOOTH",
"270 398 LINE",
"348 398 LINE",
"378 616 LINE SMOOTH",
"380 627 OFFCURVE",
"381 638 OFFCURVE",
"381 648 CURVE SMOOTH",
"381 697 OFFCURVE",
"358 729 OFFCURVE",
"293 729 CURVE SMOOTH",
"258 729 OFFCURVE",
"213 709 OFFCURVE",
"184 686 CURVE",
"184 700 OFFCURVE",
"182 715 OFFCURVE",
"179 727 CURVE"
);
}
);
width = 377;
}
);
unicode = 207F;
},
{
glyphname = pi;
layers = (
{
layerId = "C7717117-F750-4912-BA39-B64C3F969EBE";
paths = (
{
closed = 1;
nodes = (
"224 469 LINE",
"202 314 LINE SMOOTH",
"174 115 OFFCURVE",
"160 66 OFFCURVE",
"61 15 CURVE",
"77 -24 LINE",
"229 24 OFFCURVE",
"250 103 OFFCURVE",
"280 320 CURVE SMOOTH",
"301 469 LINE"
);
},
{
closed = 1;
nodes = (
"424 469 LINE",
"401 353 OFFCURVE",
"370 196 OFFCURVE",
"370 122 CURVE SMOOTH",
"370 42 OFFCURVE",
"395 -5 OFFCURVE",
"468 -5 CURVE SMOOTH",
"504 -5 OFFCURVE",
"536 7 OFFCURVE",
"563 28 CURVE",
"547 67 LINE",
"528 59 OFFCURVE",
"512 55 OFFCURVE",
"500 55 CURVE SMOOTH",
"464 55 OFFCURVE",
"450 86 OFFCURVE",
"450 140 CURVE SMOOTH",
"450 212 OFFCURVE",
"479 358 OFFCURVE",
"502 469 CURVE"
);
},
{
closed = 1;
nodes = (
"637 519 LINE",
"602 500 OFFCURVE",
"572 497 OFFCURVE",
"536 497 CURVE SMOOTH",
"236 497 LINE SMOOTH",
"139 497 OFFCURVE",
"71 442 OFFCURVE",
"55 362 CURVE",
"100 349 LINE",
"118 395 OFFCURVE",
"160 429 OFFCURVE",
"209 429 CURVE SMOOTH",
"536 429 LINE SMOOTH",
"581 429 OFFCURVE",
"625 444 OFFCURVE",
"656 478 CURVE"
);
}
);
width = 669;
},
{
layerId = "38588886-3B3E-4A1D-B58B-01CA69B4ACA2";
paths = (
{
closed = 1;
nodes = (
"204 439 LINE",
"180 257 LINE SMOOTH",
"160 115 OFFCURVE",
"145 83 OFFCURVE",
"55 26 CURVE",
"82 -30 LINE",
"253 20 OFFCURVE",
"275 108 OFFCURVE",
"308 347 CURVE SMOOTH",
"321 439 LINE"
);
},
{
closed = 1;
nodes = (
"420 439 LINE",
"396 338 OFFCURVE",
"368 206 OFFCURVE",
"368 133 CURVE SMOOTH",
"368 44 OFFCURVE",
"400 -5 OFFCURVE",
"488 -5 CURVE SMOOTH",
"524 -5 OFFCURVE",
"567 11 OFFCURVE",
"594 28 CURVE",
"575 91 LINE",
"561 86 OFFCURVE",
"547 84 OFFCURVE",
"536 84 CURVE SMOOTH",
"499 84 OFFCURVE",
"485 113 OFFCURVE",
"485 161 CURVE SMOOTH",
"485 230 OFFCURVE",
"513 341 OFFCURVE",
"538 439 CURVE"
);
},
{
closed = 1;
nodes = (
"656 519 LINE",
"621 500 OFFCURVE",
"590 497 OFFCURVE",
"554 497 CURVE SMOOTH",
"214 497 LINE SMOOTH",
"117 497 OFFCURVE",
"43 422 OFFCURVE",
"27 342 CURVE",
"92 326 LINE",
"110 372 OFFCURVE",
"141 407 OFFCURVE",
"188 407 CURVE SMOOTH",
"551 407 LINE SMOOTH",
"596 407 OFFCURVE",
"651 422 OFFCURVE",
"684 462 CURVE"
);
}
);
width = 669;
}
);
note = pi;
unicode = 03C0;
},
{
glyphname = zero;
layers = (
{
guideLines = (
{
angle = 90;
position = "{118, 460}";
},
{
angle = 90;
position = "{35, 460}";
},
{
angle = 90;
position = "{498, 460}";
},
{
angle = 90;
position = "{415, 460}";
}
);
layerId = "C7717117-F750-4912-BA39-B64C3F969EBE";
paths = (
{
closed = 1;
nodes = (
"132 503 OFFCURVE",
"35 355 OFFCURVE",
"35 206 CURVE SMOOTH",
"35 85 OFFCURVE",
"106 -13 OFFCURVE",
"237 -13 CURVE SMOOTH",
"402 -13 OFFCURVE",
"498 134 OFFCURVE",
"498 284 CURVE SMOOTH",
"498 408 OFFCURVE",
"430 503 OFFCURVE",
"296 503 CURVE SMOOTH"
);
},
{
closed = 1;
nodes = (
"382 441 OFFCURVE",
"415 381 OFFCURVE",
"415 297 CURVE SMOOTH",
"415 184 OFFCURVE",
"376 49 OFFCURVE",
"243 49 CURVE SMOOTH",
"151 49 OFFCURVE",
"118 110 OFFCURVE",
"118 194 CURVE SMOOTH",
"118 306 OFFCURVE",
"158 441 OFFCURVE",
"290 441 CURVE SMOOTH"
);
}
);
width = 533;
},
{
guideLines = (
{
angle = 90;
position = "{42, 417}";
},
{
angle = 90;
position = "{159, 417}";
},
{
angle = 90;
position = "{420, 417}";
},
{
angle = 90;
position = "{537, 417}";
}
);
layerId = "38588886-3B3E-4A1D-B58B-01CA69B4ACA2";
paths = (
{
closed = 1;
nodes = (
"163 510 OFFCURVE",
"42 386 OFFCURVE",
"42 197 CURVE SMOOTH",
"42 76 OFFCURVE",
"127 -12 OFFCURVE",
"255 -12 CURVE SMOOTH",
"450 -12 OFFCURVE",
"537 149 OFFCURVE",
"537 301 CURVE SMOOTH",
"537 424 OFFCURVE",
"455 510 OFFCURVE",
"324 510 CURVE SMOOTH"
);
},
{
closed = 1;
nodes = (
"394 429 OFFCURVE",
"420 371 OFFCURVE",
"420 303 CURVE SMOOTH",
"420 202 OFFCURVE",
"385 69 OFFCURVE",
"266 69 CURVE SMOOTH",
"184 69 OFFCURVE",
"159 123 OFFCURVE",
"159 189 CURVE SMOOTH",
"159 286 OFFCURVE",
"191 429 OFFCURVE",
"313 429 CURVE SMOOTH"
);
}
);
width = 579;
}
);
note = zero;
unicode = 0030;
},
{
glyphname = one;
layers = (
{
layerId = "C7717117-F750-4912-BA39-B64C3F969EBE";
paths = (
{
closed = 1;
nodes = (
"236 493 LINE",
"76 417 LINE",
"82 370 LINE",
"192 401 LINE",
"147 67 LINE",
"36 67 LINE",
"28 0 LINE",
"325 0 LINE",
"334 67 LINE",
"227 67 LINE",
"284 493 LINE"
);
}
);
width = 376;
},
{
layerId = "38588886-3B3E-4A1D-B58B-01CA69B4ACA2";
paths = (
{
closed = 1;
nodes = (
"229 498 LINE",
"54 413 LINE",
"66 349 LINE",
"172 378 LINE",
"136 99 LINE",
"33 99 LINE",
"20 0 LINE",
"337 0 LINE",
"350 99 LINE",
"251 99 LINE",
"303 498 LINE"
);
}
);
width = 391;
}
);
note = one;
unicode = 0031;
},
{
glyphname = two;
layers = (
{
background = {
paths = (
{
closed = 1;
nodes = (
"15 53 LINE",
"15 0 LINE",
"393 0 LINE",
"407 68 LINE",
"120 68 LINE",
"276 201 LINE SMOOTH",
"329 246 OFFCURVE",
"389 306 OFFCURVE",
"389 383 CURVE SMOOTH",
"389 462 OFFCURVE",
"325 503 OFFCURVE",
"252 503 CURVE SMOOTH",
"171 503 OFFCURVE",
"109 462 OFFCURVE",
"62 404 CURVE",
"109 366 LINE",
"109 366 OFFCURVE",
"164 441 OFFCURVE",
"237 441 CURVE SMOOTH",
"282 441 OFFCURVE",
"298 406 OFFCURVE",
"298 379 CURVE SMOOTH",
"298 334 OFFCURVE",
"264 296 OFFCURVE",
"229 262 CURVE SMOOTH"
);
}
);
};
guideLines = (
{
angle = 90;
position = "{416, 460}";
},
{
angle = 90;
position = "{333, 460}";
},
{
position = "{452, 509}";
},
{
position = "{458, 446}";
}
);
layerId = "C7717117-F750-4912-BA39-B64C3F969EBE";
paths = (
{
closed = 1;
nodes = (
"206 509 OFFCURVE",
"127 482 OFFCURVE",
"66 434 CURVE",
"104 381 LINE",
"143 420 OFFCURVE",
"205 445 OFFCURVE",
"253 445 CURVE SMOOTH",
"293 445 OFFCURVE",
"323 427 OFFCURVE",
"323 385 CURVE SMOOTH",
"323 274 OFFCURVE",
"165 161 OFFCURVE",
"4 57 CURVE",
"-4 -1 LINE",
"370 -1 LINE",
"400 68 LINE",
"123 68 LINE",
"261 158 OFFCURVE",
"406 271 OFFCURVE",
"406 400 CURVE SMOOTH",
"406 475 OFFCURVE",
"347 509 OFFCURVE",
"272 509 CURVE SMOOTH"
);
}
);
width = 434;
},
{
background = {
paths = (
{
closed = 1;
nodes = (
"380 0 LINE",
"420 99 LINE",
"171 99 LINE",
"231 151 OFFCURVE",
"293 202 OFFCURVE",
"350 256 CURVE SMOOTH",
"389 293 OFFCURVE",
"418 341 OFFCURVE",
"418 395 CURVE SMOOTH",
"418 475 OFFCURVE",
"347 512 OFFCURVE",
"274 512 CURVE SMOOTH",
"191 512 OFFCURVE",
"122 477 OFFCURVE",
"53 419 CURVE",
"102 355 LINE",
"136 386 OFFCURVE",
"185 421 OFFCURVE",
"229 421 CURVE SMOOTH",
"258 421 OFFCURVE",
"279 403 OFFCURVE",
"279 373 CURVE SMOOTH",
"279 343 OFFCURVE",
"259 317 OFFCURVE",
"239 297 CURVE SMOOTH",
"163 220 OFFCURVE",
"79 129 OFFCURVE",
"1 54 CURVE",
"1 0 LINE"
);
}
);
};
guideLines = (
{
position = "{509, 512}";
},
{
position = "{509, 421}";
}
);
layerId = "38588886-3B3E-4A1D-B58B-01CA69B4ACA2";
paths = (
{
closed = 1;
nodes = (
"210 512 OFFCURVE",
"122 485 OFFCURVE",
"53 437 CURVE",
"102 355 LINE",
"141 389 OFFCURVE",
"205 418 OFFCURVE",
"250 418 CURVE SMOOTH",
"280 418 OFFCURVE",
"301 405 OFFCURVE",
"301 373 CURVE SMOOTH",
"301 277 OFFCURVE",
"144 154 OFFCURVE",
"-1 77 CURVE",
"-12 0 LINE",
"388 0 LINE",
"423 99 LINE",
"195 99 LINE",
"307 167 OFFCURVE",
"437 273 OFFCURVE",
"437 397 CURVE SMOOTH",
"437 477 OFFCURVE",
"370 512 OFFCURVE",
"285 512 CURVE SMOOTH"
);
}
);
width = 467;
}
);
note = two;
unicode = 0032;
},
{
glyphname = three;
layers = (
{
background = {
paths = (
{
closed = 1;
nodes = (
"345 481 OFFCURVE",
"295 503 OFFCURVE",
"241 503 CURVE SMOOTH",
"178 503 OFFCURVE",
"104 472 OFFCURVE",
"57 422 CURVE",
"99 385 LINE",
"129 412 OFFCURVE",
"176 441 OFFCURVE",
"212 441 CURVE SMOOTH",
"239 441 OFFCURVE",
"256 429 OFFCURVE",
"256 401 CURVE SMOOTH",
"256 322 OFFCURVE",
"145 233 OFFCURVE",
"76 196 CURVE",
"96 142 LINE",
"123 151 OFFCURVE",
"151 157 OFFCURVE",
"175 157 CURVE SMOOTH",
"219 157 OFFCURVE",
"246 138 OFFCURVE",
"246 91 CURVE SMOOTH",
"246 -58 OFFCURVE",
"50 -147 OFFCURVE",
"-85 -160 CURVE",
"-81 -212 LINE",
"102 -205 OFFCURVE",
"334 -101 OFFCURVE",
"334 105 CURVE SMOOTH",
"334 174 OFFCURVE",
"293 222 OFFCURVE",
"223 222 CURVE SMOOTH",
"216 222 OFFCURVE",
"209 222 OFFCURVE",
"202 221 CURVE",
"266 264 OFFCURVE",
"345 343 OFFCURVE",
"345 417 CURVE SMOOTH"
);
}
);
};
layerId = "C7717117-F750-4912-BA39-B64C3F969EBE";
paths = (
{
closed = 1;
nodes = (
"177 510 OFFCURVE",
"101 485 OFFCURVE",
"40 439 CURVE",
"76 382 LINE",
"112 419 OFFCURVE",
"174 446 OFFCURVE",
"219 446 CURVE SMOOTH",
"254 446 OFFCURVE",
"273 424 OFFCURVE",
"273 391 CURVE SMOOTH",
"273 302 OFFCURVE",
"145 222 OFFCURVE",
"62 185 CURVE",
"78 137 LINE",
"101 144 OFFCURVE",
"123 148 OFFCURVE",
"142 148 CURVE SMOOTH",
"192 148 OFFCURVE",
"228 123 OFFCURVE",
"228 66 CURVE SMOOTH",
"228 -83 OFFCURVE",
"42 -144 OFFCURVE",
"-120 -152 CURVE",
"-122 -196 LINE",
"72 -202 OFFCURVE",
"325 -122 OFFCURVE",
"325 75 CURVE SMOOTH",
"325 158 OFFCURVE",
"260 194 OFFCURVE",
"195 197 CURVE",
"286 243 OFFCURVE",
"364 326 OFFCURVE",
"364 410 CURVE SMOOTH",
"364 479 OFFCURVE",
"314 510 OFFCURVE",
"240 510 CURVE SMOOTH"
);
}
);
width = 380;
},
{
background = {
paths = (
{
closed = 1;
nodes = (
"365 189 OFFCURVE",
"310 225 OFFCURVE",
"234 225 CURVE SMOOTH",
"225 225 OFFCURVE",
"214 224 OFFCURVE",
"204 223 CURVE",
"276 258 OFFCURVE",
"384 335 OFFCURVE",
"384 421 CURVE SMOOTH",
"384 488 OFFCURVE",
"321 511 OFFCURVE",
"262 511 CURVE SMOOTH",
"201 511 OFFCURVE",
"120 485 OFFCURVE",
"72 435 CURVE",
"118 379 LINE",
"144 402 OFFCURVE",
"186 428 OFFCURVE",
"218 428 CURVE SMOOTH",
"239 428 OFFCURVE",
"249 414 OFFCURVE",
"249 394 CURVE SMOOTH",
"249 314 OFFCURVE",
"141 235 OFFCURVE",
"78 206 CURVE",
"103 134 LINE",
"124 142 OFFCURVE",
"149 148 OFFCURVE",
"171 148 CURVE SMOOTH",
"210 148 OFFCURVE",
"230 128 OFFCURVE",
"230 90 CURVE SMOOTH",
"230 -84 OFFCURVE",
"13 -124 OFFCURVE",
"-102 -128 CURVE",
"-98 -198 LINE",
"-90 -198 LINE SMOOTH",
"101 -198 OFFCURVE",
"365 -102 OFFCURVE",
"365 112 CURVE SMOOTH"
);
}
);
};
layerId = "38588886-3B3E-4A1D-B58B-01CA69B4ACA2";
paths = (
{
closed = 1;
nodes = (
"198 512 OFFCURVE",
"112 487 OFFCURVE",
"40 437 CURVE",
"89 355 LINE",
"126 392 OFFCURVE",
"188 419 OFFCURVE",
"227 419 CURVE SMOOTH",
"255 419 OFFCURVE",
"266 402 OFFCURVE",
"266 376 CURVE SMOOTH",
"266 298 OFFCURVE",
"139 217 OFFCURVE",
"62 184 CURVE",
"84 126 LINE",
"105 134 OFFCURVE",
"127 138 OFFCURVE",
"146 138 CURVE SMOOTH",
"193 138 OFFCURVE",
"230 115 OFFCURVE",
"230 67 CURVE SMOOTH",
"230 -85 OFFCURVE",
"67 -128 OFFCURVE",
"-101 -139 CURVE",
"-104 -198 LINE",
"127 -198 OFFCURVE",
"362 -103 OFFCURVE",
"362 78 CURVE SMOOTH",
"362 161 OFFCURVE",
"285 195 OFFCURVE",
"217 195 CURVE",
"307 239 OFFCURVE",
"396 322 OFFCURVE",
"396 410 CURVE SMOOTH",
"396 475 OFFCURVE",
"345 512 OFFCURVE",
"267 512 CURVE SMOOTH"
);
}
);
width = 410;
}
);
note = three;
unicode = 0033;
},
{
glyphname = four;
layers = (
{
background = {
paths = (
{
closed = 1;
nodes = (
"441 0 LINE",
"453 69 LINE",
"358 69 LINE",
"414 490 LINE",
"320 490 LINE",
"-3 41 LINE",
"-3 0 LINE",
"269 0 LINE",
"244 -183 LINE",
"323 -183 LINE",
"348 0 LINE"
);
},
{
closed = 1;
nodes = (
"90 69 LINE",
"322 391 LINE",
"278 69 LINE"
);
}
);
};
layerId = "C7717117-F750-4912-BA39-B64C3F969EBE";
paths = (
{
closed = 1;
nodes = (
"-10 40 LINE",
"-16 0 LINE",
"256 0 LINE",
"230 -185 LINE",
"313 -185 LINE",
"339 0 LINE",
"422 0 LINE",
"450 69 LINE",
"349 69 LINE",
"409 498 LINE",
"311 498 LINE"
);
},
{
closed = 1;
nodes = (
"266 69 LINE",
"86 69 LINE",
"312 399 LINE"
);
}
);
width = 477;
},
{
background = {
paths = (
{
closed = 1;
nodes = (
"485 -1 LINE",
"502 99 LINE",
"403 99 LINE",
"455 498 LINE",
"331 498 LINE",
"1 57 LINE",
"1 -1 LINE",
"271 -1 LINE",
"247 -184 LINE",
"366 -184 LINE",
"390 -1 LINE"
);
},
{
closed = 1;
nodes = (
"314 329 LINE",
"284 99 LINE",
"143 99 LINE"
);
}
);
};
layerId = "38588886-3B3E-4A1D-B58B-01CA69B4ACA2";
paths = (
{
closed = 1;
nodes = (
"-26 57 LINE",
"-34 -1 LINE",
"238 -1 LINE",
"212 -184 LINE",
"337 -184 LINE",
"363 -1 LINE",
"442 -1 LINE",
"484 99 LINE",
"377 99 LINE",
"433 498 LINE",
"302 498 LINE"
);
},
{
closed = 1;
nodes = (
"252 99 LINE",
"103 99 LINE",
"287 349 LINE"
);
}
);
width = 497;
}
);
note = four;
unicode = 0034;
},
{
glyphname = five;
layers = (
{
background = {
paths = (
{
closed = 1;
nodes = (
"314 406 LINE",
"338 490 LINE",
"113 490 LINE",
"28 283 LINE",
"115 241 OFFCURVE",
"194 159 OFFCURVE",
"194 75 CURVE SMOOTH",
"194 -75 OFFCURVE",
"60 -130 OFFCURVE",
"-16 -155 CURVE",
"-2 -207 LINE",
"-2 -207 OFFCURVE",
"280 -161 OFFCURVE",
"280 80 CURVE SMOOTH",
"280 216 OFFCURVE",
"172 296 OFFCURVE",
"115 327 CURVE",
"146 406 LINE"
);
}
);
};
layerId = "C7717117-F750-4912-BA39-B64C3F969EBE";
paths = (
{
closed = 1;
nodes = (
"38 273 LINE",
"129 238 OFFCURVE",
"194 175 OFFCURVE",
"194 93 CURVE SMOOTH",
"194 -48 OFFCURVE",
"91 -127 OFFCURVE",
"-62 -165 CURVE",
"-56 -209 LINE",
"126 -182 OFFCURVE",
"291 -67 OFFCURVE",
"291 105 CURVE SMOOTH",
"291 199 OFFCURVE",
"228 263 OFFCURVE",
"130 306 CURVE",
"188 412 LINE",
"375 412 LINE",
"411 497 LINE",
"165 497 LINE"
);
}
);
width = 364;
},
{
background = {
paths = (
{
closed = 1;
nodes = (
"370 377 LINE",
"403 498 LINE",
"140 498 LINE",
"43 273 LINE",
"113 241 OFFCURVE",
"212 166 OFFCURVE",
"212 77 CURVE SMOOTH",
"212 -48 OFFCURVE",
"99 -114 OFFCURVE",
"0 -145 CURVE",
"21 -207 LINE",
"165 -187 OFFCURVE",
"338 -92 OFFCURVE",
"338 82 CURVE SMOOTH",
"338 194 OFFCURVE",
"258 276 OFFCURVE",
"171 327 CURVE",
"192 377 LINE"
);
}
);
};
layerId = "38588886-3B3E-4A1D-B58B-01CA69B4ACA2";
paths = (
{
closed = 1;
nodes = (
"32 255 LINE",
"121 227 OFFCURVE",
"192 175 OFFCURVE",
"192 97 CURVE SMOOTH",
"192 -30 OFFCURVE",
"71 -116 OFFCURVE",
"-69 -150 CURVE",
"-61 -207 LINE",
"127 -185 OFFCURVE",
"327 -63 OFFCURVE",
"327 114 CURVE SMOOTH",
"327 205 OFFCURVE",
"255 263 OFFCURVE",
"151 300 CURVE",
"196 377 LINE",
"400 377 LINE",
"452 498 LINE",
"165 498 LINE"
);
}
);
width = 409;
}
);
note = five;
unicode = 0035;
},
